<?xml version="1.0" encoding="UTF-8"?><svg id="Modo_de_aislamiento" xmlns="http://www.w3.org/2000/svg" viewBox="0 0 291.62 305.46"><defs><style>.cls-1{fill:#4e4d4d;}</style></defs><path class="cls-1" d="M173.75,140.86c-1.16-2.84-2.47-5.57-3.9-8.21-.05-.09-.09-.18-.15-.26-2.61-4.76-5.63-9.17-9.02-13.22-.17-.25-.36-.47-.58-.67-22.39-26.12-59.84-36.34-93.4-22.65-20.31,8.29-36.17,23.98-44.67,44.2-8.5,20.22-8.62,42.53-.33,62.84,8.29,20.31,23.98,36.17,44.2,44.67,10.24,4.31,21.02,6.46,31.81,6.46,9.47,0,18.94-1.68,28.05-5,.45-.06,.91-.18,1.33-.41,.12-.06,.22-.15,.32-.22,.44-.17,.89-.32,1.33-.5,41.92-17.11,62.1-65.13,44.99-107.04Zm-46.73,99.32c-8.1-16.68-9.68-35.5-4.41-53.4,6.32-21.48,21.53-38.54,41.99-47.3,.68,1.41,1.35,2.84,1.95,4.31,15.32,37.54-2.41,80.47-39.53,96.39Zm-14.99,4.66c-8.9-19.64-10.47-41.7-4.36-62.46,7.36-25.02,25.01-45.34,48.62-56.23,1.62,2.07,3.14,4.22,4.55,6.48-22.24,9.77-38.76,28.47-45.67,51.95-5.75,19.53-4.11,40.05,4.55,58.3-2.54,.79-5.1,1.45-7.68,1.96Zm-43.11-4.44c-18.31-7.69-32.52-22.06-40.02-40.44-7.5-18.38-7.4-38.59,.3-56.9,7.69-18.31,22.06-32.52,40.44-40.02,9.17-3.74,18.65-5.51,27.99-5.51,20.03,0,39.36,8.16,53.35,22.49-24.62,12.04-42.98,33.7-50.77,60.15-6.43,21.83-5.04,44.98,3.82,65.79-11.85,1.02-23.84-.83-35.11-5.57Z"/><path class="cls-1" d="M238.99,121.11l37.41-25.97c.94-.65,1.54-1.68,1.65-2.82,.79-8.2-2.76-16.92-9.5-23.34-5.27-5.02-12.51-8.79-21.51-11.19-7.29-1.95-13.71-2.52-19.6-1.73-9.36,1.25-17.66,5.99-24.99,10.18-1.49,.85-2.24,2.57-1.86,4.25l9.44,40.97c-11.64-1.95-23.56-1.76-35.11,.54-10.17-13.15-23.59-23.54-39.33-30.16-18.17-7.64-37.78-9.58-56.7-5.82l13.02-43.61c.33-1.09,.16-2.27-.47-3.23-4.5-6.9-12.71-11.5-21.98-12.31-7.25-.63-15.25,.94-23.79,4.67-6.92,3.03-12.29,6.58-16.4,10.87-6.53,6.81-10.06,15.7-13.18,23.54-.63,1.59-.15,3.41,1.2,4.48l32.94,26.12c-19.06,10.57-33.96,27.08-42.53,47.48-10.11,24.05-10.25,50.6-.39,74.76,9.86,24.16,28.53,43.03,52.59,53.14,12.19,5.12,25.01,7.69,37.84,7.68,6.38,0,12.77-.64,19.08-1.91,12.61,16.27,29.68,27.93,49.54,33.77,9.17,2.7,18.43,3.99,27.54,3.99,42.21,0,81.24-27.61,93.75-70.1,13.4-45.52-8.03-93.14-48.65-114.24Zm8.49-39.2c-.12,.2-.21,.42-.21,.67-.09,.11-.16,.23-.25,.34-6.37-1.67-12.69-3.55-18.94-5.61l15.23-11.97c1.87,5.38,3.26,10.93,4.17,16.56Zm-22.26-5.54c-5.07-1.72-10.1-3.58-15.07-5.56,4.34-2.41,8.8-4.66,13.44-6.01l1.63,11.56Zm20.21,8.81c-6.99,9.59-13.13,19.82-18.22,30.53-.03,.07-.03,.14-.05,.21-.95-.34-1.92-.66-2.9-.98,0-.04,.03-.08,.04-.12l3.41-34.9c5.86,1.92,11.77,3.68,17.73,5.25Zm-15.89,31.65h0c5.16-10.88,11.43-21.25,18.58-30.94,7.04,1.8,14.14,3.35,21.28,4.66l-38.56,26.78c-.43-.17-.87-.32-1.3-.49Zm40.74-28.75c-6.56-1.2-13.08-2.61-19.55-4.22,4.02-3.15,7.84-6.56,11.42-10.18,.36,.31,.72,.61,1.06,.93,4.03,3.84,6.53,8.69,7.08,13.47Zm-10.21-16.04c-2.99,3.01-6.14,5.9-9.45,8.58-.12-.12-.22-.27-.39-.33-.12-.05-.25-.01-.38-.02-.86-4.97-2.11-9.87-3.71-14.65,5.53,1.59,10.2,3.74,13.93,6.43Zm-31.59-8.29c3.65-.48,7.62-.32,12.04,.51l-12.96,10.18-1.45-10.27c.78-.17,1.57-.31,2.37-.42Zm-19.27,9.48c5.27,2.09,10.59,4.05,15.97,5.86l-3.42,35.05c-.08-.02-.16-.05-.23-.07-1.02-.3-2.06-.54-3.09-.8l-9.23-40.03Zm-21.02,61.74c-.18-.43-.37-.85-.56-1.27,9.17-.79,18.33,.12,27.31,2.76,19.05,5.61,34.77,18.3,44.28,35.73,9.5,17.44,11.65,37.53,6.04,56.57-5.61,19.05-18.3,34.77-35.73,44.28-17.43,9.5-37.52,11.65-56.57,6.04-12.35-3.63-23.42-10.33-32.3-19.47,21.28-10.37,37.89-27.86,47.14-49.88,10.11-24.05,10.25-50.6,.39-74.76Zm-119.36-56.38h0c-2.75-11.73-4.32-23.74-4.79-35.77,6.63-2.99,13.14-6.21,19.54-9.64l-13.43,44.98c-.44,.13-.88,.28-1.32,.42Zm-5.31,1.83s-.02-.08-.05-.12l-19.11-29.4c5.77-2.15,11.49-4.47,17.13-6.95,.53,11.85,2.1,23.68,4.81,35.23,.02,.07,.06,.13,.09,.2-.96,.33-1.92,.68-2.87,1.04Zm-.81-43.27c-.17-.02-.34-.07-.51-.02-.13,.04-.21,.15-.31,.22-3.77-3.34-7.81-6.4-12.04-9.14,5.32-2.21,10.31-3.44,14.9-3.67-.46,4.23-1.11,8.45-2.03,12.6Zm-1.61,3c.03,.22,.08,.44,.23,.63,0,.14,.02,.28,.02,.42-6.02,2.67-12.13,5.14-18.3,7.43l4.43-18.85c4.83,3.05,9.4,6.53,13.62,10.37Zm21.62-9.43c-5.87,3.15-11.85,6.12-17.91,8.9,1.18-4.96,2.03-10.01,2.57-15.08,.47,.02,.95,.03,1.41,.07,5.55,.49,10.53,2.71,13.93,6.11Zm-38.11-.05l-3.77,16.04-7.54-7.12c.51-.62,1.03-1.22,1.59-1.8,2.55-2.66,5.76-5.01,9.73-7.12Zm-12.89,11l8.49,8.02c-5.04,1.82-10.12,3.5-15.25,5.06,1.89-4.6,3.97-9.13,6.76-13.08Zm-5.99,15.55c5.42-1.65,10.8-3.45,16.14-5.39l19.2,29.53c-.08,.03-.15,.06-.23,.09-.99,.41-1.96,.85-2.94,1.28L25.72,57.21ZM62.89,254.77c-22.14-9.31-39.33-26.68-48.41-48.91-18.73-45.9,3.37-98.49,49.27-117.22,10.97-4.48,22.48-6.72,33.98-6.72s23.62,2.36,34.83,7.07c15.16,6.37,27.99,16.53,37.49,29.43,.06,.08,.12,.16,.18,.24,4.3,5.88,7.91,12.33,10.74,19.25,9.07,22.24,8.95,46.68-.36,68.81-9.31,22.14-26.68,39.33-48.91,48.41-22.24,9.07-46.68,8.95-68.82-.36Zm217.29-21.6c-14,47.56-64.08,74.86-111.64,60.86-17.16-5.05-32.03-14.84-43.38-28.39,2.68-.79,5.34-1.71,7.98-2.74,10.12,11.18,23.04,19.36,37.61,23.64,7.71,2.27,15.49,3.35,23.15,3.35,35.48,0,68.29-23.21,78.8-58.93,6.19-21.04,3.82-43.23-6.67-62.49-10.5-19.26-27.86-33.27-48.9-39.46-10.84-3.19-21.92-4.09-33-2.75-1.32-2.51-2.76-4.94-4.28-7.31,13.11-2.08,26.64-1.21,39.48,2.56,47.56,14,74.86,64.09,60.86,111.65Z"/><path class="cls-1" d="M147.12,30.04c.07,0,.13,0,.2,0,2.14-.11,3.79-1.93,3.68-4.08l-1.13-22.27c-.11-2.14-1.96-3.74-4.07-3.68-2.14,.11-3.79,1.93-3.68,4.08l1.13,22.27c.1,2.07,1.82,3.69,3.87,3.69Z"/><path class="cls-1" d="M169.72,29.35c.69,.5,1.49,.75,2.29,.75,1.2,0,2.38-.55,3.14-1.6l8.41-11.53c1.26-1.73,.88-4.16-.85-5.43-1.74-1.26-4.16-.88-5.43,.85l-8.41,11.53c-1.26,1.73-.88,4.16,.85,5.43Z"/><path class="cls-1" d="M119.41,35.21c.74,1.16,1.99,1.79,3.28,1.79,.72,0,1.44-.2,2.09-.61,1.81-1.16,2.34-3.56,1.18-5.37l-6.87-10.76c-1.15-1.81-3.56-2.33-5.36-1.18-1.81,1.16-2.34,3.56-1.18,5.37l6.87,10.76Z"/><path class="cls-1" d="M192.72,40.92c.71,0,1.43-.19,2.08-.6l6.11-3.87c1.81-1.15,2.35-3.54,1.21-5.36-1.14-1.81-3.54-2.35-5.36-1.21l-6.12,3.88c-1.81,1.15-2.35,3.55-1.2,5.36,.74,1.17,2,1.81,3.28,1.81Z"/></svg>