<?xml version="1.0" encoding="UTF-8"?><svg id="Modo_de_aislamiento" xmlns="http://www.w3.org/2000/svg" viewBox="0 0 196.21 169.92"><defs><style>.cls-1{fill:#4e4d4d;}</style></defs><path class="cls-1" d="M186.23,48.65c-3.99-3.54-9.13-5.25-14.43-4.86l-38.01,2.86v-8.95c0-3.83-1.62-7.52-4.44-10.12-2.82-2.6-6.64-3.9-10.45-3.59l-52.15,4.3c-3.76,.31-7.15,2.09-9.53,5.02-2.38,2.93-3.45,6.6-2.99,10.35l1.08,8.9-11.71,.88-.25-7.85c-.02-.62-.29-1.2-.74-1.61-.46-.42-1.06-.62-1.68-.59-7.97,.5-16.06,.47-24.04-.07-.67-.05-1.33,.21-1.79,.69-.47,.48-.7,1.15-.63,1.81l1.01,9.92c-4.26,.89-8.08,3.15-10.93,6.56C1.14,66.4-.44,71.56,.1,76.85H.1l7.73,75.52c1.02,9.96,9.59,17.55,19.45,17.55,.5,0,1.01-.02,1.52-.06l149.39-11.78c10.56-.83,18.46-9.77,17.98-20.36l-3.4-75.33c-.24-5.33-2.57-10.21-6.56-13.74Zm-127.47-5.53c-.31-2.51,.41-4.96,2-6.92,1.59-1.96,3.86-3.15,6.37-3.35l52.15-4.3c2.61-.22,5.07,.64,6.99,2.4,1.91,1.76,2.97,4.16,2.97,6.76v9.29l-69.37,5.23-1.11-9.1Zm-19.89,4.96l.18,5.71-19.04,1.43-.73-7.18c6.51,.34,13.08,.36,19.59,.03Zm-30.82,17.16c2.62-3.13,6.3-5.02,10.36-5.32l153.73-11.58c.39-.03,.77-.04,1.16-.04,3.66,0,7.14,1.32,9.91,3.77,3.06,2.71,4.84,6.45,5.03,10.54l.73,16.25c-15.66,2.4-31.62,3.77-47.45,4.06-.09,0-.18,.03-.26,.06-7.86-12.19-21.56-20.29-37.12-20.29-18.75,0-34.8,11.76-41.19,28.29l-56.32,4.96-2-19.54c-.42-4.06,.8-8.01,3.41-11.14Zm96.09,1.99c21.83,0,39.59,17.76,39.59,39.59s-17.76,39.58-39.59,39.58-39.58-17.76-39.58-39.58,17.76-39.59,39.58-39.59Zm73.7,86.3l-149.39,11.78c-8.07,.6-15.26-5.38-16.08-13.41l-2-19.51,5.33,1.23c.06,.01,.11,.02,.17,.02,.35,0,.66-.24,.74-.59,.09-.41-.16-.82-.57-.91l-5.84-1.35-.4-3.94c.1,.03,.2,.04,.3,.02,1.4-.16,2.86,.28,3.93,1.18,.14,.12,.32,.18,.49,.18,.22,0,.43-.09,.58-.27,.27-.32,.23-.8-.09-1.07-1.38-1.17-3.28-1.74-5.08-1.52-.1,.01-.19,.04-.27,.09l-2.87-28.02,55.59-4.9c-1.54,4.48-2.38,9.28-2.38,14.28,0,24.34,19.8,44.14,44.14,44.14s44.14-19.8,44.14-44.14c0-8.18-2.24-15.83-6.13-22.41,15.65-.31,31.41-1.67,46.88-4.03l1.4,30.93-2.67-1.19c-.38-.17-.83,0-1,.39-.17,.38,0,.83,.39,1l3.36,1.49,1.13,24.93c.36,8.11-5.69,14.97-13.79,15.61Z"/><path class="cls-1" d="M104.14,136.47c16.35,0,29.65-13.3,29.65-29.65,0-10.82-5.85-20.28-14.53-25.46l1.32-2.63c.19-.38,.04-.83-.34-1.02-.37-.19-.83-.04-1.02,.34l-1.28,2.55c-.86-.46-1.75-.87-2.67-1.24,.05-.99,.44-1.98,1.12-2.7,.29-.31,.27-.79-.03-1.07-.31-.29-.79-.27-1.07,.03-.83,.88-1.34,2.01-1.5,3.2-3.03-1.05-6.27-1.65-9.66-1.65-16.35,0-29.65,13.3-29.65,29.65s13.3,29.65,29.65,29.65Zm0-54.74c13.84,0,25.09,11.26,25.09,25.09s-11.26,25.09-25.09,25.09-25.09-11.26-25.09-25.09,11.26-25.09,25.09-25.09Z"/><path class="cls-1" d="M86.96,111.6c.08,0,.16-.01,.23-.04,.4-.13,.62-.56,.49-.96-1.81-5.63,.57-12.28,5.54-15.48,.35-.23,.46-.7,.23-1.05-.23-.35-.7-.46-1.05-.23-5.53,3.56-8.18,10.96-6.16,17.22,.1,.32,.4,.53,.72,.53Z"/><path class="cls-1" d="M97.38,93.07c.08,0,.17-.01,.25-.04l1.34-.47c.4-.14,.6-.57,.46-.97-.14-.4-.58-.61-.97-.46l-1.34,.47c-.4,.14-.6,.57-.46,.97,.11,.31,.4,.51,.72,.51Z"/><path class="cls-1" d="M190.03,118.29l-6.3-3.16c-.37-.19-.83-.04-1.02,.34-.19,.37-.04,.83,.34,1.02l6.3,3.16c.11,.05,.23,.08,.34,.08,.28,0,.55-.15,.68-.42,.19-.38,.04-.83-.34-1.02Z"/><path class="cls-1" d="M20.61,84.58c.4,0,.81-.04,1.23-.11,2.14-.38,3.83-1.68,4.54-3.48,.71-1.79,.35-3.9-.95-5.64-1.3-1.74-3.21-2.68-5.14-2.5-.2,.02-.37,.11-.49,.24-.16-.08-.36-.11-.55-.06-1.86,.51-3.33,2.05-3.95,4.13-.61,2.08-.21,4.18,1.07,5.62,1.04,1.16,2.57,1.79,4.24,1.79Zm-3.86-6.97c.46-1.57,1.54-2.73,2.89-3.1,.14-.04,.27-.12,.36-.22,.12,.06,.27,.09,.41,.08,1.39-.11,2.81,.58,3.79,1.9,.98,1.31,1.26,2.87,.75,4.17-.51,1.3-1.78,2.25-3.39,2.54-1.61,.29-3.13-.16-4.07-1.2-.93-1.04-1.21-2.6-.75-4.17Z"/><path class="cls-1" d="M33.68,81.66c.67,.34,1.42,.51,2.18,.51,.97,0,1.97-.27,2.9-.82,1.66-.97,2.69-2.57,2.76-4.28,.07-1.71-.83-3.39-2.4-4.48-1.57-1.1-3.46-1.37-5.04-.71-.28,.11-.45,.37-.47,.65-.26-.12-.56-.09-.8,.09-1.35,1.06-2.04,2.83-1.86,4.74,.18,1.91,1.2,3.52,2.73,4.29Zm.07-7.84c.18-.14,.28-.34,.29-.55,.19,.09,.41,.11,.62,.02,1.1-.45,2.44-.25,3.59,.55,1.15,.8,1.8,1.99,1.75,3.18-.05,1.19-.8,2.32-2,3.03-1.21,.7-2.56,.81-3.62,.26-1.06-.54-1.77-1.7-1.91-3.09-.13-1.39,.34-2.66,1.28-3.4Z"/><path class="cls-1" d="M150.76,28.2c.58,0,1.17-.22,1.61-.67l10.13-10.13c.89-.89,.89-2.33,0-3.22s-2.33-.89-3.22,0l-10.13,10.13c-.89,.89-.89,2.33,0,3.22,.45,.45,1.03,.67,1.61,.67Z"/><path class="cls-1" d="M30.11,27.26l8.78,4.73c.34,.19,.71,.27,1.08,.27,.81,0,1.6-.43,2.01-1.2,.6-1.11,.18-2.49-.93-3.09l-8.78-4.73c-1.11-.59-2.49-.18-3.09,.93-.6,1.11-.18,2.49,.93,3.09Z"/><path class="cls-1" d="M91.31,13.34c.24,0,.49-.04,.73-.12,1.19-.4,1.83-1.7,1.43-2.89-.8-2.36-.8-4.96,0-7.32,.4-1.19-.24-2.49-1.43-2.89-1.2-.4-2.49,.24-2.89,1.43-1.12,3.3-1.12,6.94,0,10.25,.32,.95,1.21,1.55,2.16,1.55Z"/><path class="cls-1" d="M121.21,14.37c.37,.22,.77,.33,1.17,.33,.77,0,1.53-.39,1.96-1.11l4.05-6.76c.65-1.08,.3-2.48-.78-3.13-1.08-.65-2.48-.3-3.13,.78l-4.05,6.76c-.65,1.08-.3,2.48,.78,3.13Z"/><path class="cls-1" d="M57.33,17.34c.45,.45,1.03,.67,1.61,.67s1.16-.22,1.61-.66c.89-.89,.9-2.33,0-3.22l-2.7-2.71c-.89-.89-2.33-.89-3.22,0s-.89,2.33,0,3.22l2.7,2.7Z"/></svg>