<?xml version="1.0" encoding="UTF-8"?><svg xmlns="http://www.w3.org/2000/svg" xmlns:xlink="http://www.w3.org/1999/xlink" viewBox="0 0 344.5 153"><defs><style>.cls-1{fill:#9d9d9c;}.cls-2{fill:#00acc1;}.cls-3{fill:url(#Degradado_sin_nombre_95);}</style><radialGradient id="Degradado_sin_nombre_95" cx="240.28" cy="78.93" fx="240.28" fy="78.93" r="98.11" gradientTransform="translate(0 -16.69) scale(1 1.21)" gradientUnits="userSpaceOnUse"><stop offset="0" stop-color="#fff"/><stop offset="1" stop-color="#6b6b6a"/></radialGradient></defs><g id="Capa_3"><rect class="cls-3" x="149.02" y="12.51" width="182.52" height="132.84" rx="29.7" ry="29.7"/></g><g id="Capa_2"><path class="cls-1" d="M301.9,11.1h-123.24c-17.17,0-31.14,13.97-31.14,31.14V115.8c0,17.17,13.97,31.14,31.14,31.14h123.24c17.17,0,31.14-13.97,31.14-31.14V42.24c0-17.17-13.97-31.14-31.14-31.14Zm-24.18,85.68c-5.62-4.81-9.29-22.92-1.28-35.88h53.61v35.88h-52.32Zm24.18-82.68c15.52,0,28.14,12.62,28.14,28.14v15.66h-53.71v.94l-1.46-1.03c-9.52,13.53-6.51,33.96,.36,40.75-5.67,9.18-6.58,18.86-5.67,27.08-28.98,5.26-53.93,1.27-59.97-.17,1.26-12.14-2.26-22.95-3.2-25.56,7.68-18.69,1.95-35.85,0-39.8,2.44-8.51,4.27-17.45,3.47-26.83,18.24-3.99,38.05-2.54,55.57-1.24,1.7,.13,3.37,.25,5.02,.37-.59,2.73-.9,5.62-.9,8.62h3c0-14.85,8.21-26.94,18.3-26.94h11.04Zm-92.7,114.27c4.55,1.05,15.71,2.94,30.51,2.94,8.97,0,19.28-.71,30.27-2.69,1.15,6.86,3.4,12.4,4.77,15.32h-71.65c3.38-4.98,5.23-10.34,6.1-15.57Zm-58.68-67.47h53.37l-.35,.23c1.2,1.81,7.62,18.83,.23,37.27h-53.25V60.9Zm54.27-.6l-.56,.37v-.53l.56,.16Zm66.36-30.59l.02-.25c-1.8-.13-3.64-.26-5.5-.4-17.63-1.31-37.56-2.77-56.14,1.24-.76-5.26-2.4-10.66-5.26-16.2h77.3c-4.7,3.21-8.43,8.79-10.43,15.61Zm-92.49-15.61h22.21c8.64,15.66,6.77,30.28,3.03,43.8h-53.39v-15.66c0-15.52,12.62-28.14,28.14-28.14Zm-28.14,101.7v-14.4h53.21c1.6,4.77,7.92,26.69-4.33,42.54h-20.73c-15.52,0-28.14-12.62-28.14-28.14Zm151.38,28.14h-23.82c-2.16-4.21-11.92-25.46-.07-44.16h52.03v16.02c0,15.52-12.62,28.14-28.14,28.14Z"/><path class="cls-2" d="M100.41,135.76c-1.23,0-2.47-.32-3.6-1-3.31-1.99-4.39-6.29-2.4-9.61,23.97-39.91,12.54-70.61-.09-92.9-1.91-3.36-.72-7.64,2.64-9.54,3.36-1.91,7.64-.72,9.54,2.64,13.38,23.61,27.92,60.38-.09,107.02-1.31,2.19-3.63,3.4-6.01,3.4Z"/><path class="cls-2" d="M78.42,123c-.93,0-1.88-.19-2.79-.58-3.54-1.54-5.17-5.67-3.62-9.21,14.71-33.77,12.68-47.2-.41-68.09-2.05-3.28-1.06-7.6,2.21-9.65,3.28-2.05,7.6-1.06,9.65,2.21,16.6,26.49,16.92,45.44,1.38,81.12-1.15,2.63-3.72,4.21-6.42,4.21Z"/><path class="cls-2" d="M55.08,112.35c-1.09,0-2.2-.26-3.24-.8-3.43-1.79-4.75-6.02-2.96-9.45,11.47-21.95,6.04-37.01-.53-45.78-2.32-3.09-1.69-7.48,1.4-9.8,3.09-2.32,7.48-1.69,9.8,1.4,7.36,9.82,17.37,30.76,1.73,60.66-1.25,2.39-3.69,3.76-6.21,3.76Z"/><path class="cls-2" d="M32.26,100.96c-1.91,0-3.81-.77-5.19-2.3-2.6-2.86-2.38-7.29,.48-9.89,5.62-5.09,4.46-17.62-.5-23.25-2.56-2.9-2.27-7.32,.63-9.88,2.9-2.56,7.32-2.27,9.88,.63,9.59,10.88,11.41,31.98-.6,42.87-1.34,1.22-3.02,1.81-4.7,1.81Z"/></g></svg>