<?xml version="1.0" encoding="UTF-8"?><svg id="Modo_de_aislamiento" xmlns="http://www.w3.org/2000/svg" viewBox="0 0 223.59 252.09"><defs><style>.cls-1{fill:#4e4d4d;}</style></defs><path class="cls-1" d="M55.91,144.69c5.04,0,9.89-1.62,14.49-4.84,16.59-11.64,29.39-44.26,37.02-94.34,.16-1.05-.36-2.09-1.29-2.59-1.21-.66-30.27-16.04-77.06-15.37-1.22,.02-2.25,.9-2.45,2.11-10.6,64.04-4.75,101.71,17.34,112.22l-10.55,53.08c-6.16,5.8-23.49,5.01-29.8,4.18-1.32-.17-2.54,.71-2.8,2l-.76,3.8c-.13,.66,0,1.34,.38,1.89,.37,.56,.95,.94,1.6,1.07l65.28,12.98c.16,.03,.33,.05,.49,.05,.5,0,.98-.15,1.4-.42,.55-.37,.94-.95,1.07-1.6l1.08-5.44c.13-.67-.01-1.36-.4-1.92-.39-.56-.99-.94-1.66-1.05-.17-.03-16.86-2.9-21.93-12.9l7.73-52.91c.27,0,.55,.04,.82,.04ZM31.24,32.55c.22,0,.44,0,.65,0,37.92,0,63.81,10.97,70.27,14.01-1.79,11.47-3.88,22.02-6.23,31.58-3.94-3.39-9.22-5.2-15.77-5.37-6.2-.16-12.24,1.2-18.08,2.52-.98,.22-1.96,.45-2.95,.66-6.39,1.4-13.16,2.5-19.38,1.02-1.57-.37-3.18-.98-4.72-1.8,.7-12.38,2.1-24.74,4.21-36.93,.08-.46-.23-.89-.68-.97-.47-.1-.89,.22-.97,.68-2.08,11.96-3.47,24.09-4.19,36.24-2.98-1.99-5.41-4.85-6.17-8.44,.73-10.09,2.06-21.15,4-33.19Zm-4.52,42.5c1.84,1.97,4.05,3.57,6.39,4.77-.2,4.74-.29,9.48-.28,14.21,.01,5.76,.17,12.45,1.8,18.81,1.24,4.82,3.93,11.56,9.69,16.28,.16,.13,.34,.19,.53,.19,.24,0,.48-.1,.65-.31,.29-.36,.24-.89-.12-1.18-5.41-4.44-7.95-10.83-9.13-15.41-1.59-6.17-1.74-12.73-1.75-18.4-.01-4.47,.08-8.95,.26-13.43,1.28,.54,2.57,.97,3.83,1.27,7.2,1.7,14.65,.52,21.62-1,.99-.22,1.99-.44,2.98-.67,5.79-1.31,11.22-2.54,16.83-2.4,6.46,.18,11.3,2.23,14.43,6.06-7.1,26.45-16.34,44.42-26.95,51.86-4.86,3.41-10.04,4.61-15.4,3.55h-.05c-18.22-3.65-26.77-25.63-25.33-64.22Zm15.55,122.54c-.07,.47,0,.95,.19,1.39,4.6,10.35,17.85,14.57,23.47,15.92l-.1,.52-53.71-10.68c8.33,.16,20.02-.86,25.48-6.9,.3-.34,.51-.75,.6-1.2l10.51-52.92,1.38,.27-7.83,53.58Z"/><path class="cls-1" d="M50.57,129.68l-1.5-.3c-.45-.1-.89,.2-.99,.66-.09,.45,.2,.9,.66,.99l1.49,.3c.06,.01,.11,.02,.17,.02,.39,0,.74-.28,.82-.67,.09-.46-.2-.9-.66-.99Z"/><path class="cls-1" d="M73.57,96.04c1.02,.43,1.9,1.25,2.41,2.23,.15,.29,.44,.45,.75,.45,.13,0,.26-.03,.39-.09,.41-.22,.57-.72,.36-1.13-.7-1.34-1.85-2.41-3.25-3-.42-.18-.92,.02-1.1,.44s.02,.92,.44,1.1Z"/><path class="cls-1" d="M77.85,93.58c.15,.12,.33,.18,.51,.18,.25,0,.5-.11,.66-.33,.28-.37,.22-.89-.15-1.18l-1.61-1.25c-.36-.29-.89-.22-1.18,.15-.29,.37-.22,.89,.15,1.18l1.61,1.25Z"/><path class="cls-1" d="M80.19,89.24c.17,.18,.39,.27,.62,.27,.2,0,.41-.07,.57-.22,.34-.31,.36-.85,.05-1.19l-1.03-1.12c-.31-.34-.84-.37-1.18-.05-.34,.31-.36,.84-.05,1.18l1.03,1.12Z"/><path class="cls-1" d="M35.92,203c-.29-.36-.82-.42-1.18-.12-.36,.29-.42,.82-.12,1.18l1.5,1.85c.17,.2,.41,.31,.65,.31,.19,0,.37-.06,.53-.19,.36-.29,.42-.82,.12-1.18l-1.5-1.85Z"/><path class="cls-1" d="M39.23,202.18c-.26-.39-.78-.49-1.16-.24-.39,.26-.49,.78-.24,1.16l.71,1.07c.16,.25,.43,.38,.7,.38,.16,0,.32-.04,.46-.14,.39-.26,.5-.78,.24-1.16l-.71-1.08Z"/><path class="cls-1" d="M222.2,227.85c-.16-.66-.59-1.23-1.17-1.58-.59-.35-1.29-.44-1.95-.25-.17,.05-16.49,4.49-25.32-2.46l-15.29-51.25c4.91-2.08,8.9-5.68,11.86-10.8,10.14-17.55,8-52.53-6.18-101.16-.3-1.02-1.21-1.75-2.27-1.81-1.39-.09-34.2-1.78-76.37,18.53-1.1,.53-1.66,1.77-1.33,2.94,17.38,62.55,38.55,94.24,63.02,94.46l12.8,52.58c-3.14,7.86-19.19,14.44-25.27,16.35-1.26,.4-2,1.71-1.69,3l.92,3.76c.28,1.15,1.31,1.92,2.44,1.92,.2,0,.4-.02,.6-.07l64.67-15.75c.65-.16,1.21-.57,1.56-1.14,.35-.57,.45-1.26,.29-1.9l-1.31-5.38ZM179.4,63.53c.14,0,.28,0,.41,0,3.21,11.16,5.76,21.61,7.66,31.27-5-1.41-10.55-.83-16.56,1.77-5.7,2.46-10.6,6.24-15.33,9.9-.8,.61-1.59,1.23-2.39,1.84-5.21,3.96-10.89,7.81-17.15,9.09-1.58,.33-3.31,.43-5.05,.34-4.58-11.52-8.52-23.31-11.73-35.25-.12-.45-.58-.71-1.03-.59-.45,.12-.71,.58-.59,1.03,3.15,11.72,7,23.3,11.47,34.62-3.54-.55-6.95-2.11-9.15-5.05-3.58-9.45-7.04-20.05-10.35-31.78,34.03-15.95,62.01-17.18,69.81-17.18Zm-55.99,57.63c2.49,1.01,5.17,1.51,7.8,1.61,1.82,4.39,3.73,8.73,5.74,13.02,2.44,5.22,5.39,11.22,9.56,16.3,3.16,3.85,8.44,8.83,15.65,10.68,.07,.02,.14,.03,.21,.03,.37,0,.71-.25,.81-.63,.11-.45-.16-.9-.6-1.02-6.77-1.74-11.77-6.47-14.77-10.12-4.05-4.93-6.94-10.82-9.34-15.95-1.9-4.06-3.71-8.17-5.44-12.31,1.39-.05,2.74-.18,4.02-.44,7.24-1.49,13.5-5.69,19.19-10.02,.81-.61,1.61-1.24,2.42-1.86,4.7-3.63,9.13-7.05,14.25-9.26,5.93-2.56,11.18-2.74,15.64-.59,4.71,26.98,3.9,47.17-2.59,58.39-2.97,5.15-7.17,8.41-12.48,9.71h-.03c-18.06,4.39-35.08-11.94-50.04-47.54Zm41.4,123.77c7.63-3.38,17.8-9.21,20.21-17,.13-.43,.15-.9,.04-1.34l-12.76-52.42,1.36-.33,15.48,51.89c.14,.46,.4,.86,.76,1.18,8.53,7.45,22.32,5.69,27.99,4.55l.13,.52-53.21,12.96Z"/><path class="cls-1" d="M168.46,162.27c.45-.11,.73-.57,.61-1.01-.11-.45-.56-.72-1.01-.61l-1.48,.36c-.45,.11-.73,.56-.62,1.01,.09,.38,.44,.64,.82,.64,.07,0,.13,0,.2-.02l1.48-.36Z"/><path class="cls-1" d="M174.71,120.45h.03c1.1-.03,2.25,.33,3.13,1.01,.15,.12,.33,.18,.51,.18,.25,0,.5-.11,.66-.33,.28-.37,.22-.89-.15-1.18-1.2-.93-2.71-1.39-4.21-1.36-.46,.01-.83,.4-.81,.87,.01,.45,.39,.81,.84,.81Z"/><path class="cls-1" d="M175.59,115.96l1.99,.45c.06,.01,.13,.02,.19,.02,.38,0,.73-.26,.82-.65,.1-.45-.18-.9-.63-1l-1.99-.45c-.46-.11-.9,.18-1,.63s.18,.9,.63,1Z"/><path class="cls-1" d="M176.47,110.91l1.41,.58c.1,.04,.21,.06,.32,.06,.33,0,.64-.2,.78-.52,.18-.43-.03-.92-.46-1.09l-1.4-.58c-.43-.18-.92,.03-1.09,.46-.18,.43,.03,.92,.46,1.1Z"/><path class="cls-1" d="M187.81,234.36l-2.13-1.05c-.41-.2-.92-.03-1.12,.38-.2,.42-.03,.92,.38,1.12l2.14,1.05c.12,.06,.24,.09,.37,.09,.31,0,.61-.17,.75-.47,.2-.42,.03-.92-.39-1.12Z"/><path class="cls-1" d="M189.43,231.85l-1.1-.68c-.39-.24-.91-.12-1.15,.28-.24,.4-.12,.91,.28,1.15l1.1,.68c.14,.08,.29,.12,.44,.12,.28,0,.56-.14,.72-.4,.24-.39,.12-.91-.28-1.15Z"/><path class="cls-1" d="M108.53,20.26c.84,5.25,4.19,22.44,12.1,23.46,.23,.03,.46,.04,.7,.04,3.09,0,6.67-2.5,10.36-5.29,.37-.28,.7-.53,.98-.73,3.55-2.58,6.76-5.59,9.53-8.94,4.14-5.01,5.83-9.58,5.16-13.98-.89-5.85-6.44-10.39-12.33-10.07-3.27,.17-6.29,1.79-8.37,4.22-.09-.18-.19-.36-.29-.54-1.67-2.92-4.25-4.82-7.09-5.22-4.55-.65-8.5,2.7-10.04,6.33-1.56,3.68-1.2,7.65-.71,10.71h0Zm5.35-8.74c.73-1.71,2.48-3.34,4.28-3.34,.14,0,.27,0,.41,.03,1.27,.18,2.55,1.2,3.42,2.73,.95,1.66,1.4,3.74,1.84,5.75,.27,1.23,1.4,2.07,2.67,1.97,1.26-.1,2.24-1.12,2.31-2.38,.16-3.29,3.19-6.32,6.47-6.49,3.28-.19,6.61,2.54,7.1,5.8,.43,2.86-.93,6.22-4.06,10.01-2.5,3.02-5.4,5.74-8.61,8.07-.3,.22-.66,.49-1.06,.79-3.91,2.96-6.41,4.37-7.38,4.27-2.55-.33-6.19-9.33-7.77-19.26h0c-.38-2.39-.69-5.45,.37-7.95Z"/><path class="cls-1" d="M145.48,37.27c.4,.98,1.34,1.57,2.33,1.57,.32,0,.64-.06,.95-.19l19.42-7.93c1.29-.53,1.9-1.99,1.38-3.28-.53-1.29-1.99-1.91-3.28-1.38l-19.42,7.93c-1.29,.53-1.9,1.99-1.38,3.28Z"/><path class="cls-1" d="M153.19,43.05c-1.3,.49-1.96,1.94-1.47,3.24,.38,1.01,1.34,1.63,2.36,1.63,.29,0,.59-.05,.88-.16,1.85-.69,3.87-.95,5.85-.73,1.38,.14,2.63-.85,2.78-2.23,.15-1.38-.85-2.63-2.23-2.78-2.75-.3-5.58,.05-8.16,1.02Z"/><path class="cls-1" d="M89.9,18.97c.5,.63,1.23,.95,1.97,.95,.55,0,1.1-.18,1.56-.55,1.09-.86,1.27-2.45,.41-3.54L82.02,.95c-.86-1.09-2.44-1.27-3.54-.41-1.09,.86-1.27,2.45-.41,3.54l11.82,14.89Z"/><path class="cls-1" d="M72.32,21.7c4.15,.51,8.21,1.99,11.72,4.25,.42,.27,.9,.4,1.36,.4,.83,0,1.64-.41,2.12-1.15,.76-1.17,.42-2.73-.75-3.48-4.15-2.68-8.93-4.41-13.84-5.02-1.38-.17-2.64,.81-2.81,2.19-.17,1.38,.81,2.64,2.19,2.81Z"/></svg>