<?xml version="1.0" encoding="UTF-8"?><svg id="Objects" xmlns="http://www.w3.org/2000/svg" viewBox="0 0 1255 1182"><defs><style>.cls-1{fill:#861816;}.cls-2{fill:#ef5050;}.cls-3{fill:#fcf2d7;}</style></defs><path class="cls-3" d="M1255,1157.59c-187.68,0-988.82-9.28-1176.5-9.28,29.77-47.29,222.32-365.59,222.32-365.59l214.3-4.84,93.74,115.7,11.64-11.99c9.05,10.93,17.68,21.2,25.7,30.68l20.56,24.43c53.97-46.83,107.77-104.42,155.89-166.69l205.71-3.73s196.86,344.01,226.65,391.31Z"/><path class="cls-2" d="M926.47,545.05c-59.28,133.14-148.13,253.01-258.19,348.53-74.23-87.77-145.49-178.47-195.9-281.43-43.4-88.63-70.71-187.7-60.59-285.86,11.28-109.45,73.31-215.31,169.91-267.98s226.35-44.57,308.33,28.82c61.08,54.7,90.99,138.49,92.55,220.47,1.56,81.99-22.75,162.56-56.1,237.47Z"/><g><path class="cls-1" d="M1212.12,1137.42c-31.46-50.03-60.16-101.95-89.73-153.12-37.63-65.12-75.1-130.34-112.51-195.59-8.14-14.2-16.28-28.4-24.41-42.6-1.82-2.52-4.28-3.94-7.37-4.26-27.15,.61-54.31,1.23-81.46,1.84-43.1,.97-86.2,1.95-129.3,2.92,25.84-34.76,49.54-71.11,70.86-108.81,16.75-29.62,31.9-60.12,45.77-91.18,51.92-117,83.57-255.31,32.57-378.29-21.87-52.73-57.26-99.43-106.45-129.42C764.73,11.25,710.23-1.58,657.32,.16c-55.5,1.83-110.09,18.14-156.53,48.84-49.1,32.45-89.27,77.11-117.87,128.48-29,52.09-46.01,109.63-50.68,168.99-5.18,65.85,5.97,132.76,26.67,195.22,25.14,75.9,63.76,145.88,108.76,211.7-21.73,.49-43.46,.98-65.19,1.47-49.23,1.11-98.46,2.22-147.68,3.34-1.33,.03-2.68,.03-4.01,.09-10.85,.51-17.97,7.97-23.49,16.79-1.99,3.18-3.88,6.42-5.83,9.63-10.1,16.69-20.2,33.38-30.31,50.07-33.27,54.94-66.57,109.86-99.92,164.75-27.04,44.5-53.96,89.09-81.41,133.34-1.54,2.48-3.08,4.95-4.63,7.42-4.18,6.65-11.17,32.43,4.69,32.43,57.21,0,114.43,.49,171.64,.93,85.31,.65,170.63,1.43,255.94,2.21,95.5,.88,190.99,1.79,286.49,2.67,87.99,.82,175.98,1.62,263.97,2.32,61.29,.49,122.58,1,183.87,1.12,4.87,0,9.73,.02,14.6,.02,18.16,0,35.74-28.67,25.74-44.58ZM382.16,262.49c-.77,2.85-.35,1.21,0,0h0Zm-11.79,121.98c-.98-15.41-1.15-30.88-.45-46.3,.64-13.98,1.55-23.14,4.03-38.21,2.1-12.79,4.98-25.41,8.34-37.92,.02-.06,.03-.12,.05-.17,.58-1.9,1.14-3.8,1.73-5.7,.89-2.84,1.81-5.67,2.77-8.49,2.23-6.58,4.65-13.09,7.25-19.53,2.23-5.52,4.65-10.95,7.08-16.38,.07-.15,.13-.28,.18-.41,.05-.1,.1-.2,.16-.32,.59-1.18,1.16-2.37,1.76-3.55,1.63-3.25,3.3-6.47,5.03-9.66,2.97-5.51,6.09-10.95,9.34-16.3,1.71-2.81,3.46-5.6,5.25-8.36,.72-1.1,1.44-2.2,2.17-3.3,.88-1.33,1.53-2.4,1.71-2.73,6.54-10.26,15.01-19.83,23.01-28.87,2.17-2.45,4.38-4.87,6.62-7.25,.69-.74,1.39-1.49,2.1-2.22,.63-.61,1.29-1.25,1.54-1.49,4.65-4.6,9.45-9.05,14.38-13.35,4.68-4.08,9.49-8.02,14.41-11.81,2.33-1.8,4.7-3.54,7.08-5.29,.24-.18,.43-.32,.62-.46,.05-.03,.07-.05,.12-.08,1.91-1.28,3.79-2.58,5.71-3.84,10.63-6.97,21.7-13.27,33.18-18.74,2.61-1.25,5.25-2.45,7.9-3.61,1.47-.65,2.96-1.28,4.44-1.89,.13-.05,.24-.1,.33-.14,.29-.11,.63-.23,1.05-.39,6.04-2.27,12.09-4.45,18.25-6.36,12.32-3.82,24.91-6.79,37.63-8.92,23.64-3.96,47.78-4.69,73.35-2.01,25.14,2.63,48.55,8.27,70.91,17.51,48.66,20.11,87.01,54.51,113.71,99.67,13.65,23.09,23.19,47.01,30.22,73.82,1.58,6.03,3,12.11,4.25,18.22,.69,3.4,1.34,6.8,1.93,10.22,.3,1.71,.58,3.42,.85,5.13,.08,.52,.61,4.19,.71,4.79,1.66,12.77,2.59,25.64,2.84,38.52,.63,32.87-2.39,60.06-9.23,92.93-1.57,7.55-3.31,15.05-5.2,22.53-.9,3.54-1.85,7.07-2.79,10.61-.14,.52-.25,.95-.35,1.31-.05,.16-.1,.35-.17,.58-.81,2.73-1.6,5.47-2.42,8.19-4.61,15.2-9.8,30.22-15.44,45.07-5.64,14.84-11.75,29.48-18.19,43.99-2.7,6.05-5.47,12.07-8.27,18.07-.12,.27-.23,.49-.33,.71-.12,.24-.25,.51-.41,.84-.64,1.32-1.28,2.65-1.92,3.98-1.61,3.31-3.24,6.61-4.88,9.9-6.25,12.51-12.77,24.88-19.55,37.12-13.55,24.47-28.13,48.36-43.68,71.61-2.05,3.06-4.12,6.1-6.19,9.14-.07,.1-.15,.22-.23,.35-.65,.97-1.35,1.92-2.01,2.87-4.22,6.03-8.52,12.01-12.87,17.94-8.27,11.27-16.79,22.37-25.53,33.29-1.74,2.17-3.49,4.33-5.24,6.48-1.41,1.46-2.7,3.04-3.86,4.71-14.73,17.87-30.07,35.25-45.99,52.06-2.25,2.37-4.51,4.72-6.77,7.07-.56,.58-1.32,1.36-1.67,1.72-1.81,1.84-3.62,3.67-5.44,5.49-5.2,5.21-10.46,10.36-15.78,15.45-7.44,7.12-15,14.11-22.65,20.99-28.64-34.07-57.02-68.82-83.83-104.71-.76-2.3-2.02-4.21-3.97-5.33-43.68-59.02-82.98-121.17-112.11-188.49-24.81-57.33-42.69-119.19-46.57-180.25Zm406.8,745.54c-95.5-.88-190.99-1.79-286.49-2.67-87.99-.82-175.98-1.62-263.96-2.32-57.88-.46-115.75-.93-173.63-1.09,22.93-37.17,45.4-74.64,68.07-111.96,36.78-60.54,73.49-121.11,110.17-181.7,4.73-7.81,9.46-15.62,14.19-23.44,26.34-.6,52.68-1.19,79.03-1.79l147.32-3.33c9.97-.23,19.94-.45,29.92-.68,19.39,25.97,39.56,51.33,60.02,76.18,10.08,12.24,20.26,24.4,30.5,36.51,6.1,7.22,15.67,3.75,21.8-1.58,41.02-35.69,79.24-74.61,114.24-116.23,23.7-.54,47.39-1.07,71.09-1.61l130.1-2.94c8.45-.19,16.89-.38,25.34-.57,21.95,38.34,43.94,76.66,65.95,114.97,39.35,68.47,78.72,136.93,118.53,205.13,4.3,7.36,8.57,14.75,12.87,22.12-39.7-.17-79.4-.49-119.1-.79-85.31-.65-170.63-1.43-255.94-2.21Z"/><path class="cls-1" d="M609.7,510.6c67.93-27.35,126.59-77.86,162.62-141.71,9.44-16.73,17.51-34.73,19.24-53.87,1.74-19.14-3.68-39.68-17.78-52.73-18.62-17.25-47.37-17.76-72.09-12.04-42.86,9.92-81.78,35.93-107.33,71.74,2.99-34.46-32.52-64.77-66.98-61.7-34.45,3.07-62.62,33.63-69.09,67.61-6.47,33.98,5.92,69.59,26.94,97.04,19.04,24.87,66.08,64.69,124.45,85.66Z"/></g></svg>