<?xml version="1.0" encoding="UTF-8"?><svg xmlns="http://www.w3.org/2000/svg" viewBox="0 0 408.86 280.5"><defs><style>.cls-1{fill:#c0920a;}.cls-2{fill:#861817;}</style></defs><g id="OBJECTS"><path class="cls-1" d="M222.62,184.97c15.64-12.89,31.41-25.61,47.27-38.21l11.88-9.47c12.42-10.48,28.12-17.16,44.62-17.95,47.78-3.16,88.1,40.77,81.82,88.48-4.68,49.57-58.04,84.19-105.63,69.12-11.13-3.11-21.33-9.42-30.62-16.04l-25-17.19c-44.42-30.5-89.24-62.15-133.27-93.3-42.95-29.12-98.62,11.11-86.33,61.4,7.52,34.39,48.8,55.18,81.33,40.96,7.33-2.88,18.08-10.2,25.15-14.19,17.41-10.47,34.99-20.64,52.94-30.24-14.84,13.94-30.13,27.35-45.63,40.51-1.91,1.53-12.67,11.07-14.75,12.33C68.88,302.47-9.33,252.58,.91,182.94c8.41-61.42,80.95-92.16,131.38-56.34,43.9,30.47,88.35,61.72,131.72,92.84l24.64,17.69c6.77,5.04,14.23,10.45,22.33,12.91,32.04,11.24,69.52-11.43,74.7-45.31,9.36-51.39-47.41-89.45-92.61-64.11-23.56,14.39-46.84,30.03-70.45,44.36h0Z"/></g><g id="Objects"><path class="cls-2" d="M286.68,25.48c-2.22-9.31-8.15-21.49-18.05-24.67-9.99-3.21-22.15,3.72-29.58,9.9-8.69,7.23-13.51,17.7-18.55,27.56-2.89,5.66-5.64,11.38-8.28,17.16-3.62-6.78-7.27-13.54-11.15-20.16-5.05-8.62-11.11-17.12-19.84-22.36-9.24-5.54-18.56-3.49-27.24,2.12-8.49,5.49-12.33,13.36-13.66,23.23-6.1,45.27,34.52,76.16,61.29,107.41-.17,.16-.34,.32-.5,.48-2.68,2.58-1.17,3.52,1.8,3.11,.48-.07,.96-.18,1.45-.32,1.08,1.32,2.15,2.64,3.17,3.96,2.6,3.37,18.18-6.98,16.3-9.41-1.45-1.88-2.95-3.73-4.48-5.56,17.45-16.47,36.02-32.66,50.55-51.7,13.11-17.17,21.96-38.96,16.77-60.75Zm-15.22,26.96c-.2,2.16-.54,4.29-.95,6.38-11.47,11.48-22.46,23.43-32.96,35.79,4.21-10.08,9.18-19.85,14-29.7,3.97-8.13,7.84-16.33,10.96-24.83,1.36-3.71,4.2-9.65,4.45-14.76,.09,.18,.18,.36,.26,.53,3.92,8.27,5.09,17.52,4.24,26.58Zm-39.32-12.51c4.46-9.26,8.78-19.56,15.18-27.69,4.06-5.16,10.24-.05,14.74,5.62-4.47,.55-11.55,6.41-13.1,8.36-10.45,13.14-19.94,26.93-28.88,41.08,3.74-9.24,7.73-18.38,12.06-27.36Zm-71.41,21.58c.32-.34,.62-.69,.9-1.05,3.93-5.08,8.16-9.8,12.71-14.21,.25,8.31-1.74,16.59-3.21,24.76-.52,2.88-1.04,5.77-1.57,8.65-3.52-5.72-6.53-11.73-8.83-18.15Zm31.73,7.12c-2.53,3.01-5.05,6.03-7.58,9.04,1.04-5.76,2.09-11.53,3.13-17.29,.52-2.86,1.05-5.69,1.51-8.53,2.48,4.53,4.8,9.16,7.08,13.72-2.11,1.38-3.77,2.62-4.13,3.05Zm-10.87,25.38c3.13-3.74,6.27-7.48,9.4-11.21l-1.63,22.46c-3.01-3.33-5.95-6.71-8.75-10.17,.34-.35,.67-.71,.98-1.08Zm25.55-15.79c3.41-1.28,7.92-4.51,10.39-6.86-3.83,6.16-7.57,12.37-11.24,18.63,.28-3.92,.57-7.85,.85-11.77Zm-49.3-53.68c.37-1.47,1.04-2.89,1.6-4.31,.26,.06,.51,.12,.77,.18,1.83,1.51,5.14,2.13,7.24,3.58,1.83,1.27,3.56,2.77,5.16,4.31,2.15,2.08,4.15,4.35,6.04,6.73-1.01,.62-1.75,1.1-1.93,1.23-6.65,5.01-12.85,10.51-18.6,16.45-.07-.3-.15-.59-.22-.89-2.04-8.98-2.3-18.33-.05-27.29Zm88.3,77.56c-9.86,10.72-20.47,20.8-31.09,30.83-4.59-5.2-9.41-10.29-14.24-15.39,1.67-1.12,2.92-2.13,3.24-2.71,14.16-25.1,28.43-50.21,44.91-73.84-1.2,3.55-2.81,6.97-3.71,9.3-3.26,8.45-7.19,16.62-11.19,24.75-7.99,16.24-16.21,32.38-20.55,50.06-.67,2.72,5.68,.1,6.22-.13,3.48-1.48,7.35-3.69,9.66-6.78,11.21-15.02,23.14-29.45,35.73-43.28-4.69,9.96-11.45,19-18.98,27.19Z"/></g></svg>