<?xml version="1.0" encoding="UTF-8"?><svg xmlns="http://www.w3.org/2000/svg" viewBox="0 0 408.86 302.43"><defs><style>.cls-1{fill:#c0920a;}.cls-2{fill:#861817;}</style></defs><g id="OBJECTS"><path class="cls-1" d="M222.62,206.9c15.64-12.89,31.41-25.61,47.27-38.21l11.88-9.47c12.42-10.48,28.12-17.16,44.62-17.95,47.78-3.16,88.1,40.77,81.82,88.48-4.68,49.57-58.04,84.19-105.63,69.12-11.13-3.11-21.33-9.42-30.62-16.04l-25-17.19c-44.42-30.5-89.24-62.15-133.27-93.3-42.95-29.12-98.62,11.11-86.33,61.4,7.52,34.39,48.8,55.18,81.33,40.96,7.33-2.88,18.08-10.2,25.15-14.19,17.41-10.47,34.99-20.64,52.94-30.24-14.84,13.94-30.13,27.35-45.63,40.51-1.91,1.53-12.67,11.07-14.75,12.33C68.88,324.39-9.33,274.51,.91,204.87c8.41-61.42,80.95-92.16,131.38-56.34,43.9,30.47,88.35,61.72,131.72,92.84l24.64,17.69c6.77,5.04,14.23,10.45,22.33,12.91,32.04,11.24,69.52-11.43,74.7-45.31,9.36-51.39-47.41-89.45-92.61-64.11-23.56,14.39-46.84,30.03-70.45,44.36h0Z"/></g><g id="Objects"><path class="cls-2" d="M220.16,159.01c-2.4,2.33-4.79,4.66-7.15,7.01-.23-.18-.47-.35-.7-.53-38.22-28.97-90.65-55.54-99.27-109.24-2.97-18.52,.85-40.85,16.51-49.76,15.34-8.72,34.53-.45,48.16,10.99,11.68,9.8,21.6,21.94,29.07,35.59,6.36-11.63,12.81-23.38,21.49-33.2,8.69-9.82,19.95-17.68,32.55-19.5,8.52-1.23,17.71,.55,24.31,6.37,4.19,3.7,7.11,8.8,9.08,14.18,4.85,13.3,4.05,28.37-.08,41.94-4.14,13.57-11.41,25.82-19.37,37.33-15.28,22.09-35.45,40.27-54.59,58.82Z"/></g></svg>