<?xml version="1.0" encoding="UTF-8"?><svg id="Modo_de_aislamiento" xmlns="http://www.w3.org/2000/svg" viewBox="0 0 196.43 196.92"><defs><style>.cls-1{fill:#4e4d4d;}</style></defs><path class="cls-1" d="M194.07,188.26c-22.44-15.2-41.68-35.49-55.66-58.72-.04-.06-.08-.11-.13-.17-.04-.06-.07-.12-.12-.17-.01-.01-.02-.02-.03-.03-.06-.07-.13-.13-.2-.2-.06-.05-.11-.11-.17-.15-.07-.05-.14-.09-.22-.14-.07-.04-.13-.09-.21-.12-.08-.04-.16-.06-.24-.09-.07-.03-.14-.06-.21-.07-.1-.03-.19-.04-.29-.05-.06,0-.12-.02-.18-.03-.11,0-.22,0-.33,0-.05,0-.11,0-.16,0-.1,.01-.21,.04-.31,.07-.06,.01-.12,.02-.17,.04-.09,.03-.17,.07-.26,.11-.07,.03-.14,.06-.21,.1-.02,0-.03,.01-.05,.02-.07,.04-.12,.09-.18,.14-.05,.04-.11,.07-.16,.11-6.34,5.4-19.4,6.98-27.41,3.31-8.43-3.87-14.97-10.92-20.95-17.82C61.41,85.77,40.59,53.28,20.46,21.85c-.76-1.18-2.33-1.53-3.51-.77-.03,.02-.05,.04-.08,.06-.96-.09-1.93,.36-2.45,1.24C4.9,38.71-.09,57.33,0,76.22c0,.56,.19,1.08,.5,1.5,.28,.77,.92,1.39,1.78,1.61,1.2,.3,2.37,.66,3.54,1.02,6.45,33.88,9.48,68.53,8.99,103.02,0,.04,0,.08,0,.12,0,.09,.01,.18,.02,.27,.01,.08,.02,.16,.04,.23,.02,.08,.04,.17,.07,.25,.03,.08,.06,.15,.09,.22,.03,.07,.07,.15,.11,.22,.04,.07,.08,.14,.13,.21,.05,.07,.1,.13,.15,.19,.05,.06,.11,.12,.17,.18,.06,.06,.12,.11,.18,.16,.06,.05,.13,.1,.2,.14,.07,.04,.14,.08,.21,.12,.08,.04,.15,.07,.23,.1,.07,.03,.15,.05,.23,.07,.08,.02,.17,.04,.26,.06,.04,0,.08,.02,.12,.03,1.84,.22,3.68,.28,5.45,.33,1.74,.05,3.38,.1,4.98,.29,.1,.01,.2,.02,.3,.02h.01s.06,0,.09,0c.26,0,.51-.07,.75-.15,.04-.01,.08-.03,.12-.04,.25-.1,.47-.24,.67-.4,.03-.03,.07-.06,.1-.09,.19-.18,.36-.38,.49-.61,.02-.04,.04-.07,.06-.11,.12-.24,.21-.51,.25-.79,0-.01,0-.02,.01-.04,0-.07,0-.14,0-.21,0-.06,.01-.12,.01-.19l-2.34-63.88c-.13-3.55-.27-7.23,.66-10.54,.44-1.56,2.95-5.73,6.58-6.79,2.6-.76,5.44,.21,8.46,2.86,6.7,6.92,12.78,14.46,18.35,21.83,1.79,2.37,3.58,4.76,5.37,7.16,14.32,19.21,29.14,39.07,50.33,50.84,13.7,7.6,30.13,11.5,47.4,11.5,9.63,0,19.53-1.21,29.36-3.67,1.36-.34,2.19-1.72,1.85-3.09-.27-1.09-1.22-1.82-2.28-1.91ZM23.76,108.14c-1.14,4.07-.98,8.34-.85,12.1l2.24,61.03c-.84-.04-1.68-.07-2.5-.09-.94-.03-1.85-.06-2.75-.11,.25-25.94-1.46-51.96-5.11-77.67h4.25c.47,0,.85-.38,.85-.85s-.38-.85-.85-.85h-4.5c-.19-1.33-.4-2.66-.61-3.98,1.65,.12,3.29,.49,4.82,1.11,.1,.04,.21,.06,.32,.06,.33,0,.65-.2,.78-.53,.18-.43-.03-.93-.47-1.1-1.81-.74-3.76-1.16-5.73-1.26-.72-4.58-1.49-9.14-2.33-13.69,8.73,3.58,16.64,8.92,23.89,15.22-.5,.08-.98,.19-1.42,.31-5.9,1.72-9.32,7.68-10.05,10.3Zm96.46,72.83c-20.24-11.24-34.71-30.65-48.72-49.43-1.8-2.41-3.59-4.81-5.39-7.19-5.71-7.56-11.96-15.28-18.85-22.4-.02-.01-.02-.03-.04-.05-.02-.02-.03-.03-.05-.04-11.82-12.18-25.61-22.5-42.07-27.01,.15-16.76,4.48-33.24,12.58-47.89,19.76,30.84,40.26,62.59,64.69,90.79,6.07,7,13.32,14.82,22.68,19.11,3.67,1.68,8.04,2.48,12.5,2.48,6.46,0,13.07-1.7,17.96-4.82,2.65,4.26,5.47,8.43,8.46,12.48l-4.35,2.52c-.41,.23-.54,.75-.31,1.16,.16,.27,.44,.42,.73,.42,.14,0,.29-.04,.42-.11l4.52-2.62c.47,.62,.93,1.24,1.41,1.86-1.29,.83-2.42,1.91-3.25,3.22-.25,.4-.13,.92,.26,1.17,.14,.09,.3,.13,.45,.13,.28,0,.55-.14,.72-.39,.72-1.13,1.73-2.08,2.88-2.79,11.36,14.49,24.79,27.4,39.72,38.09-24.2,4.73-48.3,1.67-66.95-8.68Z"/><path class="cls-1" d="M16.28,45.57c-.44-.17-.93,.04-1.1,.48-2.77,7.03-4.22,14.42-4.31,21.97,0,.47,.37,.85,.84,.86h0c.46,0,.84-.37,.85-.84,.09-7.35,1.49-14.54,4.19-21.37,.17-.44-.04-.93-.48-1.1Z"/><path class="cls-1" d="M18.71,38.32l-1.77,2.65c-.26,.39-.16,.92,.23,1.18,.15,.1,.31,.14,.47,.14,.27,0,.54-.13,.71-.38l1.77-2.66c.26-.39,.15-.92-.24-1.18-.39-.26-.92-.16-1.18,.24Z"/><path class="cls-1" d="M100.68,98.46c1.42,1,2.98,1.42,4.57,1.42,3.08,0,6.24-1.6,8.58-3.76,2.48-2.29,7.14-8.58,7.17-14.23,.32-.45,.5-.99,.47-1.58-.47-10.04-1.4-20.11-2.76-30.12l38.7-22.67c.3,8.84,.88,17.68,1.76,26.46-1.37-.45-3.12-.64-5.42-.24h0c-3.37,.6-6.56,2.84-8.76,6.16-2.44,3.68-2.89,7.73-1.2,10.82,1.49,2.72,4.58,4.37,7.85,4.37,.78,0,1.57-.09,2.34-.28,3.16-.79,5.99-3.04,7.98-6.36,1.49-2.49,2.2-5.12,2.12-7.48,.51-.53,.8-1.26,.71-2.05-2.11-18.62-2.92-37.56-2.4-56.29,.04-1.4-1.07-2.58-2.47-2.61-.65-.05-1.26,.2-1.73,.62-.31,.05-.62,.13-.9,.3-14.82,8.59-30.13,16.76-45.48,24.3-.81,.4-1.31,1.17-1.4,2-.36,.54-.51,1.22-.37,1.91,3,14.89,5.01,30.09,6.01,45.27-.49-.2-1.02-.39-1.61-.54h0c-3-.75-6.46,.1-9.25,2.26-2.44,1.89-4.06,4.41-5.33,6.63-1.18,2.07-2.42,4.56-2.67,7.37-.3,3.41,1.04,6.61,3.5,8.34Zm56.93-32.64c-1.27,2.12-3.04,3.59-4.85,4.04-1.77,.44-3.79-.28-4.51-1.59-.91-1.65-.04-4.03,.98-5.56,1.43-2.16,3.4-3.6,5.4-3.95,1.16-.21,3.2-.38,3.97,.73,.86,1.25,.43,3.97-.98,6.34Zm-.38-58.98c-.08,4.96-.08,9.93,.02,14.9-.08,.04-.15,.06-.23,.1l-39.09,22.9c-.79-5.21-1.69-10.4-2.71-15.55,14.16-6.98,28.26-14.48,41.97-22.35h.03Zm-52.97,78.43c1.02-1.78,2.29-3.78,4.03-5.13,1.23-.95,2.62-1.47,3.88-1.47,.35,0,.69,.04,1.02,.12,1.98,.5,2.44,1.36,2.62,2.06,.81,3.16-2.74,9.03-5.43,11.52-1.99,1.84-5.04,3.13-6.77,1.91-.95-.67-1.5-2.16-1.36-3.72,.16-1.83,1.07-3.63,2.02-5.3Z"/><path class="cls-1" d="M54.98,56.6c.28,.1,.56,.14,.84,.14,1.05,0,2.03-.65,2.4-1.7,1.26-3.57,5.6-5.31,9.35-5.45,3.11-.11,6.21,.55,9.51,1.25,1.44,.3,2.87,.61,4.31,.85,6.69,1.13,12.04,.3,15.9-2.45,1.14-.82,1.41-2.41,.59-3.55-.82-1.14-2.41-1.41-3.55-.59-2.72,1.94-6.8,2.47-12.1,1.57-1.37-.23-2.73-.52-4.1-.81-3.45-.73-7.03-1.49-10.75-1.35-5.47,.2-11.91,3.02-13.96,8.85-.47,1.32,.23,2.78,1.56,3.24Z"/><path class="cls-1" d="M93.43,57.74c-3.85,1.94-8.58,1-13.58,0-.78-.15-1.55-.31-2.31-.45-8.8-1.64-15.67,.32-18.86,5.37-.75,1.19-.4,2.76,.79,3.51,.42,.27,.89,.39,1.36,.39,.84,0,1.67-.42,2.15-1.18,2.87-4.54,10.49-3.67,13.63-3.08,.74,.14,1.49,.29,2.24,.44,5.37,1.07,11.46,2.29,16.87-.45,1.25-.63,1.76-2.16,1.12-3.42-.63-1.26-2.16-1.76-3.42-1.12Z"/></svg>