<?xml version="1.0" encoding="UTF-8"?><svg id="Modo_de_aislamiento" xmlns="http://www.w3.org/2000/svg" viewBox="0 0 304.74 326.12"><defs><style>.cls-1{fill:#582251;}.cls-2{fill:#4f4e4e;}</style></defs><g><path class="cls-2" d="M112.36,158.27l-33.75,110.47-4.82,15.77c-.39,1.26,.29,2.37,1.26,3.1l8.71,6.48c1.04,.78,2.44,.28,3.32-.43l90.73-73.22,12.8-10.33c2.75-2.22-1.15-6.07-3.88-3.88l-90.73,73.22-12.8,10.33,3.32-.43-8.71-6.48,1.26,3.1,33.75-110.47,4.82-15.77c1.03-3.38-4.26-4.83-5.29-1.46h0Z"/><path class="cls-2" d="M129.76,171.34l17.25,58.51,2.51,8.51c1,3.38,6.29,1.94,5.29-1.46l-17.25-58.51-2.51-8.51c-1-3.38-6.29-1.94-5.29,1.46h0Z"/><path class="cls-2" d="M115.51,134.24c-9.14,10.99-6.93,27.79,5.74,35.08,12.36,7.12,27.52,1.07,32.88-11.76l-5.01,.65c7.37,12.68,26.14,9.6,32.75-2.07,3.36-5.92,3.61-13.39-.56-18.98s-10.83-8.07-17.26-6.09c-3.36,1.04-1.93,6.33,1.46,5.29,4.5-1.39,9.21,.7,11.78,4.56,2.71,4.07,1.9,9.32-.63,13.26-4.85,7.55-17.72,9.99-22.8,1.26-1.3-2.24-4.15-1.41-5.01,.65-4.02,9.62-15.81,13.68-24.83,8.49-9.41-5.42-11.56-18.13-4.63-26.47,2.24-2.69-1.62-6.59-3.88-3.88h0Z"/><path class="cls-2" d="M119.35,132.53c-2.19-.63-3.41-2.72-4.21-4.72-1.02-2.52-1.68-5.37-1.87-8.08-.21-3.06,.24-6.07,2.06-8.62,1.59-2.22,3.88-3.89,6.21-5.26,5.03-2.96,10.87-3.96,15.95-.52,4.5,3.04,6.25,8.78,4.81,13.91-.96,3.4,4.33,4.85,5.29,1.46,1.59-5.65,.42-11.8-3.25-16.4s-9.69-7.19-15.5-6.63c-6,.58-12.09,3.83-16.24,8.19-4.55,4.79-5.48,10.98-4.39,17.3,.99,5.81,3.39,12.86,9.68,14.66,3.4,.98,4.85-4.31,1.46-5.29h0Z"/><path class="cls-2" d="M147.93,110.46c3.67-8.7,15.77-12.17,23.12-5.82,3.61,3.12,3.45,9.39,2.85,13.73-.7,5.05-2.78,9.75-5.88,13.78-.9,1.18-.18,3.07,.98,3.75,1.41,.83,2.85,.19,3.75-.98,5.88-7.66,8.74-18.91,5.84-28.32-3.16-10.23-16.67-12.75-25.42-8.79-4.89,2.21-8.48,6.33-10.53,11.21-.58,1.36,.62,3.02,1.91,3.37,1.58,.44,2.79-.54,3.37-1.91h0Z"/><path class="cls-2" d="M115.84,136.66c3.73,1.87,7.81,2.89,12,2.91,1.43,0,2.81-1.27,2.74-2.74s-1.2-2.74-2.74-2.74c-.9,0-1.8-.07-2.7-.16-.62-.06,.53,.09-.04,0-.25-.04-.51-.08-.76-.13-.41-.08-.82-.16-1.23-.26-.85-.2-1.68-.45-2.5-.74-.18-.07-.36-.13-.54-.2-.12-.05-.24-.09-.36-.14-.28-.11-.24-.1,.12,.05-.34-.25-.85-.39-1.22-.58-1.28-.64-3.03-.38-3.75,.98-.66,1.24-.39,3.07,.98,3.75h0Z"/><path class="cls-2" d="M228.9,124.05c-.43-8.79,3.1-20.75,13.81-20.32,5.1,.2,9.53,3.26,10.84,8.31,1.53,5.88-1.04,12.4-3.46,17.68-.87,1.9,.63,5.01,3.1,4.03,11.55-4.58,24.68,4.32,22.82,17.19-2.23,15.4-20.73,12.14-29.06,4.02-2.53-2.47-6.41,1.41-3.88,3.88,5.81,5.68,13.99,9.22,22.21,8.56,8.28-.66,14.57-6.79,16.01-14.92,2.93-16.62-13.92-30.22-29.56-24.01l3.1,4.03c3.12-6.83,6.07-14.8,3.88-22.35-1.92-6.62-7.64-10.97-14.39-11.75-14.63-1.69-21.51,13.07-20.9,25.67,.17,3.51,5.66,3.53,5.48,0h0Z"/><path class="cls-2" d="M228.05,120.07c-6-6.16-14.87-9.27-23.44-8.57-3.89,.32-7.6,1.6-10.55,4.21-2.92,2.58-6.15,6.51-7.33,10.27-2.25,7.2,2.05,15.57,8.17,19.32,7.07,4.33,16.01,4.34,23.3,.62l-3.75-3.75c-3.3,7.55-5.28,15.24-3.49,23.45,1.47,6.76,5.38,12.9,12.52,14.46,6.63,1.45,14.18-.73,18.59-6,4.58-5.46,6.07-13.08,4.96-20-.56-3.47-5.84-2-5.29,1.46,1.65,10.27-6.03,22.39-17.62,19.05-5.13-1.48-7.14-6.41-8.05-11.25-1.19-6.37,.56-12.58,3.1-18.4,1.08-2.47-1.16-5.07-3.75-3.75-5.28,2.69-11.77,2.69-16.99-.17-4.74-2.59-8.66-9.36-5.9-14.68,2.94-5.68,7.79-9.5,14.28-9.41,6.55,.09,12.74,2.3,17.36,7.03,2.47,2.53,6.34-1.35,3.88-3.88h0Z"/><path class="cls-2" d="M185.58,178.65c-2.76,4-3.43,9.11-3.1,13.87,.34,4.99,1.24,10.33,4.66,14.18,3.54,3.99,8.29,6.57,13.72,6.36,5.35-.21,10.97-2.12,15.23-5.37,5-3.82,8.8-9.04,11.02-14.92,1.25-3.3-4.05-4.73-5.29-1.46-1.93,5.1-5.67,9.95-10.27,12.9-4.09,2.63-10.54,4.51-15.26,2.66-2.22-.87-4.31-2.71-5.74-4.6s-1.84-4.46-2.24-6.76c-.82-4.7-.8-10.04,2-14.1,2.01-2.91-2.74-5.66-4.73-2.77h0Z"/><path class="cls-2" d="M222.1,193.42c4.89,8.23,16.37,8.65,24.27,5.18,8.55-3.75,13.74-12.12,14.38-21.3,.39-5.48-.93-10.98-3.48-15.83-1.65-3.12-6.38-.36-4.73,2.77,4.35,8.25,3.83,19.33-3.24,25.95-2.96,2.77-6.98,4.68-11.05,4.99-4.11,.31-9.16-.72-11.42-4.53-1.8-3.03-6.54-.28-4.73,2.77h0Z"/><path class="cls-2" d="M160.87,165.92c1.1,4.21,3.87,7.54,6.92,10.52,1.54,1.5,3.07,3.06,5.12,3.82,2.34,.87,5,1.27,7.46,1.64,8.88,1.34,17.82-1.37,23.47-8.63,.92-1.18,1.13-2.73,0-3.88-.94-.96-2.97-1.17-3.88,0-4.41,5.67-11.05,8.21-18.13,7.22-1.97-.27-3.93-.71-5.86-1.18s-2.95-1.55-4.31-2.88c-2.38-2.32-4.65-4.8-5.51-8.1-.89-3.41-6.18-1.96-5.29,1.46h0Z"/><path class="cls-2" d="M178.95,117.13c.11-.02,1.13-.16,.49-.09,.24-.03,.49-.05,.73-.08,.57-.05,1.15-.08,1.72-.08s1.15,.02,1.72,.06c.33,.02,.65,.06,.98,.09-.63-.07,.24,.04,.37,.06,1.13,.19,2.25,.47,3.34,.84,.27,.09,.54,.19,.81,.29,.15,.06,.31,.12,.46,.18-.24-.1-.27-.11-.09-.04,.56,.27,1.11,.52,1.65,.82,1.26,.69,3.05,.35,3.75-.98s.36-3.02-.98-3.75c-5.04-2.74-10.77-3.61-16.42-2.62-1.42,.25-2.34,2.06-1.91,3.37,.49,1.52,1.85,2.18,3.37,1.91h0Z"/><path class="cls-2" d="M117.69,103.97c-6.03-5.22-7.81-14.11-3.29-20.89,4.74-7.13,14.38-8.64,21.39-4,2.95,1.95,5.7-2.8,2.77-4.73-7.1-4.69-16.87-4.64-23.72,.51-6.7,5.03-9.84,13.38-7.92,21.56,1.03,4.39,3.49,8.48,6.89,11.43,2.66,2.3,6.55-1.56,3.88-3.88h0Z"/><path class="cls-2" d="M129.26,72.86c.66-5.38,1.8-11.2,5.53-15.37,3.15-3.52,7.62-5.87,12.34-6.38,9.63-1.03,18.87,6.47,20.05,16.08,.18,1.48,1.13,2.72,2.74,2.74,1.34,.01,2.92-1.27,2.74-2.74-1.53-12.46-12.65-22.78-25.53-21.57-6.03,.57-11.88,3.27-16.01,7.75-4.95,5.37-6.47,12.44-7.34,19.48-.18,1.48,1.39,2.73,2.74,2.74,1.63,.02,2.56-1.28,2.74-2.74h0Z"/><path class="cls-2" d="M161.81,76.84c3.34-3.99,8.46-6.36,13.71-5.65,4.88,.66,9.22,3.96,11.61,8.19,2.46,4.36,2.5,9.66,.56,14.23-2.2,5.19-6.56,8.82-11.95,10.36-3.39,.97-1.95,6.26,1.46,5.29,10.49-3,18.39-13.12,17.26-24.28-1.04-10.33-9.87-19.14-20.42-19.37-6.12-.14-12.2,2.68-16.12,7.36-2.25,2.69,1.61,6.59,3.88,3.88h0Z"/><path class="cls-2" d="M191.61,97.02c.98,.19,1.93,.47,2.86,.82-.45-.17,.12,.05,.26,.12,.19,.09,.37,.18,.56,.27,.4,.21,.8,.43,1.19,.68,.42,.26,.83,.55,1.23,.84-.44-.33,.19,.17,.22,.19,.19,.16,.38,.33,.56,.49,.34,.31,.66,.63,.97,.97,.17,.18,.34,.37,.5,.56,.06,.07,.51,.61,.34,.4-.2-.25,.2,.27,.24,.32,.15,.2,.29,.41,.42,.62,.27,.42,.53,.84,.77,1.28s.46,.88,.66,1.34c-.16-.36-.02-.04,.05,.15,.09,.23,.17,.47,.25,.7,.3,.9,.51,1.83,.67,2.77-.1-.61,.01,.19,.02,.26,.02,.25,.04,.5,.05,.74,.02,.5,0,1-.02,1.5-.08,1.43,1.32,2.81,2.74,2.74,1.55-.07,2.66-1.21,2.74-2.74,.5-9.35-6.61-18.54-15.82-20.3-1.4-.27-3.03,.39-3.37,1.91-.31,1.35,.41,3.08,1.91,3.37h0Z"/><path class="cls-2" d="M169.27,55.13c1.65-9.22,11.52-13.05,19.88-10.74,4.03,1.12,9.08,3.48,10.76,7.58,2.06,5.03,2.49,10.63,1.82,15.98-.19,1.48,1.39,2.73,2.74,2.74,1.63,.02,2.56-1.28,2.74-2.74,.8-6.39,.07-13.56-2.85-19.38-2.56-5.1-9.08-8.3-14.37-9.62-5.64-1.4-11.73-.91-16.79,2.06-4.65,2.72-8.26,7.31-9.22,12.67-.62,3.45,4.66,4.93,5.29,1.46h0Z"/><path class="cls-2" d="M207.39,68.42c5.27-7.67,16.59-8.22,23.82-3.25,8.37,5.75,10.34,18.82,1.41,25.09-4.68,3.29-10.6,4.29-16.14,5.17-1.47,.23-2.26,2.06-1.91,3.37,.41,1.56,1.92,2.15,3.37,1.91,6-.95,12.36-2.18,17.45-5.72,5.39-3.76,8.61-9.7,8.65-16.31,.07-12.95-12.16-23.16-24.78-22.19-6.66,.51-12.78,3.6-16.6,9.17-2,2.92,2.75,5.66,4.73,2.77h0Z"/><path class="cls-2" d="M215.28,101.03c.11,.13,.22,.26,.32,.39-.17-.22-.1-.12,.02,.05,.19,.28,.37,.55,.55,.84,.19,.32,.38,.65,.55,.98,.08,.15,.15,.3,.22,.45,.02,.05,.22,.51,.11,.24s.07,.21,.09,.25c.06,.16,.11,.31,.17,.47,.11,.32,.2,.64,.29,.96s.16,.65,.23,.98c.03,.16,.05,.33,.09,.49,.1,.44-.06-.64,.02,.14,.07,.67,.1,1.33,.09,2,0,.33-.02,.67-.05,1-.01,.17-.03,.33-.05,.5,.02-.27,.04-.24,0,.01-.12,.7-.27,1.39-.48,2.07-.1,.32-.22,.63-.33,.94-.13,.4,.17-.34-.01,.04-.09,.19-.18,.38-.27,.57-.64,1.28-.39,3.03,.98,3.75,1.24,.65,3.07,.39,3.75-.98,3.25-6.55,2.27-14.41-2.4-20.01-.92-1.11-2.94-1.02-3.88,0-1.08,1.18-.98,2.7,0,3.88h0Z"/><path class="cls-2" d="M243.44,72.59c3.45-9.26,15.41-13.45,23.5-7.53,3.77,2.76,6.4,7.31,6.42,12.03,.02,6.15-3.75,11.62-7.06,16.51-1.98,2.93,2.77,5.68,4.73,2.77,3.23-4.77,6.53-9.89,7.48-15.68,.83-5.1-.2-10.26-3.12-14.56-5.9-8.69-16.74-11.72-26.23-7.18-5.13,2.45-9.03,6.89-11.01,12.18-1.23,3.31,4.07,4.74,5.29,1.46h0Z"/><path class="cls-2" d="M270.79,97.11c1.5-1.2,3.76-1.11,5.55-1.01,2.15,.12,4.3,.44,6.39,.94,3.89,.93,7.71,2.75,9.6,6.47,1.61,3.17,1.55,6.97,.44,10.28-1.25,3.71-4.13,6.47-7.58,8.18-4.01,1.98-8.79,2.36-13.13,1.47-3.44-.71-4.92,4.57-1.46,5.29,10.48,2.16,22.67-1.73,26.99-12.23,1.85-4.51,2-9.79,.13-14.32-2.19-5.29-6.9-8.54-12.28-10.09-5.8-1.67-13.48-2.89-18.53,1.15-1.16,.93-.97,2.91,0,3.88,1.14,1.14,2.72,.93,3.88,0h0Z"/><path class="cls-2" d="M268.75,125.2c-.4,1.61-.81,3.23-1.21,4.84-.18,.7-.09,1.48,.28,2.11,.33,.57,.98,1.11,1.64,1.26,.7,.16,1.49,.13,2.11-.28s1.08-.94,1.26-1.64c.4-1.61,.81-3.23,1.21-4.84,.18-.7,.09-1.48-.28-2.11-.33-.57-.98-1.11-1.64-1.26-.7-.16-1.49-.13-2.11,.28s-1.08,.94-1.26,1.64h0Z"/><path class="cls-2" d="M143.65,47.01c-4.22-7.23-3.99-17.62,3.1-23.02,2.92-2.22,6.72-3.44,10.39-3.06,4.47,.46,7.9,3.75,11.45,6.18,1.22,.84,3.04,.23,3.75-.98,.79-1.36,.24-2.91-.98-3.75-3.6-2.47-6.97-5.43-11.33-6.48-3.69-.88-7.7-.58-11.23,.81-8,3.14-12.96,10.41-13.41,18.96-.25,4.92,1.06,9.88,3.53,14.12,1.78,3.05,6.52,.29,4.73-2.77h0Z"/><path class="cls-2" d="M172.46,24.44c.39-5.14,1.75-10.62,6.13-13.83,4.11-3.01,9.82-3.91,14.8-3.38,10.98,1.18,17.3,13.38,12.32,23.12-1.6,3.14,3.13,5.91,4.73,2.77,5.12-10.02,1.96-22.39-7.72-28.33-8.53-5.24-21.6-4.01-29.01,2.76-4.73,4.32-6.27,10.74-6.74,16.89-.27,3.52,5.22,3.5,5.48,0h0Z"/><path class="cls-2" d="M208.96,34.5c6.39-2.41,13.97-.64,18.39,4.66,4.51,5.41,4.47,13.64,.59,19.34-1.99,2.93,2.76,5.67,4.73,2.77,5.24-7.71,4.64-18.49-1.2-25.68-5.56-6.84-15.77-9.48-23.98-6.38-1.38,.52-2.33,1.85-1.91,3.37,.36,1.33,1.98,2.44,3.37,1.91h0Z"/><path class="cls-2" d="M226.08,34.29c3.44-6.92,10.5-12.19,18.53-10.93,7.65,1.2,13.22,8.66,10.6,16.3-1.15,3.35,4.15,4.78,5.29,1.46,3.48-10.15-3.73-20.89-13.92-22.95-10.53-2.12-20.59,3.98-25.24,13.35-1.56,3.15,3.16,5.93,4.73,2.77h0Z"/><path class="cls-2" d="M259.42,42.61c7.35-8.27,19.62-5.86,26.35,1.83,3.82,4.37,4.24,9.56,1.91,14.8-2.05,4.62-5.68,9.58-11.02,10.31-1.48,.2-2.26,2.08-1.91,3.37,.42,1.59,1.91,2.11,3.37,1.91,5.28-.72,9.32-4.74,12.15-8.99,3.13-4.7,5.1-10.47,4.16-16.14-.88-5.3-4.75-9.78-8.92-12.92-4.11-3.09-9.23-4.98-14.41-4.92-5.85,.06-11.65,2.48-15.56,6.88-2.34,2.63,1.53,6.52,3.88,3.88h0Z"/><path class="cls-2" d="M284.8,70.61c5.94,1.5,11.18,5.88,13.31,11.7,2.22,6.08,1.14,13.26-2.93,18.33-.93,1.15-1.13,2.75,0,3.88,.96,.96,2.95,1.16,3.88,0,5.27-6.56,7.25-15.63,4.34-23.67-2.76-7.63-9.27-13.54-17.14-15.53-3.42-.87-4.88,4.42-1.46,5.29h0Z"/><path class="cls-2" d="M207.39,11.72c4.31-5.42,11.46-7.41,18.08-5.6,3.38,.93,6.52,2.71,9.12,5.06s5.47,5.51,5.15,9.33c-.3,3.52,5.18,3.5,5.48,0,.42-4.85-2.59-9.16-5.9-12.41-3.31-3.25-7.38-5.77-11.84-7.11-8.44-2.55-18.36-.19-23.97,6.85-.93,1.17-1.12,2.73,0,3.88,.95,.97,2.96,1.16,3.88,0h0Z"/><path class="cls-2" d="M138.01,34.59c-5.38,.15-10.4,1.02-15.21,3.54-4.42,2.32-8.24,5.8-11.01,9.94-6.11,9.11-6.26,21.3-1.08,30.84,1.68,3.1,6.42,.34,4.73-2.77-4.29-7.9-3.95-17.81,1.08-25.3,4.92-7.33,12.95-10.53,21.49-10.76,3.52-.1,3.54-5.58,0-5.48h0Z"/><path class="cls-2" d="M279.92,156.74c7.86-2.18,15.09-7.4,18.8-14.78,3.89-7.75,3.73-17.4-1.12-24.71-1.94-2.93-6.69-.18-4.73,2.77,3.85,5.81,4.14,13.49,.87,19.64-3.15,5.94-8.87,10.02-15.28,11.79-3.4,.94-1.95,6.23,1.46,5.29h0Z"/><path class="cls-2" d="M256.84,187.97c8.41,1.89,16.26-2.32,21.29-8.96,4.66-6.14,5.66-14.93,.27-20.98-2.35-2.64-6.22,1.25-3.88,3.88,3.65,4.09,2.09,10.18-.95,14.1-3.6,4.65-9.27,8.02-15.27,6.67-3.44-.77-4.9,4.51-1.46,5.29h0Z"/><path class="cls-2" d="M280.43,173.65c6.66-.03,11.76-4.95,15.08-10.28,3.63-5.83,6.15-13.79,1.71-19.93-.87-1.2-2.39-1.78-3.75-.98-1.18,.69-1.86,2.54-.98,3.75,3.29,4.55,.94,10.15-1.71,14.39-2.26,3.63-5.73,7.55-10.35,7.56-3.53,.02-3.53,5.5,0,5.48h0Z"/><path class="cls-2" d="M73.78,284.1c-3.42,5.44-6.84,10.88-10.26,16.32-1.74,2.77-3.49,5.55-5.23,8.32-1.61,2.57-2.67,4.91-1.98,8.01,.98,4.39,4.96,11.04,10.31,8.99,2.43-.93,3.78-3.26,4.86-5.48,1.31-2.7,2.57-5.43,3.8-8.16,2.9-6.46,5.6-13,8.12-19.62,1.25-3.3-4.04-4.73-5.29-1.46-2.3,6.06-4.77,12.06-7.42,17.98-1.28,2.85-2.58,5.68-3.94,8.49-.42,.88-.84,2.13-1.61,2.76s-.99,.11-1.54-.7c-.74-1.1-1.43-2.37-1.83-3.63-.45-1.42-.08-2.27,.65-3.46,1.71-2.79,3.49-5.55,5.23-8.32,3.62-5.76,7.24-11.52,10.86-17.28,1.88-3-2.86-5.75-4.73-2.77h0Z"/><path class="cls-2" d="M71.98,317.61c1.48,2.76,4.84,3.95,7.82,3.24,3.2-.76,5.4-3.62,6.35-6.63,1.05-3.3,.64-6.96,.64-10.37,0-3.79,.11-7.57,.31-11.36,.08-1.48-1.32-2.74-2.74-2.74-1.55,0-2.66,1.26-2.74,2.74-.31,5.69-.11,11.36-.28,17.05-.06,1.89-.33,4.19-1.9,5.48-.62,.51-1.15,.63-1.8,.53-.41-.07-.7-.3-.92-.72-1.67-3.11-6.41-.34-4.73,2.77h0Z"/></g><path class="cls-2" d="M103.84,232.34c6.08-21.35,12.43-42.62,19.05-63.81,.42-1.35-1.69-1.93-2.12-.58-6.62,21.19-12.97,42.46-19.05,63.81-.39,1.36,1.73,1.94,2.12,.58h0Z"/><path class="cls-2" d="M118.95,197.9c3.68-10.36,6.88-20.88,9.58-31.53,.35-1.37-1.77-1.95-2.12-.58-2.7,10.66-5.9,21.18-9.58,31.53-.47,1.33,1.64,1.91,2.12,.58h0Z"/><path class="cls-2" d="M117.92,208.77c1.41,0,1.41-2.19,0-2.19s-1.41,2.19,0,2.19h0Z"/><path class="cls-2" d="M98.71,250.37l-.09-1.63c-.02-.29-.11-.57-.32-.78-.19-.19-.5-.33-.78-.32s-.58,.11-.78,.32-.34,.48-.32,.78l.09,1.63c.02,.29,.11,.57,.32,.78,.19,.19,.5,.33,.78,.32s.58-.11,.78-.32,.34-.48,.32-.78h0Z"/><path class="cls-2" d="M113.38,252.93c1.41,0,1.41-2.19,0-2.19s-1.41,2.19,0,2.19h0Z"/><path class="cls-2" d="M136.86,243.34c2.33-2.22,4.65-4.43,6.98-6.65,.42-.4,.43-1.16,0-1.55s-1.11-.42-1.55,0c-2.33,2.22-4.65,4.43-6.98,6.65-.42,.4-.43,1.16,0,1.55s1.11,.42,1.55,0h0Z"/><path class="cls-2" d="M137.88,235.88c.86-1.05,1.72-2.09,2.59-3.14,.19-.23,.32-.47,.32-.78,0-.27-.12-.59-.32-.78s-.48-.33-.78-.32c-.27,.01-.59,.1-.78,.32-.86,1.05-1.72,2.09-2.59,3.14-.19,.23-.32,.47-.32,.78,0,.27,.12,.59,.32,.78s.48,.33,.78,.32c.27-.01,.59-.1,.78-.32h0Z"/><path class="cls-2" d="M135.93,225.58c.64-1.21,1.29-2.43,1.93-3.64,.27-.51,.14-1.22-.39-1.5-.51-.27-1.21-.15-1.5,.39-.64,1.21-1.29,2.43-1.93,3.64-.27,.51-.14,1.22,.39,1.5,.51,.27,1.21,.15,1.5-.39h0Z"/><path class="cls-2" d="M150.23,230.2c4.06-3,7.6-6.59,10.53-10.7,.34-.48,.09-1.22-.39-1.5-.55-.32-1.16-.09-1.5,.39-2.7,3.78-6.01,7.16-9.75,9.91-.48,.35-.71,.95-.39,1.5,.27,.47,1.02,.75,1.5,.39h0Z"/><path class="cls-2" d="M150.32,221.38c1.35-1.49,2.7-2.97,4.05-4.46,.39-.42,.45-1.14,0-1.55-.42-.39-1.14-.45-1.55,0-1.35,1.49-2.7,2.97-4.05,4.46-.39,.42-.45,1.14,0,1.55,.42,.39,1.14,.45,1.55,0h0Z"/><path class="cls-2" d="M168.42,211.72c1.41,0,1.41-2.19,0-2.19s-1.41,2.19,0,2.19h0Z"/><path class="cls-2" d="M159.27,194.67c1.41,0,1.41-2.19,0-2.19s-1.41,2.19,0,2.19h0Z"/><path class="cls-2" d="M135.93,181.14c1.45-1.55,2.89-3.1,4.34-4.65,.39-.42,.45-1.14,0-1.55s-1.13-.45-1.55,0c-1.45,1.55-2.89,3.1-4.34,4.65-.39,.42-.45,1.14,0,1.55s1.13,.45,1.55,0h0Z"/><path class="cls-2" d="M143.26,204.38c1.93-2.43,3.67-5.01,5.18-7.73,.29-.52,.13-1.2-.39-1.5s-1.21-.13-1.5,.39c-1.41,2.55-3.02,5.01-4.83,7.29-.37,.46-.45,1.1,0,1.55,.38,.38,1.18,.47,1.55,0h0Z"/><path class="cls-2" d="M85.43,281.39c1.51-2.26,3.01-4.51,4.52-6.77,.32-.48,.11-1.24-.39-1.5-.55-.29-1.16-.12-1.5,.39-1.51,2.26-3.01,4.51-4.52,6.77-.32,.48-.11,1.24,.39,1.5,.55,.29,1.16,.12,1.5-.39h0Z"/><path class="cls-2" d="M121.58,136.5c-2.56,3.42-3.59,7.81-2.88,12.01,.68,4.01,3.05,7.54,6.29,9.93,1.14,.84,2.23-1.07,1.11-1.89-6.05-4.45-7.07-13-2.63-18.94,.85-1.13-1.06-2.23-1.89-1.11h0Z"/><path class="cls-2" d="M127.13,149.5c.62,.93,1.24,1.85,1.87,2.78,.16,.24,.37,.43,.66,.5,.26,.07,.61,.04,.85-.11s.44-.38,.5-.66,.05-.6-.11-.85c-.62-.93-1.24-1.85-1.87-2.78-.16-.24-.37-.43-.66-.5-.26-.07-.61-.04-.85,.11s-.44,.38-.5,.66-.05,.6,.11,.85h0Z"/><path class="cls-2" d="M133.66,158.73c1.41,0,1.41-2.19,0-2.19s-1.41,2.19,0,2.19h0Z"/><path class="cls-2" d="M124.5,129.95c-4.25-2.8-3.69-9.44-2.01-13.54,.97-2.37,2.65-4.61,5.07-5.64,2.21-.94,5-.91,6.91,.69,1.08,.9,2.63-.64,1.55-1.55-2.37-1.99-5.59-2.42-8.5-1.45-3.13,1.04-5.45,3.56-6.78,6.52-2.38,5.28-2.77,13.29,2.66,16.87,1.18,.78,2.28-1.12,1.11-1.89h0Z"/><path class="cls-2" d="M127.85,115.93c-1.54,2.67-1.63,5.93-.36,8.72,.25,.54,1.03,.67,1.5,.39,.55-.32,.64-.96,.39-1.5-.92-2.02-.77-4.54,.36-6.51,.7-1.23-1.19-2.33-1.89-1.11h0Z"/><path class="cls-2" d="M135.03,126.82c1.41,0,1.41-2.19,0-2.19s-1.41,2.19,0,2.19h0Z"/><path class="cls-2" d="M147.07,115.61c2.1-3.55,6.58-5.5,10.45-6.4,2.13-.5,4.44-.48,6.3,.8,1.57,1.08,2.61,2.87,2.76,4.77,.11,1.4,2.3,1.41,2.19,0-.18-2.33-1.22-4.52-3.02-6.04-2.07-1.76-4.71-2.28-7.36-1.91s-5.31,1.4-7.67,2.66c-2.24,1.19-4.24,2.81-5.54,5.02-.72,1.22,1.18,2.32,1.89,1.11h0Z"/><path class="cls-2" d="M167.21,122.61c1.41,0,1.41-2.19,0-2.19s-1.41,2.19,0,2.19h0Z"/><path class="cls-2" d="M166.33,133.9c.33-1.68,.65-3.36,.98-5.04,.11-.56-.16-1.21-.77-1.35-.54-.12-1.23,.16-1.35,.77-.33,1.68-.65,3.36-.98,5.04-.11,.56,.16,1.21,.77,1.35,.54,.12,1.23-.16,1.35-.77h0Z"/><path class="cls-2" d="M155.1,117.68c.2-.13,.4-.24,.61-.33-.21,.09,.09-.03,.11-.03,.09-.03,.19-.06,.29-.09,.13-.03,.26-.06,.39-.08,.24-.05-.16,0,.1-.01,.2-.01,.4-.02,.6-.01,.13,0,.27,.01,.4,.03-.2-.03,.03,.01,.1,.03,.19,.04,.39,.09,.57,.16,.06,.02,.12,.04,.19,.07-.11-.05-.11-.04,.01,0,.09,.05,.18,.09,.26,.14s.17,.1,.25,.16c.06,.04,.11,.07,.16,.11-.08-.06-.09-.07-.03-.02,.16,.13,.31,.28,.45,.43,.02,.02,.21,.26,.07,.07,.07,.09,.13,.18,.19,.28,.11,.18,.21,.36,.3,.55,.13,.28-.06-.2,.04,.09,.04,.11,.07,.21,.1,.32,.06,.2,.1,.4,.13,.61-.04-.25,0,.03,0,.09,0,.11,.01,.22,0,.34s-.01,.22-.01,.33c0,.24,.04-.17,0,.09-.04,.22-.1,.44-.17,.65-.18,.54,.21,1.22,.77,1.35,.6,.14,1.16-.18,1.35-.77,.7-2.1,0-4.65-1.74-6.05-1.85-1.49-4.57-1.7-6.59-.4-.48,.31-.72,.99-.39,1.5,.31,.48,.98,.73,1.5,.39h0Z"/><path class="cls-2" d="M158.67,154.6c3.21,1.46,7.02,1.68,10.22,.02,2.89-1.5,4.7-4.63,4.58-7.89-.07-1.79-.72-3.5-1.97-4.8-.98-1.02-2.53,.53-1.55,1.55,2.1,2.19,1.57,5.95-.45,8.01-2.47,2.52-6.66,2.6-9.72,1.21-.54-.24-1.18-.15-1.5,.39-.27,.47-.15,1.26,.39,1.5h0Z"/><path class="cls-2" d="M163.64,147.78c1.64-.71,2.93-2.37,3.21-4.13,.05-.3,.05-.57-.11-.85-.13-.23-.39-.44-.66-.5-.28-.06-.6-.05-.85,.11-.23,.15-.46,.38-.5,.66-.06,.35-.16,.7-.29,1.03l.11-.26c-.16,.38-.37,.73-.62,1.05l.17-.22c-.24,.31-.52,.59-.83,.83l.22-.17c-.3,.23-.62,.42-.97,.57-.23,.1-.44,.42-.5,.66-.07,.26-.04,.61,.11,.85s.38,.44,.66,.5c.31,.07,.56,.01,.85-.11h0Z"/><path class="cls-2" d="M140.92,135.22c-.67,2.34,.41,4.85,2.35,6.24,2.07,1.48,4.8,1.11,6.73-.42s2.72-4.13,1.85-6.45-2.98-4.06-5.5-4.18c-2.79-.13-5.34,1.71-6.35,4.25-.22,.55,.24,1.2,.77,1.35,.62,.17,1.13-.21,1.35-.77,.56-1.41,2.11-2.47,3.56-2.62,1.59-.17,3.03,.67,3.83,2.07s.68,3.05-.44,4.24c-1.04,1.11-2.68,1.64-4,1.03-1.59-.73-2.47-2.58-2.02-4.16,.39-1.36-1.73-1.94-2.12-.58h0Z"/><path class="cls-2" d="M142.7,92.22c.89,2.29,3.01,3.75,5.44,3.98,2.61,.25,4.88-1.32,6.11-3.54s1.4-4.96,.4-7.27c-.94-2.19-2.89-3.58-5.25-3.81s-5.06,.94-6.04,3.22c-.23,.54-.16,1.18,.39,1.5,.46,.27,1.26,.15,1.5-.39,.59-1.38,1.9-2.09,3.33-2.15,1.55-.07,2.95,.55,3.79,1.98,.89,1.51,.92,3.39,.34,5.02-.32,.91-.9,1.74-1.62,2.38-.6,.53-1.39,.87-2.11,.9-1.68,.08-3.55-.77-4.18-2.39-.22-.55-.74-.93-1.35-.77-.53,.14-.98,.79-.77,1.35h0Z"/><path class="cls-2" d="M119.35,85.89c-2.46,2.83-3.69,6.58-3.19,10.32,.48,3.56,2.44,6.7,5.32,8.83,1.14,.84,2.23-1.06,1.11-1.89-4.99-3.69-5.74-11.03-1.68-15.7,.92-1.06-.62-2.62-1.55-1.55h0Z"/><path class="cls-2" d="M123.19,92.96c-1.91,3.23-.66,7.83,2.65,9.62,.52,.28,1.19,.13,1.5-.39s.13-1.22-.39-1.5c-1.16-.62-1.93-1.68-2.28-2.94-.05-.17-.09-.34-.12-.51,0,0-.05-.29-.03-.16s-.02-.14-.02-.16c-.03-.36-.03-.73,0-1.09,0-.08,.03-.23,0-.07,.02-.1,.03-.2,.05-.31,.04-.17,.08-.34,.13-.5,.03-.1,.07-.2,.1-.29,.02-.07,.05-.13,0-.03,.08-.19,.18-.37,.29-.55,.72-1.22-1.18-2.32-1.89-1.11h0Z"/><path class="cls-2" d="M125.8,85.22c1.41,0,1.41-2.19,0-2.19s-1.41,2.19,0,2.19h0Z"/><path class="cls-2" d="M171.91,103.54c4.34-1.15,8.16-4.23,10.04-8.33,2.07-4.51,1.78-9.82-.67-14.12-.7-1.23-2.6-.12-1.89,1.11,2.1,3.67,2.41,8.34,.54,12.18-1.69,3.48-4.86,6.05-8.6,7.04-1.36,.36-.79,2.48,.58,2.12h0Z"/><path class="cls-2" d="M175.14,94.47l1.61-3.69c.12-.28,.2-.54,.11-.85-.07-.25-.27-.53-.5-.66-.25-.13-.56-.2-.85-.11-.25,.08-.54,.25-.66,.5l-1.61,3.69c-.12,.28-.2,.54-.11,.85,.07,.25,.27,.53,.5,.66,.25,.13,.56,.2,.85,.11,.25-.08,.54-.25,.66-.5h0Z"/><path class="cls-2" d="M169.18,87.6c1.41,0,1.41-2.19,0-2.19s-1.41,2.19,0,2.19h0Z"/><path class="cls-2" d="M174.39,79.36c1.41,0,1.41-2.19,0-2.19s-1.41,2.19,0,2.19h0Z"/><path class="cls-2" d="M135.1,76c-.34-3.5,.73-7.08,3.12-9.69,2.39-2.61,5.83-4.05,9.35-4.02,1.41,.01,1.41-2.18,0-2.19-4.07-.04-8.15,1.65-10.9,4.66-2.76,3.01-4.16,7.18-3.76,11.24,.14,1.39,2.33,1.41,2.19,0h0Z"/><path class="cls-2" d="M154.95,63.53c1.41,0,1.41-2.19,0-2.19s-1.41,2.19,0,2.19h0Z"/><path class="cls-2" d="M160.42,69.43c.6,1.05,1.21,2.11,1.81,3.16,.29,.5,1.01,.71,1.5,.39s.7-.97,.39-1.5c-.6-1.05-1.21-2.11-1.81-3.16-.29-.5-1.01-.71-1.5-.39s-.7,.97-.39,1.5h0Z"/><path class="cls-2" d="M212.55,123.76c-3.36-1.62-7.53-1.13-10.29,1.44-2.57,2.39-3.86,6.79-2.19,10.04,.98,1.91,3.15,2.7,5.18,2.77,1.41,.05,1.41-2.14,0-2.19-.81-.03-1.64-.19-2.34-.63-.74-.47-1.07-1.18-1.25-2.01-.34-1.63,.04-3.39,.87-4.82,1.77-3.03,5.75-4.22,8.91-2.7,.53,.26,1.18,.15,1.5-.39,.28-.48,.14-1.24-.39-1.5h0Z"/><path class="cls-2" d="M211.82,137.3c1.41,0,1.41-2.19,0-2.19s-1.41,2.19,0,2.19h0Z"/><path class="cls-2" d="M236.49,123.89c-.18-2.85-.01-5.88,1.39-8.44,1.17-2.13,3.11-3.77,5.54-4.17,.58-.1,.91-.82,.77-1.35-.17-.62-.76-.86-1.35-.77-2.88,.48-5.32,2.51-6.75,5-1.68,2.92-2,6.42-1.79,9.73,.09,1.4,2.28,1.41,2.19,0h0Z"/><path class="cls-2" d="M248,114.56c1.41,0,1.41-2.19,0-2.19s-1.41,2.19,0,2.19h0Z"/><path class="cls-2" d="M252.29,153.6c1.54,2.69,4.29,4.58,7.37,4.99s6.54-.85,8.7-3.27c.94-1.05-.61-2.61-1.55-1.55-1.71,1.92-4.28,2.99-6.86,2.66-2.42-.31-4.57-1.84-5.77-3.94-.7-1.23-2.59-.12-1.89,1.11h0Z"/><path class="cls-2" d="M271.36,149.65c1.41,0,1.41-2.19,0-2.19s-1.41,2.19,0,2.19h0Z"/><path class="cls-2" d="M263.74,145.36c1.41,0,1.41-2.19,0-2.19s-1.41,2.19,0,2.19h0Z"/><path class="cls-2" d="M262.63,153.18c1.41,0,1.41-2.19,0-2.19s-1.41,2.19,0,2.19h0Z"/><path class="cls-2" d="M221.45,148.82c-2.16,3.08-3.64,6.89-3.2,10.7,.39,3.38,2.17,6.56,5.17,8.28,1.23,.7,2.33-1.19,1.11-1.89-2.46-1.4-3.94-4.11-4.13-6.9-.23-3.3,1.09-6.42,2.95-9.08,.81-1.16-1.09-2.26-1.89-1.11h0Z"/><path class="cls-2" d="M229.21,172.04c1.41,0,1.41-2.19,0-2.19s-1.41,2.19,0,2.19h0Z"/><path class="cls-2" d="M235.86,164.97c.79-1.77,1.29-3.6,1.48-5.53,.06-.57-.55-1.12-1.1-1.1-.64,.03-1.03,.48-1.1,1.1-.01,.12-.03,.24-.04,.36-.03,.3,.04-.23,0,.07-.03,.21-.07,.42-.1,.63-.08,.4-.17,.8-.27,1.19s-.23,.78-.36,1.17c-.07,.2-.14,.4-.22,.59-.03,.08-.07,.17-.1,.25,.11-.25-.05,.11-.07,.15-.23,.52-.17,1.2,.39,1.5,.48,.25,1.25,.17,1.5-.39h0Z"/><path class="cls-2" d="M231.6,143.24c1.7,3.75,6.99,4.68,10.01,2.03,1.5-1.32,2.33-3.41,2.28-5.39-.05-2.1-1.06-3.98-2.71-5.24-1.86-1.41-4.35-1.92-6.6-1.29-1.36,.38-.78,2.49,.58,2.12,2.74-.76,6.08,.94,6.5,3.86,.2,1.36-.2,2.86-1.11,3.91s-2.25,1.54-3.65,1.36-2.78-1.07-3.41-2.46c-.25-.54-1.03-.67-1.5-.39-.55,.32-.64,.96-.39,1.5h0Z"/><path class="cls-2" d="M192.82,80.63c2.91-.9,6.26-.27,8.53,1.81s3.3,5.31,2.65,8.31c-.3,1.38,1.82,1.96,2.12,.58,.81-3.73-.37-7.84-3.22-10.44-2.83-2.59-7-3.51-10.66-2.38-1.34,.42-.77,2.53,.58,2.12h0Z"/><path class="cls-2" d="M172.19,62.79c-.58-4.26,3.41-7.31,6.9-8.73,3.1-1.26,8.95-3.36,10.86,.75,.6,1.28,2.49,.17,1.89-1.11-2.47-5.29-9.52-3.33-13.64-1.63-4.65,1.92-8.86,5.85-8.13,11.3,.19,1.39,2.3,.8,2.12-.58h0Z"/><path class="cls-2" d="M195.73,60.58c1.41,0,1.41-2.19,0-2.19s-1.41,2.19,0,2.19h0Z"/><path class="cls-2" d="M177.11,67.35c-.2-2.28,.57-4.56,2.21-6.18,1.64-1.61,3.95-2.33,6.22-2.09,.59,.06,1.1-.55,1.1-1.1,0-.64-.5-1.04-1.1-1.1-2.82-.29-5.75,.75-7.77,2.73s-3.1,4.91-2.85,7.73c.05,.59,.47,1.1,1.1,1.1,.55,0,1.15-.5,1.1-1.1h0Z"/><path class="cls-2" d="M220.05,70.29c3.62-.48,7.4,.93,9.65,3.86,2.32,3.02,2.67,7.35,.98,10.74-.63,1.26,1.26,2.37,1.89,1.11,2.05-4.09,1.77-9.24-.98-12.95s-7.16-5.52-11.55-4.94c-.59,.08-1.09,.45-1.1,1.1,0,.53,.51,1.17,1.1,1.1h0Z"/><path class="cls-2" d="M223.23,78.23c.17,.18,.34,.36,.5,.55,.04,.05,.08,.1,.12,.14-.14-.17,0,0,.02,.03,.07,.1,.14,.2,.21,.3,.28,.42,.53,.87,.74,1.33,.05,.1,.04,.08,0,0,.02,.06,.05,.11,.07,.17,.04,.11,.09,.23,.13,.35,.08,.23,.15,.47,.21,.71,.06,.25,.12,.51,.16,.77,0,.03,.03,.22,.01,.08s0,.06,0,.08c.01,.14,.02,.28,.03,.41,.03,.57,.48,1.12,1.1,1.1,.56-.03,1.13-.48,1.1-1.1-.14-2.43-1.14-4.73-2.84-6.48-.4-.41-1.15-.43-1.55,0s-.43,1.11,0,1.55h0Z"/><path class="cls-2" d="M213.41,114.87c.87-2.48,.92-5.24,.18-7.76-.17-.57-.77-.93-1.35-.77s-.93,.78-.77,1.35c.65,2.19,.59,4.41-.18,6.59-.19,.54,.22,1.22,.77,1.35,.61,.14,1.15-.19,1.35-.77h0Z"/><path class="cls-2" d="M209.52,101.46c1.41,0,1.41-2.19,0-2.19s-1.41,2.19,0,2.19h0Z"/><path class="cls-2" d="M118.92,73.77c-1.47-6.18-.58-12.77,2.48-18.34,.68-1.24-1.21-2.35-1.89-1.11-3.35,6.09-4.31,13.27-2.7,20.03,.33,1.37,2.44,.79,2.12-.58h0Z"/><path class="cls-2" d="M127.75,50.81c.02-.13,.05-.26,.08-.39,.05-.15,.05-.29,.02-.44,0-.15-.05-.28-.13-.41-.07-.13-.16-.23-.28-.31-.11-.1-.23-.16-.37-.2l-.29-.04c-.2,0-.38,.05-.55,.15l-.22,.17c-.14,.14-.23,.3-.28,.48-.03,.13-.05,.26-.08,.39-.05,.15-.05,.29-.02,.44,0,.15,.05,.28,.13,.41,.07,.13,.16,.23,.28,.31,.11,.1,.23,.16,.37,.2l.29,.04c.2,0,.38-.05,.55-.15l.22-.17c.14-.14,.23-.3,.28-.48h0Z"/><path class="cls-2" d="M149.31,47.11c-2.59-2.37-4.01-5.94-3.49-9.45,.51-3.42,2.74-6.39,5.79-7.97,1.25-.65,.15-2.54-1.11-1.89-3.63,1.88-6.26,5.5-6.84,9.56-.59,4.17,.99,8.47,4.09,11.31,1.04,.95,2.6-.6,1.55-1.55h0Z"/><path class="cls-2" d="M156.06,48.51c-3.29-1.71-4.88-6.13-3.26-9.48,.26-.53,.15-1.18-.39-1.5-.48-.28-1.24-.14-1.5,.39-2.13,4.4-.34,10.21,4.05,12.48,1.25,.65,2.36-1.24,1.11-1.89h0Z"/><path class="cls-2" d="M217.33,41.5c5.44,2.75,8.17,9.52,6.18,15.28-.46,1.34,1.66,1.91,2.12,.58,2.29-6.63-.93-14.59-7.19-17.75-1.26-.64-2.37,1.26-1.11,1.89h0Z"/><path class="cls-2" d="M217.14,52.36c.62,1,.96,1.8,1.24,2.95,.07,.28,.13,.56,.17,.84,0,0,.05,.35,.02,.16,.02,.15,.03,.3,.04,.46,.04,.57,.04,1.15,0,1.72s.54,1.12,1.1,1.1c.63-.03,1.05-.48,1.1-1.1,.2-2.52-.45-5.1-1.78-7.25-.3-.49-.99-.72-1.5-.39s-.72,.98-.39,1.5h0Z"/><path class="cls-2" d="M185.22,40.11c.25-.55,.56-1.07,.92-1.55l-.17,.22c.41-.54,.89-1.01,1.43-1.43l-.22,.17c.23-.18,.47-.34,.72-.49,.49-.3,.72-1,.39-1.5s-.97-.71-1.5-.39c-1.5,.9-2.75,2.26-3.47,3.86-.12,.28-.19,.54-.11,.85,.07,.25,.27,.53,.5,.66,.25,.13,.56,.2,.85,.11,.26-.08,.54-.25,.66-.5h0Z"/><path class="cls-2" d="M273.51,67.96c3.85-.5,7.27-2.92,8.8-6.54s.78-8.13-1.81-11.23c-.91-1.08-2.45,.47-1.55,1.55,2,2.4,2.56,5.94,1.35,8.83-1.15,2.73-3.85,4.81-6.79,5.19-.59,.08-1.09,.45-1.1,1.1,0,.53,.51,1.17,1.1,1.1h0Z"/><path class="cls-2" d="M276.72,47.34c1.41,0,1.41-2.19,0-2.19s-1.41,2.19,0,2.19h0Z"/><path class="cls-2" d="M272.19,65.1c1.21-.78,2.24-1.85,2.94-3.11,.14-.25,.19-.56,.11-.85-.07-.25-.27-.53-.5-.66-.52-.27-1.2-.14-1.5,.39-.19,.34-.4,.66-.63,.96l.17-.22c-.4,.51-.86,.97-1.37,1.37l.22-.17c-.18,.13-.36,.26-.54,.38-.24,.15-.43,.38-.5,.66-.07,.26-.04,.61,.11,.85s.38,.44,.66,.5,.6,.05,.85-.11h0Z"/><path class="cls-2" d="M230.75,37.21c.21-2.6,2.18-4.7,4.39-5.88,2.81-1.51,6.14-1.7,9.26-1.87,1.4-.08,1.41-2.27,0-2.19-3.65,.2-7.51,.49-10.74,2.38-2.75,1.62-4.84,4.32-5.1,7.56-.11,1.41,2.08,1.4,2.19,0h0Z"/><path class="cls-2" d="M249,32.71c1.41,0,1.41-2.19,0-2.19s-1.41,2.19,0,2.19h0Z"/><path class="cls-2" d="M231.39,42.1c1.88-.72,3.75-1.44,5.63-2.16,.53-.2,.96-.75,.77-1.35-.17-.52-.78-.99-1.35-.77-1.88,.72-3.75,1.44-5.63,2.16-.53,.2-.96,.75-.77,1.35,.17,.52,.78,.99,1.35,.77h0Z"/><path class="cls-2" d="M247.35,61.47c-1.28-1.39-1.55-3.61-.63-5.24s2.94-2.53,4.68-2.21c.58,.11,1.18-.16,1.35-.77,.15-.53-.18-1.24-.77-1.35-2.77-.51-5.74,.74-7.16,3.22s-.97,5.79,.97,7.9c.4,.44,1.14,.41,1.55,0,.43-.43,.4-1.11,0-1.55h0Z"/><path class="cls-2" d="M241.71,83.41c1.53-4.18,4.03-8.31,8.01-10.54,3.61-2.03,8.6-2.09,11.74,.85,1.03,.96,2.58-.58,1.55-1.55-3.73-3.49-9.41-3.68-13.85-1.48-4.8,2.38-7.78,7.27-9.57,12.14-.49,1.33,1.63,1.9,2.12,.58h0Z"/><path class="cls-2" d="M265.38,80.93c1.41,0,1.41-2.19,0-2.19s-1.41,2.19,0,2.19h0Z"/><path class="cls-2" d="M250.59,80.47c.08,0,.15,.01,.23,.02,.03,0,.22,.03,.08,0-.16-.02,.12,.02,.12,.02,.06,.01,.12,.02,.18,.03,.27,.05,.53,.12,.79,.2s.52,.17,.77,.27c-.09-.04-.12-.05-.01,0,.07,.03,.14,.06,.21,.1,.12,.06,.24,.12,.36,.19,.23,.12,.45,.26,.66,.4,.11,.08,.22,.15,.33,.23,.23,.17-.1-.09,.03,.02,.05,.04,.09,.08,.14,.11,.43,.36,.82,.76,1.17,1.2s1.18,.4,1.55,0c.44-.48,.38-1.07,0-1.55-1.61-2.02-4.06-3.23-6.62-3.45-.57-.05-1.12,.54-1.1,1.1,.03,.64,.48,1.04,1.1,1.1h0Z"/><path class="cls-2" d="M277.83,119.26c3.55-.6,7.03-2.81,8.54-6.17,1.47-3.28,.99-7.36-1.6-9.94-1-1-2.55,.55-1.55,1.55,1.97,1.96,2.32,5.2,1.08,7.65-1.36,2.7-4.14,4.3-7.05,4.8-1.39,.24-.8,2.35,.58,2.12h0Z"/><path class="cls-2" d="M279.14,112.44c.05-.93,.1-1.86,.14-2.79,.03-.57-.53-1.12-1.1-1.1-.62,.03-1.06,.48-1.1,1.1-.05,.93-.1,1.86-.14,2.79-.03,.57,.53,1.12,1.1,1.1,.62-.03,1.07-.48,1.1-1.1h0Z"/><path class="cls-2" d="M262.94,131.32c.55-2.84,1.1-5.68,1.65-8.53,.11-.58-.16-1.18-.77-1.35-.54-.15-1.24,.18-1.35,.77-.55,2.84-1.1,5.68-1.65,8.53-.11,.58,.16,1.18,.77,1.35,.54,.15,1.24-.18,1.35-.77h0Z"/><path class="cls-2" d="M280.26,146.37c3.43-1.44,6.09-4.3,7.15-7.88,.16-.55-.2-1.22-.77-1.35s-1.17,.18-1.35,.77c-.06,.2-.13,.41-.2,.61-.03,.08-.06,.17-.09,.25-.02,.06-.09,.22-.03,.08-.15,.36-.33,.71-.52,1.05s-.4,.67-.62,.99c-.06,.09-.12,.17-.19,.26-.2,.28,.13-.15-.09,.11-.13,.15-.25,.3-.38,.44-.26,.29-.54,.57-.82,.83-.14,.13-.29,.26-.44,.38-.03,.02-.27,.21-.11,.09-.07,.05-.14,.11-.21,.16-.32,.23-.64,.44-.98,.63-.17,.1-.34,.19-.52,.27-.1,.05-.19,.09-.29,.14-.04,.02-.31,.14-.13,.06-.55,.23-.94,.73-.77,1.35,.14,.51,.8,1,1.35,.77h0Z"/><path class="cls-2" d="M279.23,140.09c.53-1.37,1.06-2.75,1.59-4.12,.1-.25,.02-.62-.11-.85s-.39-.44-.66-.5c-.63-.14-1.13,.19-1.35,.77-.53,1.37-1.06,2.75-1.59,4.12-.1,.25-.02,.62,.11,.85s.39,.44,.66,.5c.63,.14,1.13-.19,1.35-.77h0Z"/><path class="cls-2" d="M281.92,166.33c1.74-1.07,3.18-2.65,4.03-4.51,.13-.28,.19-.54,.11-.85-.07-.25-.27-.53-.5-.66-.48-.25-1.25-.16-1.5,.39-.19,.42-.41,.82-.66,1.21-.12,.18-.25,.36-.37,.54-.11,.16,.12-.15,.03-.04-.03,.04-.07,.09-.1,.13-.08,.09-.15,.18-.23,.27-.3,.34-.62,.65-.96,.94-.08,.07-.17,.14-.25,.21-.18,.14,.15-.11,.04-.03-.04,.03-.09,.07-.13,.1-.19,.14-.4,.27-.6,.4-.49,.3-.72,.99-.39,1.5s.98,.72,1.5,.39h0Z"/><path class="cls-2" d="M259.46,179.7c4.5,.04,8.79-2.23,11.36-5.91,.34-.49,.09-1.22-.39-1.5-.55-.32-1.16-.09-1.5,.39-2.12,3.04-5.77,4.86-9.46,4.82-1.41-.01-1.41,2.18,0,2.19h0Z"/><path class="cls-2" d="M260.67,174.27c.62-.42,1.23-.83,1.85-1.25,.24-.16,.43-.37,.5-.66,.07-.26,.04-.61-.11-.85s-.38-.44-.66-.5-.6-.05-.85,.11c-.62,.42-1.23,.83-1.85,1.25-.24,.16-.43,.37-.5,.66-.07,.26-.04,.61,.11,.85s.38,.44,.66,.5,.6,.05,.85-.11h0Z"/><path class="cls-2" d="M195.02,177.98c-3.77,3.5-5.3,8.84-4.48,13.86,.4,2.44,1.42,4.78,2.98,6.7,1.75,2.14,4.64,3.67,7.32,2.34,1.26-.63,.15-2.52-1.11-1.89-2.1,1.04-4.32-1.35-5.32-2.94-1.06-1.69-1.69-3.64-1.86-5.63-.34-4.03,1.03-8.1,4.01-10.88,1.04-.96-.52-2.51-1.55-1.55h0Z"/><path class="cls-2" d="M208.78,200.65c1.41,0,1.41-2.19,0-2.19s-1.41,2.19,0,2.19h0Z"/><path class="cls-2" d="M198.04,187.22c.09,1.43,.7,2.76,1.69,3.79s2.31,1.65,3.74,1.8c.57,.06,1.12-.55,1.1-1.1-.03-.64-.48-1.03-1.1-1.1-.04,0-.08,0-.13-.01,.18,.02,.22,.03,.13,.02-.06-.01-.12-.02-.19-.03-.13-.03-.27-.06-.4-.1-.12-.04-.24-.09-.36-.13,.3,.09,.11,.05,.03,.01-.06-.03-.11-.05-.17-.08-.24-.13-.47-.27-.7-.43-.19-.13,.2,.16,.02,.02-.05-.04-.1-.08-.14-.12-.1-.09-.2-.19-.3-.28s-.18-.2-.27-.31c-.13-.15,.14,.2,.02,.02-.04-.05-.07-.1-.11-.15-.15-.22-.28-.45-.39-.68-.02-.04-.11-.25-.03-.07s-.02-.07-.04-.1c-.04-.12-.08-.24-.11-.36s-.06-.24-.08-.37c0-.04-.01-.08-.02-.12l.02,.17c0-.08-.02-.17-.02-.25-.04-.57-.48-1.12-1.1-1.1-.56,.03-1.14,.48-1.1,1.1h0Z"/><path class="cls-2" d="M238.77,190.76c5.41-1.42,9.46-6.28,10.04-11.8,.06-.59-.55-1.1-1.1-1.1-.64,0-1.03,.51-1.1,1.1-.48,4.55-4.04,8.54-8.43,9.69-1.36,.36-.79,2.47,.58,2.12h0Z"/><path class="cls-2" d="M241.58,182.96c.23-.49,.46-.98,.69-1.47,.08-.13,.12-.26,.13-.41,.03-.15,.03-.29-.02-.44-.03-.14-.1-.27-.2-.37-.08-.12-.18-.21-.31-.28-.25-.13-.56-.2-.85-.11-.26,.08-.54,.25-.66,.5-.23,.49-.46,.98-.69,1.47-.08,.13-.12,.26-.13,.41-.03,.15-.03,.29,.02,.44,.03,.14,.1,.27,.2,.37,.08,.12,.18,.21,.31,.28,.25,.13,.56,.2,.85,.11,.26-.08,.54-.25,.66-.5h0Z"/><path class="cls-2" d="M170.49,165.01c2.68,6.2,10.09,7.18,15.99,7.62,1.41,.11,1.4-2.09,0-2.19-5.18-.39-11.75-1.08-14.1-6.54-.24-.55-1.03-.66-1.5-.39-.57,.32-.63,.96-.39,1.5h0Z"/><path class="cls-2" d="M191.87,169.62c1.41,0,1.41-2.19,0-2.19s-1.41,2.19,0,2.19h0Z"/><path class="cls-2" d="M175.05,160.61c1.75,1.9,3.9,3.45,6.27,4.49,.52,.23,1.2,.17,1.5-.39,.25-.48,.17-1.25-.39-1.5-1.13-.5-2.2-1.1-3.21-1.81-.11-.08-.22-.16-.33-.24,0,0-.23-.17-.13-.1,.08,.06-.08-.06-.09-.07-.24-.19-.48-.39-.71-.59-.47-.42-.92-.86-1.35-1.33-.39-.42-1.16-.42-1.55,0-.42,.45-.42,1.1,0,1.55h0Z"/><path class="cls-2" d="M211.69,161.94c-1.54,.51-3.17,.32-4.59-.44s-2.55-2-2.99-3.54c-.38-1.36-2.5-.78-2.12,.58,1.18,4.21,6.09,6.89,10.27,5.51,.56-.19,.93-.76,.77-1.35-.15-.55-.78-.95-1.35-.77h0Z"/><path class="cls-2" d="M246.21,99.49c.96-3.2,4.06-5.63,7.43-5.67s6.53,2.33,7.55,5.51c.43,1.34,2.55,.77,2.12-.58-1.31-4.1-5.3-7.17-9.66-7.12-4.35,.05-8.3,3.14-9.55,7.28-.41,1.35,1.71,1.93,2.12,.58h0Z"/><path class="cls-2" d="M283.41,73.39c.19,.06,.37,.13,.56,.2,.08,.03,.17,.07,.25,.1-.18-.08,.13,.06,.13,.06,.36,.16,.71,.35,1.05,.55,.72,.42,1.2,.77,1.74,1.24,.28,.25,.55,.51,.81,.79,.14,.14,.27,.29,.4,.44,.06,.07,.12,.14,.17,.21,0,0,.21,.27,.1,.12,.48,.62,.9,1.3,1.24,2.01,.26,.53,1.01,.68,1.5,.39,.54-.32,.66-.97,.39-1.5-1.57-3.17-4.42-5.59-7.76-6.72-.54-.18-1.22,.21-1.35,.77-.14,.61,.18,1.15,.77,1.35h0Z"/><path class="cls-2" d="M293.51,85.18c1.41,0,1.41-2.19,0-2.19s-1.41,2.19,0,2.19h0Z"/><path class="cls-1" d="M76.88,287.96c-5.32,6.05-9.7,12.88-12.95,20.26-.56,1.28,1.33,2.4,1.89,1.11,3.17-7.21,7.41-13.9,12.61-19.81,.93-1.06-.62-2.61-1.55-1.55h0Z"/><path class="cls-2" d="M46.3,215.67c-11.84,.78-24.81,1.59-35.07-5.48-2.12-1.46-4.06-3.3-5.54-5.42-.35-.51-1-1.22-1.1-1.84-.11-.73,.01-.65,.7-1.01,1.14-.59,2.55-.92,3.81-1.14,5.23-.95,10.84,.54,14.88,3.99,1.49,1.27,4.54,.1,3.67-2.13-1.01-2.6-2.48-4.91-3.97-7.27-1.45-2.29-3.25-4.84-3.59-7.6-.76-6.15,8.74-5.65,12.19-3.72,5.83,3.26,8.29,10.22,10.29,16.2s1.93,11.58,1.55,17.62c-.18,2.82,4.21,2.81,4.39,0,.36-5.67,.44-11.33-1.11-16.85-1.62-5.8-3.96-12.1-7.96-16.7-3.74-4.31-9.02-6.56-14.71-5.82-4.72,.61-9.19,3.42-9.06,8.69,.16,6.41,5.55,10.95,7.75,16.61l3.67-2.13c-5.12-4.37-11.84-6.3-18.5-5.22-2.65,.43-6.86,1.36-8.15,4.07-1.53,3.19,1.47,6.74,3.46,9,10.57,11.98,27.88,11.51,42.42,10.56,2.8-.18,2.82-4.57,0-4.39h0Z"/><path class="cls-2" d="M66.4,80.09c-8.17,.67-17.68-1.74-22.17-9.18-1.02-1.69-1.58-3.53-1.92-5.46-.1-.53-.36-1.54-.1-2.06,.1-.21,.39-.15,.89-.13,4.27,.15,8.16,2.48,10.97,5.6,1.65,1.83,4.84-.58,3.44-2.66-2.11-3.15-4.98-7.26-3.46-11.22,1.33-3.47,4.94-3.73,7.16-.86,2.58,3.33,2.49,8.82,2.78,12.81,.38,5.11,.44,10.23,.2,15.35-.13,2.82,4.26,2.82,4.39,0,.3-6.61,.11-13.23-.62-19.81-.57-5.14-1.47-11.24-6.62-13.85-4.68-2.37-9.55,.1-11.37,4.79-2.08,5.34,.82,10.63,3.75,15l3.44-2.66c-2.94-3.27-7.09-5.91-11.49-6.62-1.68-.27-3.69-.56-5.28,.19-1.74,.82-2.54,2.48-2.63,4.35-.19,3.92,1.57,8.19,3.91,11.24,2.53,3.3,5.92,5.85,9.79,7.37,4.64,1.83,9.96,2.59,14.93,2.18,2.79-.23,2.82-4.62,0-4.39h0Z"/><path class="cls-2" d="M188.98,260.81c2.51-6.6,7.4-12.18,13.53-15.67,1.45-.82,2.96-1.56,4.54-2.09,.7-.24,1.69-.75,2.14,.01,.35,.59-.02,1.41-.29,1.95-.92,1.78-2.52,3.34-3.9,4.76-1.56,1.61-3.23,3.11-4.98,4.51l3.1,3.1c3.25-3.53,7.86-5.45,12.67-4.91,1.52,.17,3.76,.54,4.04,2.36s-1.12,3.88-2.28,5.13c-3.57,3.87-9.42,3.61-14.23,2.91-5.49-.81-10.64-2.98-15.86-4.76-2.68-.91-3.83,3.32-1.17,4.23,5.23,1.78,10.37,3.91,15.86,4.76,5.09,.78,10.92,1.1,15.53-1.62,3.57-2.11,6.85-6.52,6.52-10.84-.37-4.85-5.15-6.43-9.32-6.62-5.6-.26-11.08,2.16-14.86,6.26-1.96,2.12,.93,4.83,3.1,3.1,2.23-1.78,4.32-3.72,6.23-5.85,1.71-1.89,3.68-4.02,4.21-6.59,.45-2.18-.31-4.73-2.27-5.95-2.32-1.43-5.01-.4-7.29,.56-8.9,3.73-15.82,11.1-19.24,20.09-1,2.64,3.23,3.78,4.23,1.17h0Z"/></svg>