<?xml version="1.0" encoding="UTF-8"?><svg id="OBJECTS" xmlns="http://www.w3.org/2000/svg" viewBox="0 0 259.47 343.36"><defs><style>.cls-1{fill:#4f4e4e;}</style></defs><path class="cls-1" d="M106.88,90.08c-2.9-1.72-4.4-2.62-5.92-3.5-12.83-7.49-23.19-17.54-30.96-30.19-5.03-8.2-6.73-17.02-4.12-26.42,1.96-7.03,6.18-12.39,12.57-15.91,19.58-10.8,35.37-.09,41.66,12.46,1,2,1.75,4.12,2.67,6.16,.35,.78,.6,1.73,1.89,1.77,.58-3.68,1.07-7.38,1.76-11.06,.96-5.14,3.01-9.85,6.16-14.03,6.04-8.02,14.34-10.47,23.84-8.91,5.72,.94,9.5,4.8,11.55,10.2,2.05,5.41,1.87,10.98,.94,16.57-.35,2.11-.74,4.2-1.29,7.29,2.56-2.02,4.21-3.46,6-4.71,8.4-5.86,17.56-8.84,27.88-6.89,9.78,1.85,17.91,9.95,19.52,19.82,1.85,11.37-.61,21.82-7.68,31.04-3.44,4.48-7.66,8.14-12.16,11.52-1.17,.88-2.86,1.24-3.33,2.94,1.02,1.33,2.45,.83,3.68,.84,14.13,.18,28.2,1.22,42.24,2.69,2.22,.23,4.42,.74,6.65,.98,3.3,.36,5.22,2.32,6.4,5.21,1.63,3.99,2.4,8.17,2.54,12.45,.13,4.03,.14,8.07,0,12.1-.16,4.25-.26,8.59-4.16,11.56-.96,.73-.95,1.96-.94,3.1,.03,2.24,.06,4.48,.09,6.72,.42,36.53,.53,73.06-.39,109.58-.49,19.48-1.59,38.95-2.46,58.43-.23,5.17-1.17,10.24-2.8,15.16-2.46,7.43-7.57,11.97-15.25,13.59-7.94,1.67-16.02,1.79-24.07,2.09-30.47,1.17-60.95,.43-91.42,.21-29.58-.21-59.16-.4-88.74-.64-4.03-.03-8.07-.16-12.08-.46-1.98-.15-3.96-.68-5.88-1.26-3.72-1.14-6.09-3.76-7.03-7.48-.66-2.59-1.04-5.27-1.35-7.94-1.14-9.81-1.17-19.68-1.27-29.54-.28-27.57-.06-55.13,.72-82.68,.6-20.83,1.2-41.66,1.7-62.49,.11-4.47-.24-8.95-.32-13.43-.06-2.94-.3-5.7-2.29-8.19-1.6-2-1.51-4.66-1.33-7.13,.56-7.83,1.95-15.55,3.69-23.2,.95-4.18,3.74-6.52,7.81-7.38,1.74-.37,3.54-.6,5.32-.67,6.05-.23,12.08-.17,18.13,.33,22.38,1.87,44.78,1.43,67.17,.07,1.09-.07,2.17-.34,4.67-.75Zm63.12-47.75c3.32-2.33,6.97-4.01,10.86-5.1,7.78-2.17,14.6-.54,20.19,5.42,5.63,6,7.72,12.89,5.13,20.96-1.48,4.62-4.34,8.28-7.75,11.56-4.06,3.91-8.75,6.91-13.76,9.44-1.29,.65-3.05,.81-3.36,2.73,7.38,.12,16.56-2.99,21.97-8.35,9.06-8.98,14.69-19.55,13.66-32.88-.87-11.34-9.61-19.33-21.02-18.85-10.43,.44-18.86,4.89-25.58,12.78-.67,.78-.67,1.58-.25,2.39-.16-.12-.31-.29-.49-.35-.13-.05-.31,.04-.47,.07,.29,.06,.58,.12,.87,.18Zm-67.49,36.94c-.07,.46-.46,1.15,.58,.78-.24-.22-.49-.43-.73-.65-2.59-3.05-5.23-6.07-7.77-9.16-5.86-7.17-10.74-14.87-13.01-24.01-.88-3.55-1.15-7.1-.55-10.66,1.4-8.24,8.24-11.93,16.04-8.8,3.6,1.45,6.64,3.71,9.28,6.5,6.35,6.72,12.11,13.83,14.78,22.93,.32,1.1,.32,2.69,2.48,2.52-.37-11.5-3.74-22.05-9.25-31.97-1.42-2.55-3.4-4.72-5.68-6.58-4.93-4.02-10.5-5.91-16.87-4.97-3.11,.45-6.13,1.26-9.03,2.51-4.53,1.94-7.81,5.15-9.97,9.54-3.73,7.55-3.81,15.32,0,22.67,6.31,12.15,15.28,22.03,27.17,29.08,.81,.48,1.64,.66,2.52,.27ZM8.92,230.29c-1.16,2.09-.93,3.68-.93,5.22-.04,9.4-.1,18.81-.04,28.21,.11,18.36,.15,36.72,1.4,55.05,.21,3.11,.83,6.2,1.16,9.31,.4,3.67,2.39,5.39,6.03,6,5.35,.88,10.71,.76,16.07,.88,26.64,.61,53.29-.04,79.92,1.11,.89,.04,1.79,.05,2.69,.03,3.11-.08,3.58-.53,3.45-3.46-.28-5.81-.68-11.62-.86-17.44-.77-24.17-.84-48.35-.72-72.53,0-1.57,.02-3.14-.08-4.7-.08-1.24-.79-2.05-2.09-2.18-.89-.09-1.78-.14-2.68-.15-14.1-.23-28.2-.53-42.29-1.34-13.41-.77-26.84-1.1-40.25-1.92-6.9-.42-13.86-.51-20.78-2.09Zm135.42,105.38c2.05,1.17,3.88,.81,5.65,.86,22.18,.59,44.35,.41,66.52-.27,4.91-.15,9.83-.67,14.71-1.31,5.62-.73,9.41-3.83,11.05-9.39,1.34-4.53,2.22-9.15,2.54-13.85,1.54-22.35,2.44-44.73,2.97-67.13,.03-1.34,.03-2.69-.12-4.02-.1-.94-.77-1.69-1.71-1.81-1.77-.23-3.56-.37-5.35-.39-6.72-.06-13.44,0-20.16-.1-21.28-.31-42.56,.18-63.83-.85-2.58-.13-3.22,.43-3.4,3.01-.44,6.25-.77,12.52-1.11,18.78-.63,11.85-1.13,23.72-1.89,35.56-.63,9.83-1.81,19.62-3.58,29.32-.72,3.91-1.55,7.81-2.3,11.58ZM62.07,193.95v.31c10.29,.4,20.58,.9,30.88,1.17,6.71,.18,13.44,.04,20.16,0,2.09-.02,2.59-.61,2.67-2.91,.05-1.34,0-2.69,0-4.03-.04-10.75-.13-21.51-.1-32.26,.02-7.84,.21-15.68,.28-23.52,.02-2.68-.47-3.17-3.04-3.27-1.79-.07-3.59,.1-5.37-.05-2.37-.2-3.65,1.01-4.81,2.88-3.79,6.08-7.69,12.09-11.56,18.12-2.67,4.16-5.67,8.07-9.06,11.66-5.4,5.71-11.56,10.59-17.46,15.75-.5,.44-1.05,.86-1.64,1.16-1.02,.51-2.1,.81-3.19,.13-1.08-.67-1.41-1.71-1.19-2.88,.33-1.76,.72-3.51,1.16-5.24,.67-2.6,1.47-5.16,2.12-7.77,.33-1.32-.51-2.23-1.86-1.97-3.96,.75-7.88,1.65-11.84,2.4-1.75,.33-3.53,.53-5.3,.62-.9,.04-1.72-.49-2.01-1.47-.28-.93-.04-1.81,.67-2.43,.83-.73,1.77-1.34,2.7-1.96,9.2-6.19,17.06-13.77,23.71-22.63,.94-1.25,1.8-2.57,2.63-3.9,.51-.82,.01-1.95-.89-2.02-1.56-.13-3.12-.23-4.69-.24-15.46-.07-30.92-.22-46.37-.15-8.53,.04-8.56-1.04-8.86,8.29-.53,16.79-.85,33.59-1.22,50.39-.12,5.2-.03,5.25,5.12,5.37,1.79,.04,3.58,0,5.38,0,14.34,.15,28.67,.3,43.01,.45Zm136.31-65.06c2.9,6.22,5.73,12.03,8.34,17.94,3.61,8.19,7.26,16.36,11.94,24.02,.7,1.14,1.3,2.37,1.7,3.64,.34,1.07,.23,2.22-.74,3.07-.91,.8-1.97,1.13-3.09,.62-1.62-.74-3.25-1.5-4.76-2.43-3.43-2.11-6.75-4.41-10.2-6.48-1.44-.87-2.91-2.99-4.64-1.78-1.51,1.05-.63,3.32-.54,5.04,.2,3.57,.61,7.13,.92,10.69,.23,2.67,.59,5.35,.61,8.02,.01,2.5-2.85,3.86-4.85,2.4-.88-.65-1.64-1.51-2.34-2.37-11.86-14.44-21.94-29.96-28.57-47.54-1.42-3.77-2.91-7.51-4.38-11.26-.32-.82-.62-1.71-1.17-2.36-.37-.43-1.17-.64-1.78-.65-.66-.02-1.27,.44-1.34,1.19-.12,1.33-.21,2.67-.19,4.01,.32,19.69,.66,39.39,.99,59.08,0,.22,0,.45,.01,.67,.17,3.04,.4,3.27,3.55,3.61,17.59,1.88,35.21,3.22,52.89,3.66,10.75,.26,21.45,1.24,32.13,2.39,5.87,.63,5.91,.73,5.91-5.35,.01-19.92-.02-39.84-.04-59.76,0-8.27-.74-9.29-8.95-10.06-13.38-1.26-26.81-1.16-40.23-.64-.19,0-.36,.19-1.19,.64Zm-51.74,20.1c.18-12.21-.95-23.6-.45-35.02,.19-4.23-.29-8.49-.6-12.73-.19-2.58-1.36-3.68-3.87-3.63-4.47,.09-8.95,.32-13.42,.56-4.39,.23-4.79,.6-5.37,5.11-.23,1.77-.26,3.57-.35,5.36-.24,4.69-.28,9.4-.71,14.08-.86,9.37-1.16,18.75-1.14,28.16,.02,6.71-.21,13.43-.19,20.14,.02,7.16,.12,14.32,.33,21.48,.09,3.13,.6,3.58,3.52,3.71,6.93,.32,13.87,.58,20.8,.81,2.54,.08,3.04-.39,3.07-3.19,.05-4.7,.07-9.41-.12-14.1-.44-10.51-1.01-21.02-1.5-30.73Zm-81.58,76.89c0-.11,.01-.22,.02-.32,10.05,.52,20.09,1.09,30.14,1.55,6.03,.28,12.07,.45,18.1,.56,3.41,.06,3.77-.31,3.77-3.9,0-4.92-.08-9.84-.29-14.75-.19-4.43-.51-4.71-5.27-4.89-3.57-.14-7.15-.05-10.73-.07-3.35-.02-6.71,.09-10.06-.12-22.32-1.36-44.65-2.41-67.01-2.95-3.57-.09-7.16-.05-10.73,.05-1.96,.06-2.89,.9-3.07,2.84-.32,3.56-.46,7.14-.67,10.71-.49,8.35-.43,8.5,8.21,8.96,15.85,.84,31.71,1.56,47.57,2.33Zm132.33,4.78c17.4,.74,30.58,1.3,43.76,1.85,1.12,.05,2.24,.06,3.35,0,2.96-.14,3.7-.68,3.84-3.49,.22-4.24,.29-8.49,.26-12.74-.02-2.83-.57-3.31-3.69-3.57-6.68-.56-13.37-1.04-20.06-1.53-12.26-.89-24.53-1.7-36.78-2.68-6.46-.51-12.88-1.39-19.33-1.96-4.01-.36-8.03-.47-12.05-.67-1.67-.08-2.46,.89-2.51,2.43-.18,6.03-.35,12.07-.42,18.1-.02,1.96,.72,2.62,2.95,2.81,3.12,.27,6.25,.46,9.37,.56,11.84,.36,23.69,.66,31.31,.87Zm-74.91,56.78c.39,10.18,.74,24.97,1.62,39.72,.56,9.48,.44,8.64,10.05,9.14,.22,.01,.45,0,.67,0,1.5,.03,2.59-.53,2.99-2.08,.22-.87,.49-1.73,.65-2.6,2.05-10.79,3.61-21.64,4.34-32.61,.58-8.72,1.42-17.42,1.98-26.14,.67-10.51,1.2-21.03,1.73-31.54,.21-4.13,.03-4.28-3.87-4.48-5.37-.27-10.74-.49-16.12-.72-.67-.03-1.35-.06-2.01,.05-.92,.15-1.73,.6-1.83,1.63-.13,1.33-.19,2.68-.19,4.02-.01,13.67,0,27.34,0,45.61Zm85.36-121.05c.13-.74,.39-1.24,.25-1.56-4.79-10.85-9.32-21.82-14.98-32.26-5.9-10.88-12.99-20.9-22.01-29.47-4.01-3.81-8.2-6.98-14.23-6.01-.85,.14-1.76-.24-2.65-.3-1.36-.08-2.22,.87-1.73,2.06,1.43,3.52,2.96,7,4.46,10.49,3.27,7.6,6.94,15.01,9.34,22.99,4.61,15.35,11.67,29.53,20.99,42.58,.52,.73,.98,1.51,1.57,2.17,.24,.27,.76,.38,1.16,.42,.51,.05,.75-.32,.73-.89-.06-2.24-.09-4.47-.16-6.71-.09-2.46-.39-4.93-.28-7.38,.14-3.18,2.8-4.73,5.7-3.41,1.41,.64,2.65,1.66,3.99,2.46,2.59,1.56,4.87,3.69,7.85,4.81ZM95.22,100.26c-1.3-1.24-2.92-.6-4.38-.56-10.07,.34-20.13,.39-30.21,.12-9.17-.25-18.35-.34-27.52-.39-5.15-.03-10.3,.1-15.44,.32-5.05,.21-6.03,1.09-6.33,5.78-.31,4.91-.4,9.83-.51,14.75-.05,2.01,.68,2.58,2.95,2.59,.89,0,1.79-.08,2.68-.1,14.32-.31,28.64-.62,42.96-.93,4.7-.1,9.4-.35,14.09-.3,2.71,.03,4.55-.8,6.15-3.12,4.08-5.91,8.89-11.21,14.25-16.02,.62-.55,1.51-1,1.3-2.14Zm42.58-11.67c3.61-.35,7.19-.56,10.74-1.05,15.98-2.21,30.76-7.71,44.36-16.38,2.9-1.85,5.07-4.34,6.63-7.42,4.73-9.31-2.06-20.49-12.54-20.63-3.45-.05-6.62,.92-9.72,2.28-6.88,3.02-12.73,7.5-17.8,12.96-8.07,8.7-16.02,17.52-24.01,26.3-.6,.65-1.13,1.38-1.58,2.15-.39,.67-.09,1.39,.61,1.54,1.08,.22,2.22,.19,3.3,.26Zm36.18,8.54c4.02,4.37,7.16,7.52,9.98,10.93,2.85,3.44,5.42,7.12,8.06,10.74,.89,1.22,2.05,1.67,3.46,1.64,1.57-.04,3.13-.17,4.7-.21,11.87-.26,23.73-.4,35.59,.52,4.97,.39,9.76,1.24,14.17,3.7,.31,.17,.85-.07,1.45-.14,.64-5.32,.28-10.67,.04-16.02-.41-9.21-.45-9.23-9.58-9.77-17.89-1.05-35.81-1.27-53.73-1.39-4.23-.03-8.46,0-14.13,0Zm-118.13,60.07c2.67-.47,5.23-1.02,7.82-1.33,2.43-.29,3.96,1.06,3.81,3.48-.16,2.65-.68,5.28-1.08,8.23,3.06-1.05,4.96-3.28,6.84-5.34,8-8.76,15.55-17.9,22.21-27.75,7.14-10.57,13.32-21.72,19.87-32.65,.53-.89,1.3-1.81,.57-3.01-3.53-.84-6.53,.31-9.43,2.29-7.45,5.09-14.11,11.02-19.65,18.14-3.71,4.77-7.35,9.59-10.75,14.58-4.95,7.26-10.63,13.82-17.28,19.56-1.14,.98-2.73,1.66-2.92,3.8ZM120.04,80.61c-.85-5.38-1.55-9.77-2.24-14.16-2.06-13.19-9.92-22.73-19.74-30.93-2.12-1.77-4.7-4.32-7.73-2.28-2.68,1.81-2.4,5.09-2.07,8.01,.48,4.28,2.01,8.21,4.09,11.97,5,9.04,15.82,19.94,27.69,27.39Zm14.24,124.12s0-.09,0-.14c-3.35,0-6.71-.04-10.06,.02-2.17,.04-2.73,.66-2.64,2.89,.25,5.81,.54,11.62,.87,17.42,.14,2.56,.63,3.17,3.21,3.29,6.25,.28,12.52,.45,18.78,.56,2.18,.04,2.89-.55,3-2.71,.3-6.03,.43-12.06,.6-18.1,.05-1.61-.81-2.54-2.37-2.64-3.79-.25-7.59-.41-11.39-.6Zm-2.37-127.95c1.5-1.06,2.17-1.33,2.52-1.82,3.41-4.71,6.97-9.34,10.1-14.23,4.78-7.47,7.33-15.79,8.49-24.55,.51-3.88-.19-7.6-1.81-11.12-.85-1.85-1.99-3.59-4.42-3.53-2.09,.05-3.12,1.54-4,3.15-1.73,3.17-2.77,6.6-3.55,10.1-3.05,13.53-4.83,27.28-7.34,42Zm27.74-37.55c4.7-8.38,6.03-17.21,4.37-26.47-.32-1.78-1.49-3.24-2.78-4.51-3.47-3.42-7.67-4.4-12.36-3.64-8.31,1.35-13.64,6.42-16.63,13.98-3.16,7.98-3.47,16.33-2.71,25.63,1.56-2.7,1.95-4.84,2.46-6.97,1.1-4.57,2.59-9.02,4.58-13.29,.95-2.03,1.98-4.02,3.57-5.64,4.53-4.62,10.54-4.23,14.47,.94,1.51,2,2.27,4.32,2.91,6.72,1.15,4.34,1.18,8.79,2.15,13.25Zm-49.57,81.46c1.21,.73,2.55,.52,3.84,.47,2.26-.08,2.95-.58,2.83-2.64-.16-2.64,1.11-5.55-1.18-7.88-2.32,1.53-3.07,4.16-4.43,6.37-.68,1.11-1.42,2.24-1.06,3.67Z"/></svg>