<?xml version="1.0" encoding="UTF-8"?><svg id="Modo_de_aislamiento" xmlns="http://www.w3.org/2000/svg" viewBox="0 0 335.11 345.73"><defs><style>.cls-1{fill:#4e4d4d;}</style></defs><path class="cls-1" d="M47.67,278.37c.05,.42,.18,.82,.37,1.19,.02,.04,.04,.09,.06,.13,.19,.34,.43,.64,.71,.91,.04,.04,.08,.08,.13,.12,.29,.25,.61,.44,.97,.59,.06,.03,.12,.05,.18,.07,.31,.11,.64,.2,.99,.22,2.11,.14,4.41,.19,6.82,.19,7.42,0,15.82-.54,22.38-.97l.88-.06c.07,0,.13-.03,.2-.03,.1-.01,.21-.03,.31-.05,.14-.03,.27-.06,.4-.1,.11-.03,.21-.08,.31-.12,.11-.05,.22-.1,.32-.15,.12-.06,.23-.13,.33-.21,.08-.05,.15-.11,.23-.17,.12-.1,.22-.2,.33-.31,.05-.06,.11-.11,.16-.18,.1-.12,.19-.25,.27-.38,.04-.07,.09-.14,.13-.21,.07-.13,.13-.26,.18-.4,.04-.09,.07-.19,.1-.28,.04-.12,.07-.25,.09-.38,.02-.12,.04-.24,.05-.36,0-.06,.02-.11,.02-.17,.6-12.79,.67-26.31-2.83-38.53-2.44-8.54-7.14-13.84-13.21-14.92-5.35-.95-11.11,1.74-14.71,6.84-2.88,4.08-4.04,8.95-4.86,13.61-2.1,11.91-2.55,23.38-1.33,34.08,0,0,0,.02,0,.03Zm7.01-3.98c-.49-6.11-.41-12.48,.23-19.04,3.47-.5,6.95-.76,10.43-.77,.25,6.57,.66,13.12,1.21,19.65-4.1,.17-8.21,.26-11.86,.17Zm22.7-.76c-2.64,.17-5.47,.34-8.38,.48-.54-6.48-.96-12.98-1.2-19.5,3.13,.09,6.26,.38,9.38,.86,.47,5.99,.44,12.12,.21,18.16Zm-2.69-32.88c1.12,3.9,1.81,8,2.25,12.19-3.07-.45-6.15-.71-9.24-.79-.22-7.01-.26-14.02-.14-20.99,4.22,1.01,6.39,7,7.13,9.59Zm-18.45,4.79c.78-4.41,1.7-7.91,3.63-10.65,1.37-1.94,3.33-3.29,5.24-3.74-.12,6.97-.08,13.96,.14,20.96-3.36,.02-6.72,.25-10.07,.71,.28-2.4,.63-4.83,1.06-7.28Z"/><path class="cls-1" d="M236.24,273.72c.05,.42,.18,.82,.37,1.19,.02,.04,.04,.09,.06,.13,.19,.34,.43,.64,.71,.91,.04,.04,.08,.08,.13,.12,.29,.24,.61,.44,.97,.59,.06,.03,.12,.05,.18,.07,.31,.11,.64,.2,.99,.22,2.11,.14,4.42,.19,6.83,.19,7.42,0,15.82-.54,22.38-.97l.88-.06s.08-.02,.12-.02c.19-.02,.38-.05,.56-.09,.03,0,.06-.01,.09-.02,.92-.25,1.67-.84,2.14-1.64,.02-.03,.03-.05,.04-.08,.09-.16,.16-.32,.23-.49,.03-.08,.06-.16,.08-.24,.04-.13,.07-.26,.1-.4,.02-.12,.04-.24,.05-.36,0-.06,.02-.11,.02-.17,.6-12.79,.66-26.31-2.83-38.53-2.45-8.54-7.14-13.84-13.21-14.91-5.35-.96-11.11,1.74-14.7,6.84-2.88,4.08-4.04,8.95-4.86,13.61-2.11,11.91-2.55,23.38-1.33,34.08,0,0,0,.02,0,.03Zm7.01-3.98c-.48-5.98-.41-12.2,.19-18.62,3.04-.39,6.09-.67,9.15-.77,.08,6.45,.3,12.89,.63,19.3-3.46,.12-6.88,.18-9.97,.09Zm22.7-.76c-3.21,.21-6.73,.41-10.28,.57-.33-6.4-.55-12.82-.64-19.25,3.57-.04,7.14,.1,10.7,.44,.47,6.01,.44,12.17,.22,18.24Zm-2.69-32.88c1.11,3.89,1.81,7.98,2.25,12.17-3.49-.32-7-.46-10.5-.42-.06-7.12,.02-14.25,.26-21.33,.02-.04,.02-.1,.03-.15,.18,.01,.36,0,.53,.04,4.42,.78,6.66,7.04,7.42,9.69Zm-18.45,4.79c.63-3.56,1.48-7.61,3.63-10.65,1.17-1.66,2.77-2.89,4.4-3.49-.24,7.02-.35,14.07-.29,21.13-2.96,.1-5.91,.36-8.86,.72,.29-2.55,.66-5.12,1.12-7.72Z"/><path class="cls-1" d="M143.23,195.27c.05,.42,.18,.82,.37,1.19,.02,.04,.04,.09,.06,.13,.19,.34,.43,.64,.71,.91,.04,.04,.08,.08,.13,.12,.29,.25,.61,.44,.97,.59,.06,.03,.12,.05,.18,.07,.31,.11,.64,.2,.99,.22,2.11,.14,4.41,.19,6.82,.19,7.42,0,15.82-.54,22.38-.97l.88-.06s.09-.02,.14-.02c.17-.02,.33-.04,.49-.08,.06-.02,.13-.03,.19-.05,.19-.05,.36-.12,.54-.21,.03-.02,.07-.03,.1-.05,.18-.09,.35-.2,.52-.33,.02-.02,.05-.04,.07-.06,.16-.12,.3-.26,.43-.41,.03-.03,.06-.06,.09-.1,.11-.14,.22-.28,.31-.43,.04-.06,.07-.12,.11-.18,.07-.13,.13-.27,.19-.41,.04-.09,.07-.19,.1-.29,.04-.12,.06-.24,.09-.37,.02-.12,.04-.24,.05-.37,0-.06,.02-.11,.02-.17,.6-12.79,.66-26.31-2.83-38.53-2.44-8.54-7.14-13.84-13.22-14.92-5.34-.93-11.11,1.74-14.7,6.84-2.88,4.08-4.04,8.96-4.86,13.61-2.1,11.91-2.55,23.38-1.33,34.08,0,0,0,.02,0,.03Zm7.01-3.98c-.46-5.73-.42-11.69,.11-17.83,3.14-.66,6.34-1.08,9.56-1.25l-1.22,19.04c-2.94,.08-5.81,.12-8.45,.05Zm22.7-.76c-3.67,.23-7.73,.48-11.78,.64l1.22-19.07c3.48-.06,6.95,.17,10.38,.67,.43,5.86,.4,11.86,.18,17.76Zm-2.69-32.88c1.15,4.03,1.87,8.26,2.3,12.6-3.31-.45-6.66-.65-10.02-.6l1.37-21.33c3.7,1.52,5.65,6.9,6.35,9.33Zm-18.45,4.79c.78-4.41,1.7-7.91,3.63-10.65,1.57-2.23,3.92-3.67,6.08-3.86-.01,.06-.04,.12-.05,.19l-1.39,21.63c-3.19,.16-6.36,.55-9.48,1.16,.3-2.79,.7-5.61,1.21-8.46Z"/><path class="cls-1" d="M334.83,311.29c-.89-5.44-4.02-10.14-8.39-12.58-2.83-1.58-6.06-2.12-9.07-1.66-.33-3.59-1.66-7.45-3.98-11.55-1.79-3.16-4.72-7.62-9.55-9.89-1.13-.53-2.33-.91-3.59-1.17,.42-18.85,2.71-37.7,6.82-56.1l16.52,7.66s.08,.02,.12,.04c.04,.02,.08,.04,.12,.06,.04,.02,.09,0,.13,.02,.39,.13,.78,.22,1.17,.22h.02c.35,0,.7-.06,1.04-.16,.11-.03,.22-.1,.33-.15,.22-.09,.43-.17,.63-.3,.12-.08,.21-.18,.32-.27,.17-.14,.33-.27,.47-.44,.1-.12,.17-.26,.26-.4,.09-.14,.2-.26,.27-.42,.02-.05,.03-.11,.06-.16,.01-.03,.03-.05,.05-.08,.67-1.76,1.34-3.72,2.01-5.68,.64-1.88,1.28-3.76,1.92-5.44,.65-1.71-.06-3.58-1.59-4.47-.21-.17-.44-.32-.69-.44l-116.26-55.82c.75-9.77,1.72-19.44,2.94-28.99,3.73,.77,7.46,1.54,11.17,2.39,.08,.02,.15,.01,.23,.03,.11,.02,.22,.05,.34,.06,.09,0,.17,0,.25,0,.39,0,.77-.08,1.12-.19,.04-.01,.09-.02,.13-.04,.34-.12,.65-.3,.93-.51,.05-.04,.1-.07,.15-.11,.27-.23,.51-.49,.71-.78,.03-.05,.06-.1,.09-.15,.19-.32,.34-.66,.43-1.03,0-.02,.01-.03,.02-.04,.02-.09,.02-.17,.03-.26,.02-.1,.04-.2,.05-.31,.11-1.67,.7-4.25,1.26-6.75,.61-2.73,1.25-5.55,1.41-7.78v-.06s0-.03,.01-.04c0-.09,0-.17,0-.26,0-.15,0-.3-.01-.45-.01-.12-.05-.23-.07-.34-.03-.12-.05-.24-.08-.35-.04-.12-.1-.23-.15-.34-.05-.1-.08-.21-.14-.3-.06-.1-.13-.2-.2-.29-.07-.1-.13-.2-.21-.29-.07-.09-.16-.16-.24-.24-.09-.09-.17-.18-.27-.26-.1-.08-.2-.14-.31-.2-.1-.06-.18-.13-.29-.18-.14-.07-.29-.12-.43-.18-.08-.03-.14-.07-.22-.09h-.05l-.02-.02c-4.91-1.44-9.83-2.8-14.78-4.07-9.53-34.57-21.35-67.4-32.76-97.77v-.18c-.82-.35-1.49-.89-2.01-1.54-.3-.05-.58-.11-.85-.19-.18,.07-.36,.14-.56,.19-.53,.07-1.06,.14-1.6,.21-.29,.01-.57-.01-.84-.05-.31,.11-.62,.18-.95,.23-.34,.58-.77,1.09-1.3,1.52-21.04,26.39-40.36,54.49-57.44,83.6-5.77-.18-11.55-.25-17.34-.2-2.03,.02-3.67,1.68-3.65,3.71,0,.22,.03,.44,.07,.65-.77,5.86-.65,11.77,.39,17.59,.1,.55,.34,1.03,.65,1.45,.6,1.21,1.83,2.06,3.27,2.07,3.72,.03,7.45,.13,11.17,.23-1.92,16.32-3.37,32.68-4.39,49.07L2.41,208.58c-1.07,.48-1.78,1.42-2.05,2.48-.49,1.02-.51,2.24,.06,3.31l5.96,11.23c.66,1.25,1.94,1.96,3.25,1.96,.58,0,1.17-.14,1.72-.43,.07-.04,.13-.09,.2-.13l8.05-3.49,6.31,79.25c-2.01,1.99-3.61,4.4-4.59,7.05-1.53-.5-3.18-.76-4.84-.72-3.82,.07-7.41,1.61-9.85,4.21-2.44,2.6-3.75,6.29-3.58,10.1,.13,2.91,1.11,5.65,2.75,7.85,.24,1.55,1.45,2.84,3.08,3.08,50.93,7.57,97.59,11.38,143.75,11.38,57.47,0,114.14-5.93,177.12-17.92,.55-.11,1.05-.34,1.48-.65,.72-.39,1.32-1.01,1.65-1.83,2.01-4.93,2.66-9.65,1.95-14.04Zm-10.33-97.94c-.29,.84-.59,1.7-.88,2.56-.2,.57-.39,1.14-.59,1.71l-52.19-24.2,.45-1.49c.19-.65-.17-1.33-.82-1.53-.65-.2-1.33,.17-1.53,.82l-.34,1.15-2.61-1.21,.94-2.44c.24-.63-.07-1.34-.7-1.59-.63-.24-1.34,.07-1.59,.7l-.88,2.28-50.71-23.51c.12-2.21,.21-4.42,.35-6.62l111.12,53.35ZM180.12,9.9c5.01,13.41,10.06,27.25,14.93,41.51-.97-.03-1.94,.1-2.85,.42-.64,.22-.98,.92-.75,1.56,.23,.64,.93,.98,1.56,.75,.92-.32,1.95-.37,2.91-.18,.84,2.47,1.67,4.95,2.49,7.44l-4.41,.28c-.68,.04-1.19,.63-1.15,1.3,.04,.65,.58,1.15,1.22,1.15,.03,0,.05,0,.08,0l5.06-.32c3.63,11.06,7.09,22.36,10.32,33.84-26.83-6.38-54.17-10.26-81.7-11.62,15.71-26.43,33.26-51.99,52.29-76.14ZM105.83,103.67c-.46-3.59-.52-7.2-.19-10.81,41.22,.03,82.19,5.74,121.82,17.1-.24,1.21-.53,2.53-.83,3.84-.28,1.24-.56,2.49-.8,3.7-8.48-1.88-17-3.58-25.56-5.08,.24-1.02,.67-2,1.34-2.82,.43-.53,.34-1.3-.18-1.73-.53-.42-1.3-.34-1.73,.19-.92,1.14-1.52,2.5-1.83,3.93-.53-.09-1.06-.16-1.58-.25l.43-1.43c.19-.65-.17-1.33-.82-1.53-.66-.2-1.33,.17-1.53,.82l-.52,1.74c-22.58-3.69-45.38-6.06-68.23-7.11l.42-5.6c.05-.68-.46-1.27-1.13-1.32-.66-.08-1.27,.46-1.32,1.13l-.43,5.67c-.67-.03-1.34-.07-2.01-.1l.12-1.72c.05-.68-.47-1.26-1.14-1.31-.69-.06-1.26,.46-1.31,1.14l-.12,1.77c-4.29-.15-8.58-.21-12.87-.26ZM11.27,219.11l-2.76-5.2,100.62-45.34c-.15,2.77-.27,5.55-.39,8.32l-39.29,17.02-1.52-2.88c-.32-.6-1.07-.83-1.66-.51-.6,.32-.83,1.06-.51,1.66l1.43,2.7-3.69,1.6-2.21-3.07c-.4-.55-1.16-.68-1.71-.28-.55,.4-.68,1.16-.28,1.71l1.9,2.64-49.93,21.62Zm57.61,114.28c-.21,.26-.37,.54-.51,.83-18.27-1.74-36.93-4.01-56.21-6.84-1.03-1.07-1.67-2.59-1.74-4.28-.08-1.84,.5-3.57,1.59-4.74,1.09-1.16,2.78-1.85,4.63-1.89,1.83,.02,3.56,.59,4.7,1.71,.21,.21,.45,.36,.69,.51-1.14,1.06-2.15,2.28-2.93,3.64-.34,.58-.14,1.34,.45,1.68,.19,.11,.41,.17,.61,.17,.42,0,.84-.22,1.06-.61,2.79-4.82,8.59-7.63,14.09-6.83,.67,.08,1.29-.37,1.39-1.04,.1-.67-.37-1.29-1.04-1.39-2.71-.39-5.47,0-8.01,.96,.36-5.38,5.36-10.41,10.76-10.65,5.59-.2,11.12,4.54,11.74,10.04,.14,1.23,.88,2.31,1.98,2.87,1.1,.57,2.41,.54,3.48-.07,4.22-2.38,10.18-1.28,13.28,2.44,3.1,3.73,3.09,9.79-.03,13.51Zm7.68,1.56c3.19-6.24,2.55-14.31-1.99-19.77-4.35-5.23-11.71-7.42-18.23-5.85-2.88-7.2-10.39-12.47-18.25-12.08-1.77,.08-3.5,.46-5.14,1.05l-3.26-40.93,8.83,.05h0c.67,0,1.22-.54,1.23-1.22,0-.68-.54-1.23-1.22-1.23l-9.04-.06-.43-5.45h3.59c.68,0,1.23-.55,1.23-1.23s-.55-1.23-1.23-1.23h-3.78l-2.12-26.58,81.67-35.37c-.63,18.15-.73,36.32-.26,54.47l-4.46-.3c-.66-.03-1.26,.47-1.31,1.14-.05,.68,.47,1.26,1.14,1.31l4.7,.31c.03,.97,.07,1.95,.1,2.92l-1.22-.18c-.69-.07-1.29,.37-1.39,1.04-.1,.67,.37,1.29,1.04,1.39l1.66,.24c1.04,30.13,3.57,60.21,7.63,90.12-13.02-.56-26.16-1.42-39.49-2.58Zm107.6-37.94l-.13,1.86c-.89,12.89-1.03,25.95-.46,38.87-9.5,.36-19,.55-28.51,.58-1.91-9.73-3.79-19.76-4.3-29.69-.59-11.52,.81-21.67,4.16-30.18,1.62-4.1,3.47-7.19,5.68-9.46,2.5-2.57,5.63-4.14,8.58-4.31,3.85-.23,7.96,1.9,10.74,5.52,2.52,3.29,4.04,7.7,4.51,13.12,.39,4.45,.07,8.94-.27,13.69Zm6.76,40.44c-.56-12.66-.43-25.45,.45-38.08l.13-1.84c.35-4.83,.71-9.82,.26-14.86-.6-6.83-2.62-12.54-6-16.95-4.24-5.53-10.77-8.73-17-8.4-4.85,.28-9.62,2.6-13.45,6.53-2.9,2.98-5.27,6.87-7.25,11.9-3.74,9.49-5.31,20.68-4.67,33.26,.51,9.95,2.3,19.77,4.15,29.31-7.98-.05-16-.24-24.05-.52-1.49-10.86-2.76-21.75-3.84-32.65l8.82-1.66c.67-.12,1.1-.77,.98-1.43-.12-.67-.77-1.09-1.43-.98l-8.6,1.62c-.12-1.23-.24-2.45-.36-3.68,2.38-.03,4.74-.56,6.91-1.58,.61-.29,.88-1.02,.59-1.63-.29-.61-1.03-.88-1.63-.59-1.92,.9-4,1.34-6.11,1.33-4.29-47.61-4.75-95.51-1.38-143.19l5.28,.08h.02c.67,0,1.22-.54,1.23-1.21,.01-.68-.53-1.24-1.21-1.25l-5.13-.08c.08-1.11,.18-2.23,.26-3.34l2.91,.19s.06,0,.08,0c.64,0,1.18-.5,1.22-1.15,.04-.68-.47-1.26-1.14-1.31l-2.88-.19c.9-11.25,1.99-22.48,3.32-33.69,29.62,1.15,59.17,4.58,88.26,10.23-.23,1.77-.44,3.56-.65,5.34l-7.3-1.95c-.65-.15-1.33,.22-1.5,.87-.17,.65,.21,1.33,.87,1.5l7.63,2.04c-.17,1.5-.35,3-.51,4.51-2.17-.68-4.41-1.14-6.69-1.32-.66-.07-1.27,.45-1.32,1.12-.05,.68,.45,1.27,1.13,1.32,2.27,.18,4.49,.65,6.64,1.36-2.88,28.21-3.78,57.35-2.72,86.91l-4.68-.97c-.66-.16-1.31,.29-1.45,.95-.14,.66,.29,1.31,.95,1.45l5.26,1.1c.05,1.36,.12,2.73,.18,4.09-2.44-.52-4.94-.8-7.42-.78-.68,.01-1.22,.57-1.2,1.25,.01,.67,.56,1.21,1.23,1.21h.02c2.5-.02,5.04,.28,7.51,.86,1.69,34.18,5.98,68.83,12.85,103.17-9.23,.73-18.42,1.34-27.57,1.76Zm57.04-12.93c.02,2.95,.95,5.74,2.46,8.08-8.23,.95-16.41,1.79-24.53,2.51-8.2-40.74-12.76-81.94-13.59-122.23l6.35,.31s.04,0,.06,0c.65,0,1.19-.51,1.22-1.17,.03-.68-.49-1.25-1.16-1.28l-6.5-.32c-.04-2.2-.06-4.39-.07-6.58l15.97,1.45s.07,0,.11,0c.63,0,1.16-.48,1.22-1.12,.06-.68-.44-1.27-1.11-1.33l-16.22-1.47c-.03-8.99,.14-17.94,.49-26.81l87.6,40.61c-.03,.09-.07,.17-.09,.26-1.87,8.2-3.37,16.5-4.53,24.85l-4.04-.25c-.72-.07-1.26,.47-1.3,1.15-.04,.68,.47,1.26,1.15,1.3l3.87,.24c-1.37,10.49-2.18,21.05-2.42,31.61-1.31,.2-2.65,.49-4.05,.9-8.22,2.4-14.97,7.31-18.99,13.81-3.04,4.92-4.32,10.73-3.75,16.18-.75-.02-1.49,.03-2.24,.15-3.05,.47-6.01,1.97-8.81,4.45-4.55,4.04-7.13,9.4-7.09,14.69Zm78.68-3.63c-22.83,4.32-44.82,7.79-66.34,10.5-.11-.04-.2-.09-.31-.12-2.59-.68-4.64-3.67-4.66-6.81-.02-3.13,1.71-6.54,4.62-9.13,1.7-1.5,3.44-2.43,5.04-2.68,1.53-.24,3.09,.21,3.89,1.12,.68,.77,1.61,1.15,2.57,1.2-.6,1.23-1.05,2.54-1.31,3.89-.12,.67,.32,1.31,.98,1.43,.08,.01,.15,.02,.23,.02,.58,0,1.1-.41,1.21-1,.9-4.83,4.66-9.03,9.36-10.45,.65-.2,1.02-.88,.82-1.53-.2-.65-.88-1.02-1.53-.82-2.3,.69-4.39,1.97-6.15,3.61-.05-.16-.06-.32-.14-.47-2.52-4.93-2.05-11.5,1.2-16.74,3.02-4.88,8.41-8.75,14.8-10.62,4.03-1.18,7.34-1.19,9.81-.03,2.23,1.04,4.22,3.22,6.27,6.84,2.85,5.04,3.75,9.3,2.66,12.65-.52,1.59,.1,3.33,1.51,4.23,1.41,.91,3.24,.75,4.48-.38,1.75-1.6,4.85-1.81,7.22-.49,2.39,1.33,4.19,4.14,4.71,7.34,.41,2.52,.06,5.41-.93,8.42Z"/><path class="cls-1" d="M193.12,223.63l1.84,.35c.08,.01,.15,.02,.23,.02,.58,0,1.09-.41,1.2-1,.13-.67-.31-1.31-.98-1.43l-1.84-.35c-.67-.13-1.31,.31-1.43,.98-.13,.67,.31,1.31,.98,1.43Z"/><path class="cls-1" d="M38.16,246.63h-1.84c-.68,0-1.23,.55-1.23,1.23s.55,1.23,1.23,1.23h1.84c.68,0,1.23-.55,1.23-1.23s-.55-1.23-1.23-1.23Z"/><path class="cls-1" d="M225.32,211.23h-.02l-1.84,.04c-.68,.01-1.22,.57-1.2,1.25,.01,.67,.56,1.2,1.23,1.2h.02l1.84-.04c.68-.01,1.22-.57,1.2-1.25-.01-.67-.56-1.2-1.23-1.2Z"/><path class="cls-1" d="M292.84,294.76c.62,.26,1.34-.02,1.61-.64,.27-.62-.02-1.34-.64-1.61-2.24-.96-4.9-.8-7.27,.44-2.38,1.24-4.02,3.33-4.51,5.72-.14,.66,.29,1.31,.96,1.45,.08,.02,.17,.02,.25,.02,.57,0,1.08-.4,1.2-.98,.34-1.64,1.55-3.15,3.24-4.04,1.7-.88,3.63-1.02,5.17-.36Z"/><path class="cls-1" d="M35.49,324.63c.11,.03,.21,.04,.32,.04,.54,0,1.04-.36,1.18-.91,.58-2.16,2.95-3.75,5.17-3.43,.66,.08,1.29-.38,1.38-1.05,.09-.67-.38-1.29-1.05-1.38-3.42-.47-6.97,1.86-7.87,5.22-.18,.65,.21,1.33,.87,1.5Z"/><path class="cls-1" d="M295.55,305.22c-4.56,1.04-8.11,5.18-8.43,9.84-.05,.68,.46,1.26,1.14,1.31,.03,0,.06,0,.09,0,.64,0,1.18-.49,1.22-1.14,.25-3.55,3.06-6.83,6.53-7.62,.66-.15,1.07-.81,.92-1.47-.15-.66-.8-1.09-1.47-.92Z"/></svg>