<?xml version="1.0" encoding="UTF-8"?><svg xmlns="http://www.w3.org/2000/svg" viewBox="0 0 595.28 841.89"><defs><style>.cls-1{fill:none;}.cls-2{fill:#1d1d1b;}</style></defs><g id="Fondo"><rect class="cls-1" width="595.28" height="841.89"/></g><g id="Capa_1"><g><path class="cls-2" d="M64.91,663l7.26,14.61,7.23-14.61h4.37v21.99h-3.42l-.03-16.43-6.94,14.14h-2.42l-6.94-14.14v16.43h-3.49v-21.99h4.4Z"/><path class="cls-2" d="M106.42,663v21.99h-3.71v-21.99h3.71Z"/><path class="cls-2" d="M132.28,666.33c-2.17,0-3.58,.82-3.58,2.29,0,4.81,11.88,2.23,11.84,10.15,0,3.93-3.46,6.35-8.29,6.35-3.46,0-6.72-1.42-8.99-3.49l1.6-3.21c2.26,2.07,5.09,3.21,7.45,3.21,2.58,0,4.12-.97,4.12-2.67,0-4.9-11.88-2.17-11.88-9.99,0-3.77,3.24-6.13,8.01-6.13,2.86,0,5.65,.91,7.7,2.26l-1.54,3.27c-2.39-1.45-4.78-2.04-6.44-2.04Z"/><path class="cls-2" d="M161.72,663v9.55h11.66v-9.55h3.71v21.99h-3.71v-9.11h-11.66v9.11h-3.71v-21.99h3.71Z"/><path class="cls-2" d="M211.71,663v3.33h-12v5.97h10.74v3.3h-10.74v6.06h12.38v3.33h-16.09v-21.99h15.71Z"/><path class="cls-2" d="M233.45,663v18.63h9.52v3.36h-13.23v-21.99h3.71Z"/><path class="cls-2" d="M263.36,663v18.63h9.52v3.36h-13.23v-21.99h3.71Z"/><path class="cls-2" d="M328,685.59c-1.23-1.23-2.39-2.32-3.43-3.36-1.95,1.85-4.21,2.92-6.63,2.92-3.93,0-6.91-2.61-6.91-6.16,0-3.11,2.26-4.77,4.75-6.09-1.45-1.95-2.1-3.52-2.1-5.09,0-2.92,2.29-4.96,5.72-4.96s5.56,1.92,5.56,4.62c0,3.02-2.64,4.59-5.34,6,1.19,1.35,2.73,2.92,4.62,4.78,.75-1.13,1.41-2.45,1.98-3.96l2.36,1.76c-.66,1.57-1.41,2.99-2.29,4.18l3.58,3.49-1.85,1.89Zm-5.4-5.31c-2.2-2.2-3.96-3.99-5.34-5.56-1.82,1.04-3.24,2.2-3.24,3.99,0,2.2,1.79,3.71,4.05,3.71,1.6,0,3.14-.79,4.52-2.14Zm-4.43-8.61c2.14-1.1,3.93-2.23,3.93-4.18,0-1.45-1.04-2.39-2.67-2.39-1.76,0-2.89,1.16-2.89,2.67,0,1.16,.53,2.39,1.64,3.9Z"/><path class="cls-2" d="M378.46,666.2c-4.4,0-7.86,3.39-7.86,7.73s3.46,7.76,7.86,7.76c2.2,0,4.46-1.01,6.13-2.61l2.2,2.45c-2.23,2.2-5.4,3.61-8.52,3.61-6.44,0-11.43-4.87-11.43-11.19s5.06-11.06,11.56-11.06c3.11,0,6.22,1.29,8.36,3.39l-2.17,2.7c-1.6-1.73-3.9-2.8-6.13-2.8Z"/><path class="cls-2" d="M417.73,680.03h-11.09l-2.1,4.96h-3.86l9.71-21.99h3.8l9.61,21.99h-3.96l-2.1-4.96Zm-1.41-3.3l-4.15-9.77-4.15,9.77h8.29Z"/><path class="cls-2" d="M453.8,684.99l-4.02-6.66c-.31,.03-.66,.03-1.01,.03h-5.22v6.63h-3.71v-21.99h8.92c5.62,0,8.86,2.73,8.86,7.51,0,3.52-1.63,6-4.56,7.13l4.93,7.35h-4.21Zm-5.03-9.96c3.39,0,5.34-1.44,5.34-4.43s-1.95-4.27-5.34-4.27h-5.22v8.7h5.22Z"/><path class="cls-2" d="M479.41,663v18.63h9.52v3.36h-13.23v-21.99h3.71Z"/><path class="cls-2" d="M527.1,674c0,6.28-5.09,11.15-11.65,11.15s-11.66-4.87-11.66-11.15,5.09-11.09,11.66-11.09,11.65,4.81,11.65,11.09Zm-19.54,0c0,4.37,3.61,7.82,7.92,7.82s7.82-3.46,7.82-7.82-3.52-7.76-7.82-7.76-7.92,3.39-7.92,7.76Z"/><path class="cls-2" d="M551.14,666.33c-2.17,0-3.58,.82-3.58,2.29,0,4.81,11.87,2.23,11.84,10.15,0,3.93-3.46,6.35-8.29,6.35-3.46,0-6.72-1.42-8.99-3.49l1.6-3.21c2.26,2.07,5.09,3.21,7.45,3.21,2.58,0,4.12-.97,4.12-2.67,0-4.9-11.88-2.17-11.88-9.99,0-3.77,3.24-6.13,8.01-6.13,2.86,0,5.65,.91,7.7,2.26l-1.54,3.27c-2.39-1.45-4.77-2.04-6.44-2.04Z"/></g></g><g id="Capa_4"><polygon class="cls-2" points="251.03 530.71 248.14 523.03 284.07 431.37 288.87 433.14 251.03 530.71"/><rect class="cls-2" x="361.6" y="232.12" width="96.45" height="5.24"/><rect class="cls-2" x="315.58" y="585.27" width="142.39" height="5.29"/><polygon class="cls-2" points="300.18 402.36 295.8 400.75 358 232.12 362.76 232.12 300.18 402.36"/><rect class="cls-2" x="87.02" y="233.11" width="7.32" height="355.6"/><polygon class="cls-2" points="139.92 237.61 41.28 237.61 41.28 232.29 138.18 232.29 139.92 237.61"/><rect class="cls-2" x="43.61" y="585.43" width="94.48" height="5.12"/></g><g id="Capa_2"><path class="cls-2" d="M482.04,185.93c-26.84-9.98-53.3-18.41-84.28-18.41-90.94,0-165.87,80.71-165.87,183.01s73.72,185.23,164.67,185.23c64.03,0,117.62-26.73,144.25-99.34,.52-1.42,.23-3.11-.92-4.1-2.61-2.25-4.66,1.52-4.95,2.37-21.87,64.42-76.56,96.12-130.3,96.12-85.61,0-124.65-77.68-124.65-177.88s39.92-184.97,129.75-181.43c53.7,2.12,102.02,42.81,117.11,112.89l1.49-109.18c-16.41,20.63-37.86,12.82-46.29,10.7"/></g><g id="Capa_3"><polygon class="cls-2" points="251.03 530.71 226.42 592.59 88.87 233.11 138.61 232.95 251.03 530.71"/><path class="cls-2" d="M402.73,535.1l-25.93-2.07c-7.76,0-15.19-4.01-15.19-11.78V232.95h48.8v298.73c0,2.01-5.67,3.42-7.68,3.42Z"/><path class="cls-2" d="M408.99,588.71l-47.43-.07,.07-43.96c6.52,1.47,21.82,2.94,48.78,2.94l-.06,41.09h-1.36Z"/><path class="cls-2" d="M430.58,114.07l2.17,2.51c1.34,1.55,2.28,3.42,2.72,5.42h0c0,15.9-3.5,19.8-7.74,21.47-5.12,2.01-11.1,.88-14.81-3.17-4.36-4.77-7.12-13.49-4.08-29.6,0,0,16.87-15.04,16.87-15.04l-24.76-34.82-24.76,35.01,17.01,15.48c3.74,25.72-1.41,34.67-12.55,34.5-5.68-.08-16.15-5.15-14.4-23.79h0c.75-2.62,2.09-5.03,3.93-7.05l1.65-1.81-41.48-21.51s11.68,27.38,19.5,45.71c3.94,9.23,6.9,16.17,6.9,16.17l.89,4.44c23.29-4.61,41.92-9.32,86.31-1.09l29.02-66.33-42.36,23.51Zm-29.78-5.21c-.96,0-1.75-.78-1.75-1.75s.78-1.75,1.75-1.75,1.75,.78,1.75,1.75-.78,1.75-1.75,1.75Zm0-11.2c-1.84,0-3.33-1.49-3.33-3.33s1.49-3.33,3.33-3.33,3.33,1.49,3.33,3.33-1.49,3.33-3.33,3.33Zm0-11.31c-3.03,0-5.49-2.46-5.49-5.49s2.46-5.49,5.49-5.49,5.49,2.46,5.49,5.49-2.46,5.49-5.49,5.49Z"/></g></svg>