<?xml version="1.0" encoding="UTF-8"?><svg id="Objects" xmlns="http://www.w3.org/2000/svg" viewBox="0 0 175.25 505.18"><defs><style>.cls-1{fill:#242422;}.cls-2{fill:#1e2736;}.cls-3{fill:#f3e2d6;}.cls-4{fill:#2e2d2c;}.cls-5{fill:#101721;}.cls-6{fill:#3c3c3b;}.cls-7{fill:#272726;}.cls-8{fill:#e9d9cf;}.cls-9{fill:#fff8f2;}.cls-10{fill:#1f1612;}.cls-11{fill:#1d1d1b;}</style></defs><rect class="cls-9" x="152.54" y="247.21" width="21.31" height="8.01" transform="translate(-26.14 19.07) rotate(-6.19)"/><rect class="cls-9" x="8.04" y="240.56" width="8.01" height="21.31" transform="translate(-239 236.1) rotate(-83.81)"/><path class="cls-7" d="M139.48,218.82l-53.23-.06v.06H35.97s-1.19,214.02-3.32,281.91c0,0,9.99,4.45,15.64,4.45s15.96-3.74,15.96-3.74l19.8-222.04,3.13-.42,4.21,.42,19.8,222.04s10.3,3.74,15.96,3.74,15.64-4.45,15.64-4.45c-2.12-67.88-3.32-281.91-3.32-281.91Z"/><path class="cls-1" d="M124.41,504.96l-15.09-286.14-21.72,.11v-.11h-21.45l-15.09,286.14c5.72-.8,13.21-3.52,13.21-3.52l19.78-221.77c1.05,.32,2.38,.5,3.82,.5,1.33,0,2.56-.16,3.57-.43l19.77,221.7s7.5,2.72,13.21,3.52Z"/><polygon class="cls-3" points="126.75 53.24 96.11 39.33 87.62 40.4 79.14 39.33 48.49 53.24 86.51 150.45 87.62 151.92 88.74 150.45 126.75 53.24"/><path class="cls-7" d="M150.85,65.27s4.24-.94,6.6,3.3c2.36,4.24,17.54,179.95,17.54,179.95,0,0,1.26,1.05-1.81,1.99-3.06,.94-20.74,4.95-22.16,1.88-1.41-3.06-6.3-93.08-14.55-129.14l10.84-57.98h3.54Z"/><path class="cls-8" d="M109.54,35.68c-1.35-2.24-19.31-2.35-21.57-2.36h-.23c-2.26,0-20.22,.11-21.57,2.36-2,3.33,19.14,14.73,21.57,16.02v.12s.05-.03,.12-.06c.07,.04,.12,.06,.12,.06v-.12c2.43-1.29,23.57-12.69,21.57-16.02Z"/><g><path class="cls-5" d="M88.82,32.45h-2.12v-14.04l1.04-.02c4.42-.07,8.02-3.72,8.02-8.13s-3.65-8.14-8.14-8.14-8.14,3.65-8.14,8.14c0,.1,0,.15,.01,.21l-2.12,.04v-.05c0-.06-.01-.13-.01-.19,0-5.66,4.6-10.26,10.26-10.26s10.26,4.6,10.26,10.26c0,5.22-3.98,9.58-9.06,10.19v12Z"/><path class="cls-2" d="M90.8,33.72c0-1.76-1.42-3.18-3.18-3.18s-3.18,1.43-3.18,3.18,1.43,3.18,3.18,3.18,3.18-1.43,3.18-3.18Z"/><path class="cls-5" d="M106.78,40.64c-10.91-6.38-19.16-6.12-19.16-6.12,0,0-8.25-.27-19.16,6.12-10.91,6.39-48.15,24.35-45.76,27.81l64.91-22.22,64.92,22.22c2.39-3.46-34.85-21.42-45.76-27.81Z"/></g><rect class="cls-9" x="84.42" y="45.76" width="6.88" height="108.34"/><path class="cls-7" d="M61.96,43.42s-24.82,13.99-36.96,18.11c0,0-3.56,1.28-4.07,4.44-.32,1.99,3.35,32.36,6.65,47.68,3.3,15.32,12.94,56.92,1.85,131.59,0,0-.74,5.91,3.33,9.24,4.33,3.54,45.83,22.55,53.97,10.35,6.17-9.25,6.96-68.05,5.55-98.69-.57-12.41-15.56-42.95-19.96-63.57-6.47-30.32-7.76-59.88-7.76-59.88l-2.59,.74Z"/><path class="cls-11" d="M88.29,59.19s3.62-5.79,11.58-7.6c0,0,5.61,7.42,0,18.82,0,0-9.23-1.63-11.58-7.24v-3.98Z"/><path class="cls-7" d="M24.39,65.27s-4.24-.94-6.6,3.3C15.44,72.81,.25,248.52,.25,248.52c0,0-1.25,1.05,1.81,1.99,3.06,.94,20.74,4.95,22.16,1.88,1.41-3.06,6.3-93.08,14.55-129.14l-10.84-57.98h-3.54Z"/><path class="cls-4" d="M67.22,206.16s-1.27,15.02-4.16,15.2c-2.9,.18-24.62-4.34-30.23-8.33,0,0-1.81-2.9,1.09-14.48l33.3,7.6Z"/><path class="cls-6" d="M63.42,38.92s-6.88,5.43-9.41,17.92l6.52,4.89-6.34,3.44s6.52,60.81,38.19,102.81c0,0-.54-5.79-1.45-10.32-.9-4.53-21.72-97.92-22.08-118.19,0,0-2.53-4.34-5.43-.54Z"/><path class="cls-11" d="M86.95,59.19s-3.62-5.79-11.59-7.6c0,0-5.61,7.42,0,18.82,0,0,9.23-1.63,11.59-7.24v-3.98Z"/><path class="cls-10" d="M89.56,73.13c0-1-.81-1.81-1.81-1.81s-1.81,.81-1.81,1.81,.81,1.81,1.81,1.81,1.81-.81,1.81-1.81Z"/><path class="cls-10" d="M89.56,94.34c0-1-.81-1.81-1.81-1.81s-1.81,.81-1.81,1.81,.81,1.81,1.81,1.81,1.81-.81,1.81-1.81Z"/><path class="cls-10" d="M89.56,115.55c0-1-.81-1.81-1.81-1.81s-1.81,.81-1.81,1.81,.81,1.81,1.81,1.81,1.81-.81,1.81-1.81Z"/><path class="cls-10" d="M89.56,136.77c0-1-.81-1.81-1.81-1.81s-1.81,.81-1.81,1.81,.81,1.81,1.81,1.81,1.81-.81,1.81-1.81Z"/><path class="cls-7" d="M113.29,43.42s24.82,13.99,36.96,18.11c0,0,3.56,1.28,4.07,4.44,.32,1.99-3.35,32.36-6.65,47.68-3.3,15.32-12.94,56.92-1.85,131.59,0,0,.74,5.91-3.33,9.24-4.32,3.54-45.83,22.55-53.97,10.35-6.17-9.25-6.96-68.05-5.54-98.69,.57-12.41,15.56-42.95,19.96-63.57,6.46-30.32,7.76-59.88,7.76-59.88l2.59,.74Z"/><path class="cls-4" d="M103.13,108.78l30.23-1.27s1.45,10.14-7.6,10.5c-9.05,.36-15.2,.72-15.2,.72,0,0-10.86,1.63-7.42-9.96Z"/><path class="cls-4" d="M108.02,206.16s1.27,15.02,4.16,15.2c2.9,.18,24.62-4.34,30.23-8.33,0,0,1.81-2.9-1.09-14.48l-33.31,7.6Z"/><path class="cls-6" d="M111.82,38.92s6.88,5.43,9.41,17.92l-6.52,4.89,6.34,3.44s-6.52,60.81-38.19,102.81c0,0,.54-5.79,1.45-10.32,.9-4.53,21.72-97.92,22.08-118.19,0,0,2.53-4.34,5.43-.54Z"/><path class="cls-9" d="M87.62,45.46s2.34,3.37,3.2,4.14c1.63,1.45,4.34,5.25,12.24,10,0,0,9.78-6.72,10.72-16.26,0,0,.12-1.06-.24-1.77-.35-.71-2.83-4.36-3.3-5.42-.47-1.06-1.53-1.3-2.71-1.41,0,0,1.89-.12,1.18,1.41-.73,1.58-7.78,5.07-21.1,9.31Z"/><path class="cls-9" d="M87.62,45.46s-2.34,3.37-3.2,4.14c-1.63,1.45-4.34,5.25-12.23,10,0,0-9.78-6.72-10.72-16.26,0,0-.12-1.06,.24-1.77,.35-.71,2.83-4.36,3.3-5.42,.47-1.06,1.53-1.3,2.71-1.41,0,0-1.89-.12-1.18,1.41,.73,1.58,7.78,5.07,21.1,9.31Z"/><path class="cls-11" d="M91.83,172.54c0-1.82-1.48-3.3-3.3-3.3s-3.3,1.48-3.3,3.3,1.48,3.3,3.3,3.3,3.3-1.48,3.3-3.3Z"/><path class="cls-11" d="M90.66,61.45c0,1.55-1.26,2.81-2.8,2.81h0c-1.55,0-2.81-1.26-2.81-2.81v-.18c0-1.55,1.26-2.81,2.81-2.81h0c1.55,0,2.8,1.26,2.8,2.81v.18Z"/></svg>