<?xml version="1.0" encoding="UTF-8"?><svg id="Objects" xmlns="http://www.w3.org/2000/svg" viewBox="0 0 271.5 578.18"><defs><style>.cls-1{fill:#efada4;}.cls-1,.cls-2,.cls-3,.cls-4{opacity:.4;}.cls-5{fill:#1e2736;}.cls-6{fill:#fceff7;}.cls-2{fill:#fff;}.cls-3{fill:#f5d0b5;}.cls-7{fill:#841819;}.cls-4{fill:none;}.cls-8{fill:#101721;}.cls-9{fill:#f5e1a5;}.cls-10{fill:#7e1711;}.cls-11{fill:#871719;}.cls-12{fill:#fdede0;}</style></defs><g><path class="cls-8" d="M137.03,36.94h-2.27v-15.98l1.12-.02c4.73-.08,8.57-4.23,8.57-9.26s-3.9-9.27-8.7-9.27-8.7,4.16-8.7,9.27c0,.11,0,.17,.01,.24l-2.27,.04v-.06c0-.07-.01-.15-.01-.22,0-6.44,4.92-11.68,10.97-11.68s10.97,5.24,10.97,11.68c0,5.94-4.25,10.91-9.69,11.6v13.66Z"/><path class="cls-5" d="M139.15,38.39c0-2-1.52-3.62-3.4-3.62s-3.4,1.62-3.4,3.62,1.52,3.62,3.4,3.62,3.4-1.62,3.4-3.62Z"/><path class="cls-8" d="M196.9,65.23c-13.65,.61-29.01-11.69-40.67-18.96-11.66-7.27-20.48-6.97-20.48-6.97,0,0-8.82-.3-20.48,6.97-11.66,7.27-27.02,19.56-40.67,18.96-7.31-.32-10.81,8.77-8.25,12.71l69.4-25.3,69.4,25.3c2.56-3.94-.94-13.03-8.25-12.71Z"/></g><g><g><path class="cls-7" d="M170.41,167.93c3.93-11.16,18.34-28.25,16.38-43.24-1.96-15-9.5-27.9-24.89-25.11-15.39,2.79-25.22,12.9-25.22,12.9l-.93,.99-.93-.99s-9.82-10.11-25.22-12.9c-15.39-2.79-22.92,10.11-24.89,25.11-1.96,15,12.45,32.08,16.38,43.24,3.93,11.16,7.53,32.78,.65,52.31s-18.34,39.41-15.72,112.3c0,0,22.21,16,49.67,16.04h.11c27.46-.04,49.67-16.04,49.67-16.04,2.62-72.89-8.84-92.77-15.72-112.3-6.88-19.53-3.28-41.15,.65-52.31Z"/><g><g><path class="cls-10" d="M176.45,89.92c0,2.56-1.75,4.63-3.91,4.63s-3.91-2.07-3.91-4.63,1.75-4.63,3.91-4.63,3.91,2.07,3.91,4.63Z"/><path class="cls-10" d="M176.26,95.99c0,2.8-2.1,5.07-4.69,5.07s-4.69-2.27-4.69-5.07,2.1-5.07,4.69-5.07,4.69,2.27,4.69,5.07Z"/><path class="cls-10" d="M180.3,97.37c0,2.74-1.93,4.96-4.32,4.96s-4.31-2.22-4.31-4.96,1.93-4.96,4.31-4.96,4.32,2.22,4.32,4.96Z"/><path class="cls-10" d="M180.67,89.79c0,2.52-1.69,4.56-3.78,4.56s-3.78-2.04-3.78-4.56,1.69-4.56,3.78-4.56,3.78,2.04,3.78,4.56Z"/><path class="cls-10" d="M182.94,94.65c0,2.39-1.68,4.33-3.75,4.33s-3.75-1.94-3.75-4.33,1.68-4.33,3.75-4.33,3.75,1.94,3.75,4.33Z"/><path class="cls-12" d="M178.09,92.87c0-1.63-1.24-2.95-2.77-2.95s-2.77,1.32-2.77,2.95,1.24,2.95,2.77,2.95,2.77-1.32,2.77-2.95Z"/></g><g><path class="cls-10" d="M181.43,74.49c0,2.56-1.75,4.63-3.91,4.63s-3.91-2.07-3.91-4.63,1.75-4.63,3.91-4.63,3.91,2.07,3.91,4.63Z"/><path class="cls-10" d="M181.24,80.56c0,2.8-2.1,5.07-4.69,5.07s-4.69-2.27-4.69-5.07,2.1-5.07,4.69-5.07,4.69,2.27,4.69,5.07Z"/><path class="cls-10" d="M185.27,81.94c0,2.74-1.93,4.96-4.32,4.96s-4.31-2.22-4.31-4.96,1.93-4.96,4.31-4.96,4.32,2.22,4.32,4.96Z"/><path class="cls-10" d="M185.65,74.36c0,2.52-1.69,4.56-3.78,4.56s-3.78-2.04-3.78-4.56,1.69-4.56,3.78-4.56,3.78,2.04,3.78,4.56Z"/><path class="cls-10" d="M187.92,79.22c0,2.39-1.68,4.33-3.75,4.33s-3.75-1.94-3.75-4.33,1.68-4.33,3.75-4.33,3.75,1.94,3.75,4.33Z"/><path class="cls-12" d="M183.07,77.44c0-1.63-1.24-2.95-2.77-2.95s-2.77,1.32-2.77,2.95,1.24,2.95,2.77,2.95,2.77-1.32,2.77-2.95Z"/></g><g><path class="cls-10" d="M186.09,58.99c0,2.56-1.75,4.63-3.91,4.63s-3.91-2.07-3.91-4.63,1.75-4.63,3.91-4.63,3.91,2.07,3.91,4.63Z"/><path class="cls-10" d="M185.9,65.06c0,2.8-2.1,5.06-4.69,5.06s-4.69-2.27-4.69-5.06,2.1-5.07,4.69-5.07,4.69,2.27,4.69,5.07Z"/><path class="cls-10" d="M189.93,66.44c0,2.74-1.93,4.96-4.31,4.96s-4.32-2.22-4.32-4.96,1.93-4.96,4.32-4.96,4.31,2.22,4.31,4.96Z"/><path class="cls-10" d="M190.31,58.86c0,2.52-1.69,4.56-3.78,4.56s-3.78-2.04-3.78-4.56,1.69-4.56,3.78-4.56,3.78,2.04,3.78,4.56Z"/><path class="cls-10" d="M192.58,63.72c0,2.39-1.68,4.33-3.75,4.33s-3.75-1.94-3.75-4.33,1.68-4.33,3.75-4.33,3.75,1.94,3.75,4.33Z"/><path class="cls-12" d="M187.73,61.95c0-1.63-1.24-2.95-2.77-2.95s-2.77,1.32-2.77,2.95,1.24,2.95,2.77,2.95,2.77-1.32,2.77-2.95Z"/></g></g><g><g><path class="cls-10" d="M95.05,89.92c0,2.56,1.75,4.63,3.91,4.63s3.91-2.07,3.91-4.63-1.75-4.63-3.91-4.63-3.91,2.07-3.91,4.63Z"/><path class="cls-10" d="M95.23,95.99c0,2.8,2.1,5.07,4.69,5.07s4.69-2.27,4.69-5.07-2.1-5.07-4.69-5.07-4.69,2.27-4.69,5.07Z"/><path class="cls-10" d="M91.2,97.37c0,2.74,1.93,4.96,4.32,4.96s4.32-2.22,4.32-4.96-1.93-4.96-4.32-4.96-4.32,2.22-4.32,4.96Z"/><path class="cls-10" d="M90.82,89.79c0,2.52,1.69,4.56,3.78,4.56s3.78-2.04,3.78-4.56-1.69-4.56-3.78-4.56-3.78,2.04-3.78,4.56Z"/><path class="cls-10" d="M88.56,94.65c0,2.39,1.68,4.33,3.75,4.33s3.75-1.94,3.75-4.33-1.68-4.33-3.75-4.33-3.75,1.94-3.75,4.33Z"/><path class="cls-6" d="M93.41,92.87c0-1.63,1.24-2.95,2.77-2.95s2.77,1.32,2.77,2.95-1.24,2.95-2.77,2.95-2.77-1.32-2.77-2.95Z"/></g><g><path class="cls-10" d="M90.07,74.49c0,2.56,1.75,4.63,3.91,4.63s3.91-2.07,3.91-4.63-1.75-4.63-3.91-4.63-3.91,2.07-3.91,4.63Z"/><path class="cls-10" d="M90.26,80.56c0,2.8,2.1,5.07,4.69,5.07s4.69-2.27,4.69-5.07-2.1-5.07-4.69-5.07-4.69,2.27-4.69,5.07Z"/><path class="cls-10" d="M86.23,81.94c0,2.74,1.93,4.96,4.31,4.96s4.32-2.22,4.32-4.96-1.93-4.96-4.32-4.96-4.31,2.22-4.31,4.96Z"/><path class="cls-10" d="M85.85,74.36c0,2.52,1.69,4.56,3.78,4.56s3.78-2.04,3.78-4.56-1.69-4.56-3.78-4.56-3.78,2.04-3.78,4.56Z"/><path class="cls-10" d="M83.58,79.22c0,2.39,1.68,4.33,3.75,4.33s3.75-1.94,3.75-4.33-1.68-4.33-3.75-4.33-3.75,1.94-3.75,4.33Z"/><path class="cls-12" d="M88.43,77.44c0-1.63,1.24-2.95,2.77-2.95s2.77,1.32,2.77,2.95-1.24,2.95-2.77,2.95-2.77-1.32-2.77-2.95Z"/></g><g><path class="cls-10" d="M85.41,58.99c0,2.56,1.75,4.63,3.91,4.63s3.91-2.07,3.91-4.63-1.75-4.63-3.91-4.63-3.91,2.07-3.91,4.63Z"/><path class="cls-10" d="M85.6,65.06c0,2.8,2.1,5.06,4.69,5.06s4.69-2.27,4.69-5.06-2.1-5.07-4.69-5.07-4.69,2.27-4.69,5.07Z"/><path class="cls-10" d="M81.56,66.44c0,2.74,1.93,4.96,4.31,4.96s4.32-2.22,4.32-4.96-1.93-4.96-4.32-4.96-4.31,2.22-4.31,4.96Z"/><path class="cls-11" d="M81.19,58.86c0,2.52,1.69,4.56,3.78,4.56s3.78-2.04,3.78-4.56-1.69-4.56-3.78-4.56-3.78,2.04-3.78,4.56Z"/><path class="cls-10" d="M78.92,63.72c0,2.39,1.68,4.33,3.75,4.33s3.75-1.94,3.75-4.33-1.68-4.33-3.75-4.33-3.75,1.94-3.75,4.33Z"/><path class="cls-12" d="M83.77,61.95c0-1.63,1.24-2.95,2.77-2.95s2.77,1.32,2.77,2.95-1.24,2.95-2.77,2.95-2.77-1.32-2.77-2.95Z"/></g></g></g><g><g><path class="cls-10" d="M183.51,330.79l-47.76,13.75-47.76-13.75s-42.33,93.89-38.3,230.22c0,0,39.31,17.17,85.68,17.17h.77c46.37,0,85.68-17.17,85.68-17.17,4.03-136.32-38.3-230.22-38.3-230.22Z"/><path class="cls-1" d="M182.5,329.15l-46.75,15.36-46.75-15.36s-41.33,64.4-57.45,207.7c0,0,13.87,29.05,103.82,28.98,80.74-.07,104.59-28.98,104.59-28.98-16.13-143.3-57.45-207.7-57.45-207.7Z"/><path class="cls-3" d="M182.5,329.15l-46.75,15.36-46.75-15.36s-38.81,34.35-72.07,184.09c0,0,19.19,32.19,118.44,34.89,76.92,2.09,119.2-34.89,119.2-34.89-33.26-149.74-72.07-184.09-72.07-184.09Z"/></g><g><path class="cls-4" d="M183.51,330.79s97.77,123.95,87.19,188.89c-10.58,64.94-79.63-121.29-100.29-184.09l13.11-4.8Z"/><path class="cls-3" d="M159.82,332.91s-6.55,232.93,52.92,227.02c59.47-5.9-36.29-229.71-36.29-229.71l-16.63,2.68Z"/><path class="cls-3" d="M87.99,330.79S-9.78,454.74,.8,519.68c10.58,64.94,79.63-121.29,100.29-184.09l-13.11-4.8Z"/><path class="cls-3" d="M111.68,332.91s6.55,232.93-52.92,227.02c-59.47-5.9,36.29-229.71,36.29-229.71l16.63,2.68Z"/><path class="cls-3" d="M141.17,340.42l-5.42,.96-5.42-.96s-58.46,237.76,5.04,230.24h.77c63.5,7.51,5.04-230.24,5.04-230.24Z"/></g></g><g><g><path class="cls-9" d="M137.93,343.17c0,2.56-1.75,4.63-3.91,4.63s-3.91-2.07-3.91-4.63,1.75-4.63,3.91-4.63,3.91,2.07,3.91,4.63Z"/><path class="cls-9" d="M137.74,349.25c0,2.8-2.1,5.07-4.69,5.07s-4.69-2.27-4.69-5.07,2.1-5.07,4.69-5.07,4.69,2.27,4.69,5.07Z"/><path class="cls-9" d="M141.77,350.62c0,2.74-1.93,4.97-4.31,4.97s-4.32-2.22-4.32-4.97,1.93-4.96,4.32-4.96,4.31,2.22,4.31,4.96Z"/><path class="cls-9" d="M142.15,343.04c0,2.52-1.69,4.56-3.78,4.56s-3.78-2.04-3.78-4.56,1.69-4.56,3.78-4.56,3.78,2.04,3.78,4.56Z"/><path class="cls-9" d="M144.42,347.9c0,2.39-1.68,4.33-3.75,4.33s-3.75-1.94-3.75-4.33,1.68-4.33,3.75-4.33,3.75,1.94,3.75,4.33Z"/><path class="cls-2" d="M139.56,346.13c0-1.63-1.24-2.95-2.77-2.95s-2.77,1.32-2.77,2.95,1.24,2.95,2.77,2.95,2.77-1.32,2.77-2.95Z"/></g><g><path class="cls-9" d="M161.46,336.4c0,2.56-1.75,4.63-3.91,4.63s-3.91-2.07-3.91-4.63,1.75-4.63,3.91-4.63,3.91,2.07,3.91,4.63Z"/><path class="cls-9" d="M161.27,342.47c0,2.8-2.1,5.06-4.69,5.06s-4.69-2.27-4.69-5.06,2.1-5.07,4.69-5.07,4.69,2.27,4.69,5.07Z"/><path class="cls-9" d="M165.3,343.85c0,2.74-1.93,4.96-4.31,4.96s-4.32-2.22-4.32-4.96,1.93-4.97,4.32-4.97,4.31,2.22,4.31,4.97Z"/><path class="cls-9" d="M165.68,336.26c0,2.52-1.69,4.56-3.78,4.56s-3.78-2.04-3.78-4.56,1.69-4.56,3.78-4.56,3.78,2.04,3.78,4.56Z"/><path class="cls-9" d="M167.95,341.13c0,2.39-1.68,4.33-3.75,4.33s-3.75-1.94-3.75-4.33,1.68-4.33,3.75-4.33,3.75,1.94,3.75,4.33Z"/><path class="cls-2" d="M163.1,339.35c0-1.63-1.24-2.95-2.77-2.95s-2.77,1.32-2.77,2.95,1.24,2.95,2.77,2.95,2.77-1.32,2.77-2.95Z"/></g><g><path class="cls-9" d="M183.38,328.62c0,2.56-1.75,4.63-3.91,4.63s-3.91-2.07-3.91-4.63,1.75-4.63,3.91-4.63,3.91,2.07,3.91,4.63Z"/><path class="cls-9" d="M183.19,334.69c0,2.8-2.1,5.07-4.69,5.07s-4.69-2.27-4.69-5.07,2.1-5.07,4.69-5.07,4.69,2.27,4.69,5.07Z"/><path class="cls-9" d="M187.23,336.06c0,2.74-1.93,4.96-4.32,4.96s-4.32-2.22-4.32-4.96,1.93-4.96,4.32-4.96,4.32,2.22,4.32,4.96Z"/><path class="cls-9" d="M187.6,328.48c0,2.52-1.69,4.56-3.78,4.56s-3.78-2.04-3.78-4.56,1.69-4.56,3.78-4.56,3.78,2.04,3.78,4.56Z"/><path class="cls-9" d="M189.87,333.35c0,2.39-1.68,4.33-3.75,4.33s-3.75-1.94-3.75-4.33,1.68-4.33,3.75-4.33,3.75,1.94,3.75,4.33Z"/><path class="cls-2" d="M185.02,331.57c0-1.63-1.24-2.95-2.77-2.95s-2.77,1.32-2.77,2.95,1.24,2.95,2.77,2.95,2.77-1.32,2.77-2.95Z"/></g><g><path class="cls-9" d="M110.04,336.4c0,2.56,1.75,4.63,3.91,4.63s3.91-2.07,3.91-4.63-1.75-4.63-3.91-4.63-3.91,2.07-3.91,4.63Z"/><path class="cls-9" d="M110.23,342.47c0,2.8,2.1,5.06,4.69,5.06s4.69-2.27,4.69-5.06-2.1-5.07-4.69-5.07-4.69,2.27-4.69,5.07Z"/><path class="cls-9" d="M106.2,343.85c0,2.74,1.93,4.96,4.31,4.96s4.32-2.22,4.32-4.96-1.93-4.97-4.32-4.97-4.31,2.22-4.31,4.97Z"/><path class="cls-9" d="M105.82,336.26c0,2.52,1.69,4.56,3.78,4.56s3.78-2.04,3.78-4.56-1.69-4.56-3.78-4.56-3.78,2.04-3.78,4.56Z"/><path class="cls-9" d="M103.55,341.13c0,2.39,1.68,4.33,3.75,4.33s3.75-1.94,3.75-4.33-1.68-4.33-3.75-4.33-3.75,1.94-3.75,4.33Z"/><path class="cls-2" d="M108.4,339.35c0-1.63,1.24-2.95,2.77-2.95s2.77,1.32,2.77,2.95-1.24,2.95-2.77,2.95-2.77-1.32-2.77-2.95Z"/></g><g><path class="cls-9" d="M88.12,328.62c0,2.56,1.75,4.63,3.91,4.63s3.91-2.07,3.91-4.63-1.75-4.63-3.91-4.63-3.91,2.07-3.91,4.63Z"/><path class="cls-9" d="M88.3,334.69c0,2.8,2.1,5.07,4.69,5.07s4.69-2.27,4.69-5.07-2.1-5.07-4.69-5.07-4.69,2.27-4.69,5.07Z"/><path class="cls-9" d="M84.27,336.06c0,2.74,1.93,4.96,4.32,4.96s4.31-2.22,4.31-4.96-1.93-4.96-4.31-4.96-4.32,2.22-4.32,4.96Z"/><path class="cls-9" d="M83.89,328.48c0,2.52,1.69,4.56,3.78,4.56s3.78-2.04,3.78-4.56-1.69-4.56-3.78-4.56-3.78,2.04-3.78,4.56Z"/><path class="cls-9" d="M81.63,333.35c0,2.39,1.68,4.33,3.75,4.33s3.75-1.94,3.75-4.33-1.68-4.33-3.75-4.33-3.75,1.94-3.75,4.33Z"/><path class="cls-2" d="M86.48,331.57c0-1.63,1.24-2.95,2.77-2.95s2.77,1.32,2.77,2.95-1.24,2.95-2.77,2.95-2.77-1.32-2.77-2.95Z"/></g></g></g></svg>